<?xml version="1.0" encoding="UTF-8"?>
<svg width="512px" height="512px" enable-background="new 0 0 512 512" version="1.1" viewBox="0 0 512 512" xml:space="preserve" xmlns="http://www.w3.org/2000/svg"><path d="m502.08 302.4c-0.763-13.813-2.146-29.285-3.793-42.449-2.795-22.321-4.612-25.454-5.938-27.737-1.013-1.748-2.489-4.294-13.896-15.065 3.22-1.732 5.642-3.82 7.404-5.745 7.068-7.708 7.471-16.826 7.342-20.201-0.144-11.625-5.089-18.817-9.205-22.786-8.376-8.123-18.861-8.493-21.369-8.461h-17.643c-3.435 0-6.77 0.396-9.963 1.174-14.638-26.607-32.507-55.197-45.469-63.212-4.861-3.006-17.774-10.99-122.83-10.99-4.143 0-7.163 0.017-8.675 0.028h-4.094c-1.511-0.011-4.535-0.028-8.674-0.028-105.04 0-117.96 7.982-122.83 10.99-12.961 8.015-30.832 36.606-45.47 63.213-3.194-0.779-6.528-1.176-9.961-1.176h-17.758c-3.766 0-13.376 0.825-21.221 8.431-4.147 3.999-9.093 11.19-9.236 22.813-0.129 3.374 0.273 12.484 7.354 20.227 1.761 1.916 4.175 3.993 7.382 5.718-11.38 10.746-12.869 13.314-13.898 15.09-1.319 2.285-3.126 5.413-5.92 27.714-1.651 13.177-3.035 28.649-3.797 42.448-1.373 24.796-0.917 44.8 1.357 59.49v34.299c0 15.913 12.947 28.859 28.86 28.859h43.059c13.526 0 24.909-9.346 28.025-21.918 2.026 0.069 4.062 0.136 6.102 0.201 53.187 1.641 113.21 1.817 136.55 1.817h4.24c23.339 0 83.365-0.177 136.58-1.818 2.032-0.064 4.061-0.131 6.078-0.199 3.117 12.571 14.5 21.917 28.026 21.917h43.061c15.913 0 28.859-12.946 28.859-28.859v-34.291c1.413-9.149 2.13-20.447 2.13-33.609 2e-3 -7.908-0.258-16.619-0.771-25.885z" fill="#D712F9"/><linearGradient id="SVGID_1_" x1="256" x2="256" y1="86.932" y2="425.05" gradientUnits="userSpaceOnUse"><stop stop-color="#FFFFFF" stop-opacity="0" offset="0"/><stop stop-color="#000000" stop-opacity=".3" offset="1"/></linearGradient><path d="m502.08 302.4c-0.763-13.813-2.146-29.285-3.793-42.449-2.795-22.321-4.612-25.454-5.938-27.737-1.013-1.748-2.489-4.294-13.896-15.065 3.22-1.732 5.642-3.82 7.404-5.745 7.068-7.708 7.471-16.826 7.342-20.201-0.144-11.625-5.089-18.817-9.205-22.786-8.376-8.123-18.861-8.493-21.369-8.461h-17.643c-3.435 0-6.77 0.396-9.963 1.174-14.638-26.607-32.507-55.197-45.469-63.212-4.861-3.006-17.774-10.99-122.83-10.99-4.143 0-7.163 0.017-8.675 0.028h-4.094c-1.511-0.011-4.535-0.028-8.674-0.028-105.04 0-117.96 7.982-122.83 10.99-12.961 8.015-30.832 36.606-45.47 63.213-3.194-0.779-6.528-1.176-9.961-1.176h-17.758c-3.766 0-13.376 0.825-21.221 8.431-4.147 3.999-9.093 11.19-9.236 22.813-0.129 3.374 0.273 12.484 7.354 20.227 1.761 1.916 4.175 3.993 7.382 5.718-11.38 10.746-12.869 13.314-13.898 15.09-1.319 2.285-3.126 5.413-5.92 27.714-1.651 13.177-3.035 28.649-3.797 42.448-1.373 24.796-0.917 44.8 1.357 59.49v34.299c0 15.913 12.947 28.859 28.86 28.859h43.059c13.526 0 24.909-9.346 28.025-21.918 2.026 0.069 4.062 0.136 6.102 0.201 53.187 1.641 113.21 1.817 136.55 1.817h4.24c23.339 0 83.365-0.177 136.58-1.818 2.032-0.064 4.061-0.131 6.078-0.199 3.117 12.571 14.5 21.917 28.026 21.917h43.061c15.913 0 28.859-12.946 28.859-28.859v-34.291c1.413-9.149 2.13-20.447 2.13-33.609 2e-3 -7.908-0.258-16.619-0.771-25.885z" fill="url(#SVGID_1_)"/><path d="m413.66 286.36c-1.93 4.33-5.641 7.699-10.19 9.18h16.86c-3.17-2.18-5.56-5.41-6.67-9.18z" fill="#FFFFFF"/><path d="m414.45 274.76c1.6-3.58 4.41-6.5 7.92-8.24l-14.83-1.1c3.29 2.17 5.77 5.469 6.91 9.34z" fill="#FFFFFF"/><path d="m446.68 295.53v-13.101c-0.26 5.44-3.09 10.21-7.319 13.11h4.909c0.841 1e-3 1.631-9e-3 2.41-9e-3z" fill="#FFFFFF"/><path d="m69.11 268.05c-0.36 0.04-1.81 0.25-3.79 0.76v12.03c0.25-5.39 3.03-10.14 7.2-13.05l-3.41 0.26z" fill="#FFFFFF"/><path d="m446.68 268.84c-2.029-0.54-3.5-0.76-3.8-0.8l-3.399-0.25c4.159 2.91 6.939 7.64 7.199 13.03v-11.98z" fill="#FFFFFF"/><path d="m65.32 295.53c0.78 0 1.57 0.01 2.41 0.01h4.91c-4.24-2.9-7.07-7.69-7.32-13.14v13.13z" fill="#FFFFFF"/><path d="m80.31 186.78c-2.71-2.69-6.97-5.32-13.29-5.32h-17.9c-0.02-0.02-3.69-0.04-6.2 2.44-1.75 1.71-2.63 4.35-2.63 7.84 0 0.09 0 0.19-0.01 0.29 0 0-0.17 2.85 1.76 4.91 1.57 1.68 4.2 2.53 7.83 2.53 7.55 0 16.01 0.01 23.43 1.51 1.58-3.41 4-8.35 7.01-14.2z" fill="#FFFFFF"/><path d="m462.13 199.47c3.66 0 6.311-0.87 7.88-2.58 1.87-2.05 1.721-4.84 1.71-4.87 0-0.09-0.01-0.19-0.01-0.29 0-3.48-0.88-6.12-2.63-7.84-2.51-2.47-6.17-2.42-6.23-2.43h-17.869c-6.32 0-10.58 2.63-13.29 5.32 3.01 5.84 5.43 10.79 7.01 14.2 7.419-1.5 15.879-1.51 23.429-1.51z" fill="#FFFFFF"/><path d="m391.19 264.21-6.671-0.5v6.03c1.7-2.38 3.99-4.29 6.671-5.53z" fill="#FFFFFF"/><path d="m68.41 261.59c0.05-0.01 0.1-0.01 0.14-0.01l61.83-4.6c1.32-0.181 16.57-2.17 39.56-4.121 23-1.95 53.74-3.86 86.06-3.86 64.61 0 122.95 7.63 125.62 7.98l61.83 4.6c0.05 0 0.09 0 0.14 0.01 1.03 0.12 2.16 0.32 3.36 0.58-1.46-28.45-10.73-51.63-12.4-55.6-0.069-0.06-0.13-0.12-0.2-0.18-0.359-0.31-0.64-0.69-0.83-1.13-1.979-4.45-4.909-10.46-8.439-17.27-0.11-0.17-0.2-0.36-0.28-0.55-13.77-26.56-36.28-64.88-46.56-71.24-10.12-6.26-77.37-8.06-120.09-7.74h-0.011-0.02-4.24c-42.76-0.32-110 1.48-120.12 7.74-10.29 6.36-32.79 44.68-46.56 71.24-0.08 0.19-0.17 0.38-0.29 0.56-3.52 6.8-6.45 12.81-8.42 17.26-0.2 0.44-0.48 0.82-0.84 1.13-0.06 0.06-0.13 0.12-0.2 0.18-1.67 3.97-10.94 27.19-12.4 55.6 1.2-0.259 2.33-0.459 3.36-0.579zm21.62-62.6c0.08-0.18 7.65-18.52 17.29-37.21 20.03-38.83 29.39-41.36 32.47-42.19 17.3-4.67 41.82-5.95 114.09-5.95h4.24c72.27 0 96.79 1.28 114.09 5.95 3.08 0.83 12.44 3.36 32.47 42.19 9.641 18.69 17.21 37.03 17.29 37.21 0.41 1.01 0.29 2.15-0.31 3.05-0.601 0.9-1.61 1.44-2.7 1.44h-325.92c-1.09 0-2.1-0.54-2.7-1.44s-0.72-2.04-0.31-3.05z" fill="#FFFFFF"/><path d="m384.52 295.54h8.54c-3.479-1.13-6.46-3.37-8.54-6.29v6.29z" fill="#FFFFFF"/><path d="m32.87 379.69c-0.03-0.04-0.06-0.091-0.1-0.141v16.641c0 4.06 3.31 7.369 7.37 7.369h43.06c4.07 0 7.37-3.31 7.37-7.369v-8.87c-53.67-2.431-56.14-5.62-57.7-7.63z" fill="#FFFFFF"/><path d="m97.55 274.76c1.14-3.87 3.62-7.16 6.91-9.34l-14.83 1.1c3.51 1.74 6.32 4.659 7.92 8.24z" fill="#FFFFFF"/><path d="m439.21 336.18h-54.69v27.21c49.61-0.38 58.601-9.399 60.75-18.22 0.641-2.6 0.44-4.65-0.579-6.09-1.58-2.249-4.83-2.81-5.481-2.9z" fill="#FFFFFF"/><rect x="133.97" y="336.18" width="244.06" height="15.811" fill="#FFFFFF"/><path d="m67.31 339.08c-1.02 1.439-1.22 3.49-0.58 6.09 2.16 8.82 11.14 17.84 60.75 18.22v-27.21h-54.69c-0.62 0.089-3.89 0.64-5.48 2.9z" fill="#FFFFFF"/><path d="m444.77 215.56c3.58 11.05 8.07 28.6 8.78 48.7 8.36 3.48 16.97 10.49 16.97 22.851 0 14.92-13.35 14.92-26.25 14.92h-62.989c-1.8 0-3.25-1.45-3.25-3.24v-35.72c-6.24-0.771-22.431-2.67-44.23-4.37-21.79-1.7-49.18-3.2-77.8-3.2-57.25 0-109.55 6.02-122.03 7.57v35.72c0 1.79-1.45 3.24-3.25 3.24h-62.991c-12.9 0-26.25 0-26.25-14.92 0-12.36 8.61-19.37 16.97-22.851 0.71-20.1 5.2-37.65 8.79-48.7-14.37 12.77-27.36 24.85-28.94 27.36-3.37 8.36-14.89 113.08-0.45 132.59 1.58 0.92 10.15 3.431 55.93 5.44h0.04c0.03 0 0.06 0.01 0.1 0.01 7.75 0.34 16.55 0.66 26.58 0.96 52.23 1.57 110.68 1.74 133.38 1.74h4.24c22.71 0 81.149-0.17 133.39-1.74 10.03-0.3 18.84-0.62 26.59-0.96 0.03 0 0.051-0.01 0.08-0.01h0.03c45.79-2.01 54.36-4.521 55.94-5.44 14.439-19.51 2.92-124.23-0.44-132.59-1.59-2.51-14.58-14.59-28.94-27.36zm-301.41 58.36c1.05-1.9 2.67-3.14 4.69-3.6 31.91-7.29 104.85-7.681 107.94-7.69h0.01 0.01c3.09 0.01 76.04 0.4 107.94 7.69 2.02 0.46 3.64 1.699 4.689 3.6 3.891 7.021-1.27 22.83-2.35 25.93-0.45 1.311-1.68 2.181-3.06 2.181h-214.46c-1.38 0-2.61-0.87-3.07-2.181-1.07-3.1-6.23-18.91-2.34-25.93zm308.22 72.79c-4.021 16.47-24.39 23.18-70.3 23.18-1.8 0-3.25-1.449-3.25-3.25v-8.159h-244.06v8.159c0 1.801-1.45 3.25-3.25 3.25-45.91 0-66.27-6.71-70.3-23.18-1.11-4.53-0.56-8.38 1.62-11.43 3.47-4.84 9.58-5.521 10.27-5.58 0.1-0.01 0.19-0.01 0.29-0.01h366.8c0.1 0 0.189 0 0.29 0.01 0.689 0.06 6.8 0.74 10.27 5.58 2.18 3.05 2.731 6.899 1.62 11.43z" fill="#FFFFFF"/><path d="m127.48 263.71-6.67 0.5c2.68 1.24 4.97 3.15 6.67 5.54v-6.04z" fill="#FFFFFF"/><path d="m98.34 286.36c-1.11 3.77-3.5 7-6.67 9.18h16.86c-4.55-1.481-8.26-4.85-10.19-9.18z" fill="#FFFFFF"/><path d="m127.48 289.25c-2.08 2.92-5.06 5.16-8.54 6.29h8.54v-6.29z" fill="#FFFFFF"/><path d="m360.87 295.54c1.97-6.46 3.72-15.53 2.09-18.47-0.2-0.36-0.33-0.391-0.46-0.42-31.13-7.11-105.41-7.53-106.5-7.53s-75.37 0.42-106.51 7.53c-0.12 0.029-0.25 0.06-0.45 0.42-1.64 2.949 0.12 12.02 2.09 18.47h209.74z" fill="#FFFFFF"/><path d="m421.43 387.32v8.87c0 4.06 3.301 7.369 7.37 7.369h43.061c4.06 0 7.37-3.31 7.37-7.369v-16.64c-0.04 0.05-0.07 0.101-0.101 0.141-1.559 2.009-4.03 5.198-57.7 7.629z" fill="#FFFFFF"/><path d="m148.77 302.03h214.46c1.38 0 2.609-0.87 3.06-2.181 1.08-3.1 6.24-18.909 2.35-25.93-1.05-1.9-2.67-3.14-4.689-3.6-31.9-7.29-104.85-7.681-107.94-7.69h-0.01-0.01c-3.09 0.01-76.03 0.4-107.94 7.69-2.02 0.46-3.64 1.699-4.69 3.6-3.89 7.021 1.27 22.83 2.34 25.93 0.459 1.311 1.689 2.181 3.069 2.181zm0.27-24.96c0.2-0.36 0.33-0.391 0.45-0.42 31.14-7.11 105.42-7.53 106.51-7.53s75.37 0.42 106.5 7.53c0.13 0.029 0.26 0.06 0.46 0.42 1.63 2.939-0.12 12.01-2.09 18.47h-209.74c-1.97-6.45-3.73-15.521-2.09-18.47z" fill="#052C49"/><path d="m93.04 203.48h325.92c1.09 0 2.1-0.54 2.7-1.44s0.72-2.04 0.31-3.05c-0.08-0.18-7.649-18.52-17.29-37.21-20.029-38.83-29.39-41.36-32.47-42.19-17.3-4.67-41.82-5.95-114.09-5.95h-4.24c-72.27 0-96.79 1.28-114.09 5.95-3.08 0.83-12.44 3.36-32.47 42.19-9.64 18.69-17.21 37.03-17.29 37.21-0.41 1.01-0.29 2.15 0.31 3.05s1.61 1.44 2.7 1.44zm48.44-77.62c16.65-4.49 40.81-5.72 112.4-5.72h4.24c71.59 0 95.75 1.23 112.4 5.72 11.131 3.01 31.79 43.45 43.57 71.12h-316.18c11.78-27.67 32.43-68.11 43.57-71.12z" fill="#052C49"/><path d="m487.1 303.23c-1.619-29.33-5.67-59.94-7.729-63.49-2.47-4.26-23.66-23.2-34.9-33.11 5.71-0.67 11.96-0.67 17.66-0.67 5.561 0 9.82-1.58 12.67-4.69 3.53-3.85 3.47-8.58 3.4-9.65-0.021-5.29-1.58-9.47-4.65-12.43-4.29-4.16-10.03-4.25-10.8-4.23h-17.77c-7.421 0-12.74 2.73-16.4 5.86-13.57-25.74-35.18-62.88-46.92-70.14-14.96-9.25-112.49-8.8-123.56-8.72h-4.2c-11.07-0.08-108.59-0.53-123.56 8.72-11.74 7.26-33.35 44.4-46.92 70.14-3.66-3.12-8.98-5.86-16.4-5.86h-17.76c-0.79 0-6.52 0.07-10.81 4.23-3.07 2.96-4.63 7.14-4.65 12.43-0.07 1.07-0.13 5.8 3.4 9.66 2.85 3.1 7.11 4.68 12.67 4.68 5.7 0 11.95 0 17.66 0.67-11.25 9.91-32.43 28.85-34.9 33.11-2.05 3.55-6.11 34.16-7.73 63.49-1.04 18.779-1.33 41.079 1.38 57.47v0.01 35.48c0 7.64 6.22 13.859 13.86 13.859h43.06c7.65 0 13.87-6.22 13.87-13.859v-8.591c6.26 0.25 13.14 0.5 20.72 0.74 52.84 1.63 112.77 1.811 136.09 1.811h4.24c23.32 0 83.25-0.181 136.1-1.811 7.57-0.24 14.45-0.49 20.71-0.74v8.591c0 7.64 6.221 13.859 13.87 13.859h43.061c7.64 0 13.859-6.22 13.859-13.859v-35.48c1.561-9.45 2.13-20.86 2.13-32.42 0-8.51-0.31-17.1-0.75-25.06zm-42.119-121.77h17.869c0.061 0.01 3.721-0.04 6.23 2.43 1.75 1.72 2.63 4.36 2.63 7.84 0 0.1 0.01 0.2 0.01 0.29 0.011 0.03 0.16 2.82-1.71 4.87-1.569 1.71-4.22 2.58-7.88 2.58-7.55 0-16.01 0.01-23.43 1.51-1.58-3.41-4-8.36-7.01-14.2 2.711-2.69 6.97-5.32 13.291-5.32zm-395.11 18.01c-3.63 0-6.26-0.85-7.83-2.53-1.93-2.06-1.76-4.91-1.76-4.91 0.01-0.1 0.01-0.2 0.01-0.29 0-3.49 0.88-6.13 2.63-7.84 2.51-2.48 6.18-2.46 6.2-2.44h17.9c6.32 0 10.58 2.63 13.29 5.32-3.01 5.85-5.43 10.79-7.01 14.2-7.42-1.5-15.88-1.51-23.43-1.51zm27.58 7.1c0.07-0.06 0.14-0.12 0.2-0.18 0.36-0.31 0.64-0.69 0.84-1.13 1.97-4.45 4.9-10.46 8.42-17.26 0.12-0.18 0.21-0.37 0.29-0.56 13.77-26.56 36.27-64.88 46.56-71.24 10.12-6.26 77.36-8.06 120.12-7.74h4.24 0.02 0.011c42.72-0.32 109.97 1.48 120.09 7.74 10.279 6.36 32.79 44.68 46.56 71.24 0.08 0.19 0.17 0.38 0.28 0.55 3.53 6.81 6.46 12.82 8.439 17.27 0.19 0.44 0.471 0.82 0.83 1.13 0.07 0.06 0.131 0.12 0.2 0.18 1.67 3.97 10.94 27.15 12.4 55.6-1.2-0.26-2.33-0.46-3.36-0.58-0.05-0.01-0.09-0.01-0.14-0.01l-61.83-4.6c-2.67-0.35-61.009-7.98-125.62-7.98-32.32 0-63.06 1.91-86.06 3.86-22.99 1.95-38.24 3.94-39.56 4.121l-61.83 4.6c-0.04 0-0.09 0-0.14 0.01-1.03 0.12-2.16 0.32-3.36 0.58 1.46-28.411 10.73-51.631 12.4-55.601zm315.61 88.97h-8.54v-6.29c2.08 2.92 5.06 5.16 8.54 6.29zm-8.54-25.8v-6.03l6.671 0.5c-2.681 1.24-4.971 3.15-6.671 5.53zm3.37 9.76c0-5.72 4.65-10.38 10.37-10.38 5.73 0 10.38 4.66 10.38 10.38s-4.649 10.38-10.38 10.38c-5.72 0-10.37-4.661-10.37-10.38zm19.65-14.08 14.83 1.1c-3.51 1.74-6.32 4.66-7.92 8.24-1.14-3.871-3.62-7.17-6.91-9.34zm6.12 20.94c1.109 3.77 3.5 7 6.67 9.18h-16.86c4.55-1.481 8.261-4.85 10.19-9.18zm5.81-4.74c0-5.72 4.65-10.38 10.38-10.38 5.721 0 10.37 4.66 10.37 10.38s-4.649 10.38-10.37 10.38c-5.73 0-10.38-4.66-10.38-10.38zm27.21 0.809v13.101c-0.779 0-1.569 0.01-2.41 0.01h-4.909c4.229-2.901 7.059-7.67 7.319-13.111zm-7.199-14.639 3.399 0.25c0.3 0.04 1.771 0.26 3.8 0.8v11.98c-0.26-5.391-3.04-10.12-7.199-13.03zm-366.84 27.75h-4.91c-0.84 0-1.63-0.01-2.41-0.01v-13.13c0.25 5.449 3.08 10.239 7.32 13.14zm-7.32-14.7v-12.03c1.98-0.51 3.43-0.72 3.79-0.76l3.41-0.26c-4.17 2.91-6.95 7.66-7.2 13.05zm6.46 0.78c0-5.72 4.65-10.38 10.38-10.38 5.72 0 10.37 4.66 10.37 10.38s-4.65 10.38-10.37 10.38c-5.73 0-10.38-4.66-10.38-10.38zm17.85-15.101 14.83-1.1c-3.29 2.18-5.77 5.47-6.91 9.34-1.6-3.58-4.41-6.499-7.92-8.24zm8.71 19.841c1.93 4.33 5.64 7.699 10.19 9.18h-16.86c3.17-2.18 5.56-5.41 6.67-9.18zm5.02-6.86c0-5.72 4.65-10.38 10.38-10.38 5.72 0 10.38 4.66 10.38 10.38s-4.66 10.38-10.38 10.38c-5.73 0-10.38-4.661-10.38-10.38zm24.12 9.75v6.29h-8.54c3.48-1.13 6.46-3.37 8.54-6.29zm-6.67-25.04 6.67-0.5v6.04c-1.7-2.39-3.99-4.3-6.67-5.54zm-30.24 131.98c0 4.06-3.3 7.369-7.37 7.369h-43.06c-4.06 0-7.37-3.31-7.37-7.369v-16.64c0.04 0.05 0.07 0.101 0.1 0.141 1.56 2.01 4.03 5.199 57.7 7.63v8.869zm388.66 0c0 4.06-3.311 7.369-7.37 7.369h-43.061c-4.069 0-7.37-3.31-7.37-7.369v-8.87c53.67-2.431 56.141-5.62 57.7-7.63 0.03-0.04 0.061-0.091 0.101-0.141v16.641zm-5.08-20.68c-1.58 0.92-10.15 3.431-55.94 5.44h-0.03c-0.029 0-0.05 0.01-0.08 0.01-7.75 0.34-16.56 0.66-26.59 0.96-52.24 1.57-110.68 1.74-133.39 1.74h-4.24c-22.7 0-81.15-0.17-133.38-1.74-10.03-0.3-18.83-0.62-26.58-0.96-0.04 0-0.07-0.01-0.1-0.01h-0.04c-45.78-2.01-54.35-4.521-55.93-5.44-14.441-19.51-2.921-124.23 0.449-132.59 1.58-2.51 14.57-14.59 28.94-27.36-3.59 11.05-8.08 28.6-8.79 48.7-8.36 3.48-16.97 10.49-16.97 22.851 0 14.92 13.35 14.92 26.25 14.92h62.99c1.8 0 3.25-1.45 3.25-3.24v-35.72c12.48-1.551 64.78-7.57 122.03-7.57 28.62 0 56.01 1.5 77.8 3.2 21.8 1.7 37.99 3.6 44.23 4.37v35.72c0 1.79 1.45 3.24 3.25 3.24h62.989c12.9 0 26.25 0 26.25-14.92 0-12.36-8.609-19.37-16.97-22.851-0.71-20.1-5.2-37.65-8.78-48.7 14.36 12.77 27.351 24.85 28.94 27.36 3.362 8.36 14.881 113.08 0.442 132.59zm-415.32-104.31v24.09c-8.71-0.66-10.85-2.76-10.85-8.18 0-8.46 5.46-13.24 10.85-15.91zm394.34 24.09v-24.021c5.38 2.69 10.85 7.471 10.85 15.841 0 5.42-2.14 7.52-10.85 8.18z" fill="#052C49"/><path d="m439.69 329.7c-0.101-0.01-0.19-0.01-0.29-0.01h-366.8c-0.1 0-0.19 0-0.29 0.01-0.69 0.06-6.8 0.74-10.27 5.58-2.18 3.05-2.73 6.899-1.62 11.43 4.03 16.47 24.39 23.18 70.3 23.18 1.8 0 3.25-1.449 3.25-3.25v-8.159h244.06v8.159c0 1.801 1.45 3.25 3.25 3.25 45.91 0 66.279-6.71 70.3-23.18 1.11-4.53 0.56-8.38-1.62-11.43-3.47-4.84-9.58-5.52-10.269-5.58zm-312.21 33.689c-49.61-0.38-58.59-9.399-60.75-18.22-0.64-2.6-0.44-4.65 0.58-6.09 1.59-2.26 4.86-2.811 5.48-2.9h54.69v27.21zm250.55-11.399h-244.06v-15.811h244.06v15.811zm67.239-6.82c-2.149 8.82-11.14 17.84-60.75 18.22v-27.21h54.69c0.65 0.09 3.9 0.65 5.48 2.9 1.02 1.439 1.22 3.49 0.58 6.09z" fill="#052C49"/></svg>
