<?xml version="1.0" encoding="UTF-8"?>
<!-- Generator: Adobe Illustrator 19.2.1, SVG Export Plug-In . SVG Version: 6.00 Build 0)  -->
<svg width="15px" height="15px" enable-background="new 0 0 15 15" version="1.1" viewBox="0 0 15 15" xml:space="preserve" xmlns="http://www.w3.org/2000/svg">
<path d="m14 7c-4e-3 -0.6904-0.4787-1.2889-1.15-1.45l-1.39-3.24c-0.0767-0.1867-0.2581-0.309-0.46-0.31h-7c-0.1876 0.0034-0.3575 0.1115-0.44 0.28l-1.41 3.26c-0.675 0.162-1.1506 0.7659-1.15 1.46v3.5h1v1c0 0.5523 0.4477 1 1 1s1-0.4477 1-1v-1h7v1c0 0.5523 0.4477 1 1 1s1-0.4477 1-1v-1h1v-3.5zm-9.7-4h6.4l1.05 2.5h-8.5l1.05-2.5zm-1.3 6c-0.5523 0-1-0.4477-1-1s0.4477-1 1-1 1 0.4477 1 1-0.4477 1-1 1zm9 0c-0.5523 0-1-0.4477-1-1s0.4477-1 1-1 1 0.4477 1 1-0.4477 1-1 1z"/>
</svg>
