<?xml version="1.0" ?><svg height="32" viewBox="0 0 32 32" width="32" xmlns="http://www.w3.org/2000/svg"><title/><path d="M23.49,7h-15A2,2,0,0,0,6.59,8.45L5,14H27L25.41,8.45A2,2,0,0,0,23.49,7Z" style="fill: #0bf"/><path d="M5,14,6.59,8.45A2,2,0,0,1,8.51,7h15a2,2,0,0,1,1.92,1.45L27,14l1.63.54A2,2,0,0,1,30,16.44v4.49a2,2,0,0,1-.89,1.66L27.5,23.66a2,2,0,0,1-1.11.34H5.61a2,2,0,0,1-1.11-.34L2.89,22.59A2,2,0,0,1,2,20.93V16.44a2,2,0,0,1,1.37-1.9L5,14H24" style="fill: none;stroke: #000;stroke-linecap: round;stroke-linejoin: round;stroke-width: 2px"/><path d="M11.56,20.24,11,19c-.17-.63.37-1,1.06-1h7.88c.69,0,1.23.37,1.06,1l-.56,1.24a1,1,0,0,1-1,.76H12.59A1,1,0,0,1,11.56,20.24Z" style="fill: none;stroke: #000;stroke-linecap: round;stroke-linejoin: round;stroke-width: 2px"/><path d="M7,25v1a1,1,0,0,1-1,1H3a1,1,0,0,1-1-1V20.5" style="fill: none;stroke: #000;stroke-linecap: round;stroke-linejoin: round;stroke-width: 2px"/><path d="M30,20.5V26a1,1,0,0,1-1,1H26a1,1,0,0,1-1-1V25" style="fill: none;stroke: #000;stroke-linecap: round;stroke-linejoin: round;stroke-width: 2px"/><rect height="3" rx="1.2" ry="1.2" width="4" x="4" y="17"/><rect height="3" rx="1.2" ry="1.2" width="4" x="24" y="17"/><polyline points="12 6.3 13 4 19 4 20 6.4" style="fill: none;stroke: #000;stroke-linecap: round;stroke-linejoin: round;stroke-width: 2px"/><ellipse cx="30" cy="11.5" rx="2" ry="1.5"/><ellipse cx="2" cy="11.5" rx="2" ry="1.5"/></svg>