<?xml version="1.0" encoding="UTF-8" standalone="no"?>
<svg
   enable-background="new 0 0 512 512"
   height="512px"
   id="Calque_1"
   version="1.1"
   viewBox="0 0 512 512"
   width="512px"
   xml:space="preserve"
   sodipodi:docname="AccNone.svg"
   inkscape:version="1.1.1 (3bf5ae0d25, 2021-09-20)"
   xmlns:inkscape="http://www.inkscape.org/namespaces/inkscape"
   xmlns:sodipodi="http://sodipodi.sourceforge.net/DTD/sodipodi-0.dtd"
   xmlns="http://www.w3.org/2000/svg"
   xmlns:svg="http://www.w3.org/2000/svg"><defs
     id="defs68" /><sodipodi:namedview
     id="namedview66"
     pagecolor="#ffffff"
     bordercolor="#666666"
     borderopacity="1.0"
     inkscape:pageshadow="2"
     inkscape:pageopacity="0.0"
     inkscape:pagecheckerboard="true"
     showgrid="false"
     inkscape:zoom="1.7050781"
     inkscape:cx="255.70676"
     inkscape:cy="256"
     inkscape:window-width="1900"
     inkscape:window-height="1305"
     inkscape:window-x="536"
     inkscape:window-y="446"
     inkscape:window-maximized="0"
     inkscape:current-layer="Calque_1" /><path
     d="M502.077,302.403c-0.763-13.813-2.146-29.285-3.793-42.449c-2.795-22.321-4.612-25.454-5.938-27.737  c-1.013-1.748-2.489-4.294-13.896-15.065c3.22-1.732,5.642-3.82,7.404-5.745c7.068-7.708,7.471-16.826,7.342-20.201  c-0.144-11.625-5.089-18.817-9.205-22.786c-8.376-8.123-18.861-8.493-21.369-8.461h-17.643c-3.435,0-6.77,0.396-9.963,1.174  c-14.638-26.607-32.507-55.197-45.469-63.212c-4.861-3.006-17.774-10.99-122.827-10.99c-4.143,0-7.163,0.017-8.675,0.028h-4.094  c-1.511-0.011-4.535-0.028-8.674-0.028c-105.042,0-117.96,7.982-122.828,10.99c-12.961,8.015-30.832,36.606-45.47,63.213  c-3.194-0.779-6.528-1.176-9.961-1.176H49.26c-3.766,0-13.376,0.825-21.221,8.431c-4.147,3.999-9.093,11.19-9.236,22.813  c-0.129,3.374,0.273,12.484,7.354,20.227c1.761,1.916,4.175,3.993,7.382,5.718c-11.38,10.746-12.869,13.314-13.898,15.09  c-1.319,2.285-3.126,5.413-5.92,27.714c-1.651,13.177-3.035,28.649-3.797,42.448c-1.373,24.796-0.917,44.8,1.357,59.49v34.299  c0,15.913,12.947,28.859,28.86,28.859H83.2c13.526,0,24.909-9.346,28.025-21.918c2.026,0.069,4.062,0.136,6.102,0.201  c53.187,1.641,113.213,1.817,136.552,1.817h4.24c23.339,0,83.365-0.177,136.575-1.818c2.032-0.064,4.061-0.131,6.078-0.199  c3.117,12.571,14.5,21.917,28.026,21.917h43.061c15.913,0,28.859-12.946,28.859-28.859v-34.291c1.413-9.149,2.13-20.447,2.13-33.609  C502.85,320.38,502.59,311.669,502.077,302.403z"
     fill="#D712F9"
     id="path2" /><linearGradient
     gradientUnits="userSpaceOnUse"
     id="SVGID_1_"
     x1="255.9998"
     x2="255.9997"
     y1="86.9319"
     y2="425.05"><stop
       offset="0"
       style="stop-color:#FFFFFF;stop-opacity:0"
       id="stop4" /><stop
       offset="1"
       style="stop-color:#000000;stop-opacity:0.3"
       id="stop6" /></linearGradient><path
     d="M502.077,302.403c-0.763-13.813-2.146-29.285-3.793-42.449c-2.795-22.321-4.612-25.454-5.938-27.737  c-1.013-1.748-2.489-4.294-13.896-15.065c3.22-1.732,5.642-3.82,7.404-5.745c7.068-7.708,7.471-16.826,7.342-20.201  c-0.144-11.625-5.089-18.817-9.205-22.786c-8.376-8.123-18.861-8.493-21.369-8.461h-17.643c-3.435,0-6.77,0.396-9.963,1.174  c-14.638-26.607-32.507-55.197-45.469-63.212c-4.861-3.006-17.774-10.99-122.827-10.99c-4.143,0-7.163,0.017-8.675,0.028h-4.094  c-1.511-0.011-4.535-0.028-8.674-0.028c-105.042,0-117.96,7.982-122.828,10.99c-12.961,8.015-30.832,36.606-45.47,63.213  c-3.194-0.779-6.528-1.176-9.961-1.176H49.26c-3.766,0-13.376,0.825-21.221,8.431c-4.147,3.999-9.093,11.19-9.236,22.813  c-0.129,3.374,0.273,12.484,7.354,20.227c1.761,1.916,4.175,3.993,7.382,5.718c-11.38,10.746-12.869,13.314-13.898,15.09  c-1.319,2.285-3.126,5.413-5.92,27.714c-1.651,13.177-3.035,28.649-3.797,42.448c-1.373,24.796-0.917,44.8,1.357,59.49v34.299  c0,15.913,12.947,28.859,28.86,28.859H83.2c13.526,0,24.909-9.346,28.025-21.918c2.026,0.069,4.062,0.136,6.102,0.201  c53.187,1.641,113.213,1.817,136.552,1.817h4.24c23.339,0,83.365-0.177,136.575-1.818c2.032-0.064,4.061-0.131,6.078-0.199  c3.117,12.571,14.5,21.917,28.026,21.917h43.061c15.913,0,28.859-12.946,28.859-28.859v-34.291c1.413-9.149,2.13-20.447,2.13-33.609  C502.85,320.38,502.59,311.669,502.077,302.403z"
     fill="url(#SVGID_1_)"
     id="path9" /><g
     id="g63"><path
       d="M413.66,286.36c-1.93,4.33-5.641,7.699-10.19,9.18h16.86C417.16,293.36,414.77,290.13,413.66,286.36z"
       fill="#FFFFFF"
       id="path11" /><path
       d="M414.45,274.76c1.6-3.58,4.41-6.5,7.92-8.24l-14.83-1.1C410.83,267.59,413.31,270.889,414.45,274.76z"
       fill="#FFFFFF"
       id="path13" /><path
       d="M446.68,295.53v-13.101c-0.26,5.44-3.09,10.21-7.319,13.11h4.909   C445.111,295.54,445.901,295.53,446.68,295.53z"
       fill="#FFFFFF"
       id="path15" /><path
       d="M69.11,268.05c-0.36,0.04-1.81,0.25-3.79,0.76v12.03c0.25-5.39,3.03-10.14,7.2-13.05L69.11,268.05z"
       fill="#FFFFFF"
       id="path17" /><path
       d="M446.68,268.84c-2.029-0.54-3.5-0.76-3.8-0.8l-3.399-0.25c4.159,2.91,6.939,7.64,7.199,13.03V268.84z"
       fill="#FFFFFF"
       id="path19" /><path
       d="M65.32,295.53c0.78,0,1.57,0.01,2.41,0.01h4.91c-4.24-2.9-7.07-7.69-7.32-13.14V295.53z"
       fill="#FFFFFF"
       id="path21" /><path
       d="M80.31,186.78c-2.71-2.69-6.97-5.32-13.29-5.32h-17.9c-0.02-0.02-3.69-0.04-6.2,2.44   c-1.75,1.71-2.63,4.35-2.63,7.84c0,0.09,0,0.19-0.01,0.29c0,0-0.17,2.85,1.76,4.91c1.57,1.68,4.2,2.53,7.83,2.53   c7.55,0,16.01,0.01,23.43,1.51C74.88,197.57,77.3,192.63,80.31,186.78z"
       fill="#FFFFFF"
       id="path23" /><path
       d="M462.13,199.47c3.66,0,6.311-0.87,7.88-2.58c1.87-2.05,1.721-4.84,1.71-4.87c0-0.09-0.01-0.19-0.01-0.29   c0-3.48-0.88-6.12-2.63-7.84c-2.51-2.47-6.17-2.42-6.23-2.43h-17.869c-6.32,0-10.58,2.63-13.29,5.32   c3.01,5.84,5.43,10.79,7.01,14.2C446.12,199.48,454.58,199.47,462.13,199.47z"
       fill="#FFFFFF"
       id="path25" /><path
       d="M391.191,264.21l-6.671-0.5v6.03C386.22,267.36,388.51,265.45,391.191,264.21z"
       fill="#FFFFFF"
       id="path27" /><path
       d="M68.41,261.59c0.05-0.01,0.1-0.01,0.14-0.01l61.83-4.6c1.32-0.181,16.57-2.17,39.56-4.121   c23-1.95,53.74-3.86,86.06-3.86c64.61,0,122.95,7.63,125.62,7.98l61.83,4.6c0.05,0,0.09,0,0.14,0.01c1.03,0.12,2.16,0.32,3.36,0.58   c-1.46-28.45-10.73-51.63-12.4-55.6c-0.069-0.06-0.13-0.12-0.2-0.18c-0.359-0.31-0.64-0.69-0.83-1.13   c-1.979-4.45-4.909-10.46-8.439-17.27c-0.11-0.17-0.2-0.36-0.28-0.55c-13.77-26.56-36.28-64.88-46.56-71.24   c-10.12-6.26-77.37-8.06-120.09-7.74c-0.011,0-0.011,0-0.011,0c-0.01,0-0.01,0-0.02,0h-4.24c-42.76-0.32-110,1.48-120.12,7.74   c-10.29,6.36-32.79,44.68-46.56,71.24c-0.08,0.19-0.17,0.38-0.29,0.56c-3.52,6.8-6.45,12.81-8.42,17.26   c-0.2,0.44-0.48,0.82-0.84,1.13c-0.06,0.06-0.13,0.12-0.2,0.18c-1.67,3.97-10.94,27.19-12.4,55.6   C66.25,261.91,67.38,261.71,68.41,261.59z M90.03,198.99c0.08-0.18,7.65-18.52,17.29-37.21c20.03-38.83,29.39-41.36,32.47-42.19   c17.3-4.67,41.82-5.95,114.09-5.95h4.24c72.27,0,96.79,1.28,114.09,5.95c3.08,0.83,12.44,3.36,32.47,42.19   c9.641,18.69,17.21,37.03,17.29,37.21c0.41,1.01,0.29,2.15-0.31,3.05c-0.601,0.9-1.61,1.44-2.7,1.44H93.04   c-1.09,0-2.1-0.54-2.7-1.44C89.74,201.14,89.62,200,90.03,198.99z"
       fill="#FFFFFF"
       id="path29" /><path
       d="M384.52,295.54h8.54c-3.479-1.13-6.46-3.37-8.54-6.29V295.54z"
       fill="#FFFFFF"
       id="path31" /><path
       d="M32.87,379.69c-0.03-0.04-0.06-0.091-0.1-0.141v16.641c0,4.06,3.31,7.369,7.37,7.369H83.2   c4.07,0,7.37-3.31,7.37-7.369v-8.87C36.9,384.889,34.43,381.7,32.87,379.69z"
       fill="#FFFFFF"
       id="path33" /><path
       d="M97.55,274.76c1.14-3.87,3.62-7.16,6.91-9.34l-14.83,1.1C93.14,268.26,95.95,271.179,97.55,274.76z"
       fill="#FFFFFF"
       id="path35" /><path
       d="M439.21,336.179h-54.69v27.21c49.61-0.38,58.601-9.399,60.75-18.22c0.641-2.6,0.44-4.65-0.579-6.09   C443.111,336.83,439.861,336.269,439.21,336.179z"
       fill="#FFFFFF"
       id="path37" /><rect
       fill="#FFFFFF"
       height="15.811"
       width="244.06"
       x="133.97"
       y="336.179"
       id="rect39" /><path
       d="M67.31,339.08c-1.02,1.439-1.22,3.49-0.58,6.09c2.16,8.82,11.14,17.84,60.75,18.22v-27.21H72.79   C72.17,336.269,68.9,336.82,67.31,339.08z"
       fill="#FFFFFF"
       id="path41" /><path
       d="M444.77,215.56c3.58,11.05,8.07,28.6,8.78,48.7c8.36,3.48,16.97,10.49,16.97,22.851   c0,14.92-13.35,14.92-26.25,14.92h-62.989c-1.8,0-3.25-1.45-3.25-3.24v-35.72c-6.24-0.771-22.431-2.67-44.23-4.37   c-21.79-1.7-49.18-3.2-77.8-3.2c-57.25,0-109.55,6.02-122.03,7.57v35.72c0,1.79-1.45,3.24-3.25,3.24H67.73   c-12.9,0-26.25,0-26.25-14.92c0-12.36,8.61-19.37,16.97-22.851c0.71-20.1,5.2-37.65,8.79-48.7   c-14.37,12.77-27.36,24.85-28.94,27.36c-3.37,8.36-14.89,113.08-0.45,132.59c1.58,0.92,10.15,3.431,55.93,5.44h0.04   c0.03,0,0.06,0.01,0.1,0.01c7.75,0.34,16.55,0.66,26.58,0.96c52.23,1.57,110.68,1.74,133.38,1.74h4.24   c22.71,0,81.149-0.17,133.39-1.74c10.03-0.3,18.84-0.62,26.59-0.96c0.03,0,0.051-0.01,0.08-0.01h0.03   c45.79-2.01,54.36-4.521,55.94-5.44c14.439-19.51,2.92-124.23-0.44-132.59C472.12,240.41,459.13,228.33,444.77,215.56z    M143.36,273.92c1.05-1.9,2.67-3.14,4.69-3.6c31.91-7.29,104.85-7.681,107.94-7.69H256c0.01,0,0.01,0,0.01,0   c3.09,0.01,76.04,0.4,107.94,7.69c2.02,0.46,3.64,1.699,4.689,3.6c3.891,7.021-1.27,22.83-2.35,25.93   c-0.45,1.311-1.68,2.181-3.06,2.181H148.77c-1.38,0-2.61-0.87-3.07-2.181C144.63,296.75,139.47,280.94,143.36,273.92z    M451.58,346.71c-4.021,16.47-24.39,23.18-70.3,23.18c-1.8,0-3.25-1.449-3.25-3.25v-8.159H133.97v8.159   c0,1.801-1.45,3.25-3.25,3.25c-45.91,0-66.27-6.71-70.3-23.18c-1.11-4.53-0.56-8.38,1.62-11.43c3.47-4.84,9.58-5.521,10.27-5.58   c0.1-0.01,0.19-0.01,0.29-0.01h366.8c0.1,0,0.189,0,0.29,0.01c0.689,0.06,6.8,0.74,10.27,5.58   C452.14,338.33,452.691,342.179,451.58,346.71z"
       fill="#FFFFFF"
       id="path43" /><path
       d="M127.48,263.71l-6.67,0.5c2.68,1.24,4.97,3.15,6.67,5.54V263.71z"
       fill="#FFFFFF"
       id="path45" /><path
       d="M98.34,286.36c-1.11,3.77-3.5,7-6.67,9.18h16.86C103.98,294.059,100.27,290.69,98.34,286.36z"
       fill="#FFFFFF"
       id="path47" /><path
       d="M127.48,289.25c-2.08,2.92-5.06,5.16-8.54,6.29h8.54V289.25z"
       fill="#FFFFFF"
       id="path49" /><path
       d="M360.87,295.54c1.97-6.46,3.72-15.53,2.09-18.47c-0.2-0.36-0.33-0.391-0.46-0.42   c-31.13-7.11-105.41-7.53-106.5-7.53s-75.37,0.42-106.51,7.53c-0.12,0.029-0.25,0.06-0.45,0.42c-1.64,2.949,0.12,12.02,2.09,18.47   H360.87z"
       fill="#FFFFFF"
       id="path51" /><path
       d="M421.43,387.32v8.87c0,4.06,3.301,7.369,7.37,7.369h43.061c4.06,0,7.37-3.31,7.37-7.369V379.55   c-0.04,0.05-0.07,0.101-0.101,0.141C477.571,381.7,475.1,384.889,421.43,387.32z"
       fill="#FFFFFF"
       id="path53" /><path
       d="M148.77,302.03h214.46c1.38,0,2.609-0.87,3.06-2.181c1.08-3.1,6.24-18.909,2.35-25.93   c-1.05-1.9-2.67-3.14-4.689-3.6c-31.9-7.29-104.851-7.681-107.94-7.69c0,0,0,0-0.01,0h-0.01c-3.09,0.01-76.03,0.4-107.94,7.69   c-2.02,0.46-3.64,1.699-4.69,3.6c-3.89,7.021,1.27,22.83,2.34,25.93C146.16,301.16,147.39,302.03,148.77,302.03z M149.04,277.07   c0.2-0.36,0.33-0.391,0.45-0.42c31.14-7.11,105.42-7.53,106.51-7.53s75.37,0.42,106.5,7.53c0.13,0.029,0.26,0.06,0.46,0.42   c1.63,2.939-0.12,12.01-2.09,18.47H151.13C149.16,289.09,147.4,280.019,149.04,277.07z"
       fill="#052C49"
       id="path55" /><path
       d="M93.04,203.48h325.92c1.09,0,2.1-0.54,2.7-1.44c0.6-0.9,0.72-2.04,0.31-3.05   c-0.08-0.18-7.649-18.52-17.29-37.21c-20.029-38.83-29.39-41.36-32.47-42.19c-17.3-4.67-41.82-5.95-114.09-5.95h-4.24   c-72.27,0-96.79,1.28-114.09,5.95c-3.08,0.83-12.44,3.36-32.47,42.19c-9.64,18.69-17.21,37.03-17.29,37.21   c-0.41,1.01-0.29,2.15,0.31,3.05C90.94,202.94,91.95,203.48,93.04,203.48z M141.48,125.86c16.65-4.49,40.81-5.72,112.4-5.72h4.24   c71.59,0,95.75,1.23,112.399,5.72c11.131,3.01,31.79,43.45,43.57,71.12H97.91C109.69,169.31,130.34,128.87,141.48,125.86z"
       fill="#052C49"
       id="path57" /><path
       d="M487.1,303.23c-1.619-29.33-5.67-59.94-7.729-63.49c-2.47-4.26-23.66-23.2-34.9-33.11   c5.71-0.67,11.96-0.67,17.66-0.67c5.561,0,9.82-1.58,12.67-4.69c3.53-3.85,3.47-8.58,3.4-9.65c-0.021-5.29-1.58-9.47-4.65-12.43   c-4.29-4.16-10.03-4.25-10.8-4.23h-17.77c-7.421,0-12.74,2.73-16.4,5.86c-13.57-25.74-35.18-62.88-46.92-70.14   c-14.96-9.25-112.49-8.8-123.561-8.72h-4.2c-11.07-0.08-108.59-0.53-123.56,8.72c-11.74,7.26-33.35,44.4-46.92,70.14   c-3.66-3.12-8.98-5.86-16.4-5.86H49.26c-0.79,0-6.52,0.07-10.81,4.23c-3.07,2.96-4.63,7.14-4.65,12.43   c-0.07,1.07-0.13,5.8,3.4,9.66c2.85,3.1,7.11,4.68,12.67,4.68c5.7,0,11.95,0,17.66,0.67c-11.25,9.91-32.43,28.85-34.9,33.11   c-2.05,3.55-6.11,34.16-7.73,63.49c-1.04,18.779-1.33,41.079,1.38,57.47c0,0.01,0,0.01,0,0.01v35.48   c0,7.64,6.22,13.859,13.86,13.859H83.2c7.65,0,13.87-6.22,13.87-13.859v-8.591c6.26,0.25,13.14,0.5,20.72,0.74   c52.84,1.63,112.77,1.811,136.09,1.811h4.24c23.32,0,83.25-0.181,136.1-1.811c7.57-0.24,14.45-0.49,20.71-0.74v8.591   c0,7.64,6.221,13.859,13.87,13.859h43.061c7.64,0,13.859-6.22,13.859-13.859v-35.48c1.561-9.45,2.13-20.86,2.13-32.42   C487.85,319.78,487.54,311.19,487.1,303.23z M444.981,181.46h17.869c0.061,0.01,3.721-0.04,6.23,2.43   c1.75,1.72,2.63,4.36,2.63,7.84c0,0.1,0.01,0.2,0.01,0.29c0.011,0.03,0.16,2.82-1.71,4.87c-1.569,1.71-4.22,2.58-7.88,2.58   c-7.55,0-16.01,0.01-23.43,1.51c-1.58-3.41-4-8.36-7.01-14.2C434.401,184.09,438.66,181.46,444.981,181.46z M49.87,199.47   c-3.63,0-6.26-0.85-7.83-2.53c-1.93-2.06-1.76-4.91-1.76-4.91c0.01-0.1,0.01-0.2,0.01-0.29c0-3.49,0.88-6.13,2.63-7.84   c2.51-2.48,6.18-2.46,6.2-2.44h17.9c6.32,0,10.58,2.63,13.29,5.32c-3.01,5.85-5.43,10.79-7.01,14.2   C65.88,199.48,57.42,199.47,49.87,199.47z M77.45,206.57c0.07-0.06,0.14-0.12,0.2-0.18c0.36-0.31,0.64-0.69,0.84-1.13   c1.97-4.45,4.9-10.46,8.42-17.26c0.12-0.18,0.21-0.37,0.29-0.56c13.77-26.56,36.27-64.88,46.56-71.24   c10.12-6.26,77.36-8.06,120.12-7.74h4.24c0.01,0,0.01,0,0.02,0c0,0,0,0,0.011,0c42.72-0.32,109.97,1.48,120.09,7.74   c10.279,6.36,32.79,44.68,46.56,71.24c0.08,0.19,0.17,0.38,0.28,0.55c3.53,6.81,6.46,12.82,8.439,17.27   c0.19,0.44,0.471,0.82,0.83,1.13c0.07,0.06,0.131,0.12,0.2,0.18c1.67,3.97,10.94,27.15,12.4,55.6c-1.2-0.26-2.33-0.46-3.36-0.58   c-0.05-0.01-0.09-0.01-0.14-0.01l-61.83-4.6C378.95,256.63,320.611,249,256,249c-32.32,0-63.06,1.91-86.06,3.86   c-22.99,1.95-38.24,3.94-39.56,4.121l-61.83,4.6c-0.04,0-0.09,0-0.14,0.01c-1.03,0.12-2.16,0.32-3.36,0.58   C66.51,233.76,75.78,210.54,77.45,206.57z M393.06,295.54h-8.54v-6.29C386.6,292.17,389.58,294.41,393.06,295.54z M384.52,269.74   v-6.03l6.671,0.5C388.51,265.45,386.22,267.36,384.52,269.74z M387.89,279.5c0-5.72,4.65-10.38,10.37-10.38   c5.73,0,10.38,4.66,10.38,10.38s-4.649,10.38-10.38,10.38C392.54,289.88,387.89,285.219,387.89,279.5z M407.54,265.42l14.83,1.1   c-3.51,1.74-6.32,4.66-7.92,8.24C413.31,270.889,410.83,267.59,407.54,265.42z M413.66,286.36c1.109,3.77,3.5,7,6.67,9.18h-16.86   C408.02,294.059,411.731,290.69,413.66,286.36z M419.47,281.62c0-5.72,4.65-10.38,10.38-10.38c5.721,0,10.37,4.66,10.37,10.38   S435.571,292,429.85,292C424.12,292,419.47,287.34,419.47,281.62z M446.68,282.429v13.101c-0.779,0-1.569,0.01-2.41,0.01h-4.909   C443.59,292.639,446.42,287.87,446.68,282.429z M439.481,267.79l3.399,0.25c0.3,0.04,1.771,0.26,3.8,0.8v11.98   C446.42,275.429,443.64,270.7,439.481,267.79z M72.64,295.54h-4.91c-0.84,0-1.63-0.01-2.41-0.01V282.4   C65.57,287.849,68.4,292.639,72.64,295.54z M65.32,280.84v-12.03c1.98-0.51,3.43-0.72,3.79-0.76l3.41-0.26   C68.35,270.7,65.57,275.45,65.32,280.84z M71.78,281.62c0-5.72,4.65-10.38,10.38-10.38c5.72,0,10.37,4.66,10.37,10.38   S87.88,292,82.16,292C76.43,292,71.78,287.34,71.78,281.62z M89.63,266.519l14.83-1.1c-3.29,2.18-5.77,5.47-6.91,9.34   C95.95,271.179,93.14,268.26,89.63,266.519z M98.34,286.36c1.93,4.33,5.64,7.699,10.19,9.18H91.67   C94.84,293.36,97.23,290.13,98.34,286.36z M103.36,279.5c0-5.72,4.65-10.38,10.38-10.38c5.72,0,10.38,4.66,10.38,10.38   s-4.66,10.38-10.38,10.38C108.01,289.88,103.36,285.219,103.36,279.5z M127.48,289.25v6.29h-8.54   C122.42,294.41,125.4,292.17,127.48,289.25z M120.81,264.21l6.67-0.5v6.04C125.78,267.36,123.49,265.45,120.81,264.21z    M90.57,396.19c0,4.06-3.3,7.369-7.37,7.369H40.14c-4.06,0-7.37-3.31-7.37-7.369V379.55c0.04,0.05,0.07,0.101,0.1,0.141   c1.56,2.01,4.03,5.199,57.7,7.63V396.19z M479.231,396.19c0,4.06-3.311,7.369-7.37,7.369H428.8c-4.069,0-7.37-3.31-7.37-7.369   v-8.87c53.67-2.431,56.141-5.62,57.7-7.63c0.03-0.04,0.061-0.091,0.101-0.141V396.19z M474.151,375.51   c-1.58,0.92-10.15,3.431-55.94,5.44h-0.03c-0.029,0-0.05,0.01-0.08,0.01c-7.75,0.34-16.56,0.66-26.59,0.96   c-52.24,1.57-110.68,1.74-133.39,1.74h-4.24c-22.7,0-81.15-0.17-133.38-1.74c-10.03-0.3-18.83-0.62-26.58-0.96   c-0.04,0-0.07-0.01-0.1-0.01h-0.04c-45.78-2.01-54.35-4.521-55.93-5.44C23.41,356,34.93,251.28,38.3,242.92   c1.58-2.51,14.57-14.59,28.94-27.36c-3.59,11.05-8.08,28.6-8.79,48.7c-8.36,3.48-16.97,10.49-16.97,22.851   c0,14.92,13.35,14.92,26.25,14.92h62.99c1.8,0,3.25-1.45,3.25-3.24v-35.72c12.48-1.551,64.78-7.57,122.03-7.57   c28.62,0,56.01,1.5,77.8,3.2c21.8,1.7,37.99,3.6,44.23,4.37v35.72c0,1.79,1.45,3.24,3.25,3.24h62.989c12.9,0,26.25,0,26.25-14.92   c0-12.36-8.609-19.37-16.97-22.851c-0.71-20.1-5.2-37.65-8.78-48.7c14.36,12.77,27.351,24.85,28.94,27.36   C477.071,251.28,488.59,356,474.151,375.51z M58.83,271.2v24.09c-8.71-0.66-10.85-2.76-10.85-8.18   C47.98,278.65,53.44,273.87,58.83,271.2z M453.17,295.29v-24.021c5.38,2.69,10.85,7.471,10.85,15.841   C464.02,292.53,461.88,294.63,453.17,295.29z"
       fill="#052C49"
       id="path59" /><path
       d="M439.691,329.7c-0.101-0.01-0.19-0.01-0.29-0.01H72.6c-0.1,0-0.19,0-0.29,0.01   c-0.69,0.06-6.8,0.74-10.27,5.58c-2.18,3.05-2.73,6.899-1.62,11.43c4.03,16.47,24.39,23.18,70.3,23.18c1.8,0,3.25-1.449,3.25-3.25   v-8.159h244.06v8.159c0,1.801,1.45,3.25,3.25,3.25c45.91,0,66.279-6.71,70.3-23.18c1.11-4.53,0.56-8.38-1.62-11.43   C446.49,330.44,440.38,329.76,439.691,329.7z M127.48,363.389c-49.61-0.38-58.59-9.399-60.75-18.22c-0.64-2.6-0.44-4.65,0.58-6.09   c1.59-2.26,4.86-2.811,5.48-2.9h54.69V363.389z M378.031,351.99H133.97v-15.811h244.06V351.99z M445.27,345.17   c-2.149,8.82-11.14,17.84-60.75,18.22v-27.21h54.69c0.65,0.09,3.9,0.65,5.48,2.9C445.71,340.519,445.91,342.57,445.27,345.17z"
       fill="#052C49"
       id="path61" /></g></svg>
