<?xml version="1.0" encoding="UTF-8"?>
<!-- Generator: Adobe Illustrator 13.0.2, SVG Export Plug-In . SVG Version: 6.00 Build 14948)  -->
<svg enable-background="new -0.258 -0.548 123.547 123.539" version="1.1" viewBox="-.258 -.548 123.55 123.54" xml:space="preserve" xmlns="http://www.w3.org/2000/svg">
<g>
	<g fill="#0088CF">
		<path d="m109.45 0.043h-94.036c-8.133 0-14.742 6.594-14.742 14.75v94.016c0 8.156 6.609 14.773 14.742 14.773h94.039c8.125 0 14.742-6.617 14.742-14.773v-94.017c0.01-8.156-6.61-14.75-14.74-14.75zm12.26 108.77c0 6.766-5.5 12.258-12.258 12.258h-94.036c-6.75 0-12.242-5.492-12.242-12.258v-94.017c0-6.766 5.492-12.258 12.242-12.258h94.039c6.758 0 12.258 5.492 12.258 12.258v94.017z"/>
		<path d="m109.45 2.535h-94.036c-6.75 0-12.242 5.492-12.242 12.258v94.016c0 6.766 5.492 12.258 12.242 12.258h94.039c6.758 0 12.258-5.492 12.258-12.258v-94.017c0-6.766-5.5-12.258-12.26-12.258z"/>
	</g>
	<path d="m60.242 9.449c-4.984 0.531-23.101 8.836-23.633 51.531-0.562 45 18.648 54.469 23.68 54.375v-29.715c-4.148 0-4.984-4.516-5.938-13.844-0.609-6.18-0.805-13.797 0-21.391 0.586-5.32 1.562-10.523 5.914-10.523l-0.023-30.438z" fill="#FFFFFF"/>
	<path d="m73.977 115.4c1.93 0 3.297-1.562 3.297-3.32l0.023-0.023s-0.023-23.148-0.023-23.172c0-1.828-1.492-3.266-3.297-3.266h-8.422v29.781s8.398 0.023 8.398 0h0.024z" fill="#FFFFFF"/>
	<path d="m73.977 39.887c1.93 0 3.297-1.562 3.297-3.32h0.023s-0.023-23.828-0.023-23.852c0-1.828-1.492-3.266-3.297-3.266h-8.422v30.438l8.398 0.031 0.024-0.031z" fill="#FFFFFF"/>
</g>
</svg>
