<?xml version="1.0" encoding="UTF-8" standalone="no"?>
<svg
   width="19.78"
   height="19.78"
   version="1.1"
   viewBox="0 0 19.78 19.78"
   xml:space="preserve"
   id="svg8"
   sodipodi:docname="CalEnteredTentative.svg"
   inkscape:version="1.1.1 (3bf5ae0d25, 2021-09-20)"
   xmlns:inkscape="http://www.inkscape.org/namespaces/inkscape"
   xmlns:sodipodi="http://sodipodi.sourceforge.net/DTD/sodipodi-0.dtd"
   xmlns="http://www.w3.org/2000/svg"
   xmlns:svg="http://www.w3.org/2000/svg"><defs
     id="defs12" /><sodipodi:namedview
     id="namedview10"
     pagecolor="#ffffff"
     bordercolor="#666666"
     borderopacity="1.0"
     inkscape:pageshadow="2"
     inkscape:pageopacity="0.0"
     inkscape:pagecheckerboard="0"
     showgrid="false"
     inkscape:zoom="31.208503"
     inkscape:cx="6.8571056"
     inkscape:cy="12.288318"
     inkscape:window-width="1664"
     inkscape:window-height="1111"
     inkscape:window-x="966"
     inkscape:window-y="475"
     inkscape:window-maximized="0"
     inkscape:current-layer="svg8" /><g
     transform="matrix(.98429 0 0 .98429 -5.8586 -5.8586)"
     id="g6"><path
       d="m10 23c-0.25586 0-0.51172-0.09766-0.70703-0.29297-0.39062-0.39062-0.39062-1.0234 0-1.4141l12-12c0.39062-0.39062 1.0234-0.39062 1.4141 0s0.39062 1.0234 0 1.4141l-12 12c-0.19531 0.19531-0.45117 0.29297-0.70703 0.29297z"
       id="path2" /><path
       d="m22 23c-0.25586 0-0.51172-0.09766-0.70703-0.29297l-12-12c-0.39062-0.39062-0.39062-1.0234 0-1.4141s1.0234-0.39062 1.4141 0l12 12c0.39062 0.39062 0.39062 1.0234 0 1.4141-0.19531 0.19531-0.45117 0.29297-0.70703 0.29297z"
       id="path4" /></g><path
     d="m 8.9922352,13.683281 c -0.00675,-0.235832 -0.010117,-0.414383 -0.010117,-0.532278 0,-0.697366 0.097695,-1.300403 0.2964608,-1.805722 0.1448585,-0.380671 0.3773079,-0.764734 0.700728,-1.155522 0.235809,-0.2829845 0.663652,-0.693974 1.276778,-1.2363692 0.616489,-0.5457582 1.014032,-0.9769835 1.199323,-1.3003745 0.185297,-0.3200571 0.276262,-0.6737978 0.276262,-1.0544697 0,-0.6906111 -0.26952,-1.2970124 -0.808535,-1.8225646 -0.539004,-0.5221908 -1.202686,-0.7849394 -1.9842607,-0.7849394 -0.7580086,0 -1.3879767,0.2391925 -1.8933252,0.7108162 C 7.5368378,5.1768856 7.2066925,5.9180218 7.0483604,6.9253277 L 5.2224317,6.706367 C 5.3875099,5.3587996 5.8759967,4.3245634 6.6878938,3.6069647 7.4997908,2.8893951 8.5744644,2.5322913 9.9085817,2.5322913 c 1.4149353,0 2.5434973,0.3840624 3.3856593,1.1555218 0.842219,0.7680956 1.263328,1.6979169 1.263328,2.7927955 0,0.6299969 -0.148231,1.2128018 -0.444706,1.7450799 -0.296461,0.5322789 -0.87254,1.1824803 -1.734964,1.9438515 -0.579441,0.515436 -0.95675,0.892774 -1.135317,1.135316 -0.178554,0.245926 -0.309939,0.525524 -0.394178,0.838828 -0.08758,0.316694 -0.134755,0.828738 -0.148231,1.539584 H 8.9921681 Z m -0.107812,3.564428 V 15.22301 h 2.0213358 v 2.024699 z"
     fill="#ff0000"
     fill-rule="nonzero"
     id="path2-0"
     style="stroke-width:2.87408" /></svg>
