<?xml version="1.0" encoding="UTF-8"?>
<svg width="19.78" height="19.78" version="1.1" viewBox="0 0 19.78 19.78" xml:space="preserve" xmlns="http://www.w3.org/2000/svg"><g transform="matrix(.98429 0 0 .98429 -5.8586 -5.8586)"><path d="m10 23c-0.25586 0-0.51172-0.09766-0.70703-0.29297-0.39062-0.39062-0.39062-1.0234 0-1.4141l12-12c0.39062-0.39062 1.0234-0.39062 1.4141 0s0.39062 1.0234 0 1.4141l-12 12c-0.19531 0.19531-0.45117 0.29297-0.70703 0.29297z"/><path d="m22 23c-0.25586 0-0.51172-0.09766-0.70703-0.29297l-12-12c-0.39062-0.39062-0.39062-1.0234 0-1.4141s1.0234-0.39062 1.4141 0l12 12c0.39062 0.39062 0.39062 1.0234 0 1.4141-0.19531 0.19531-0.45117 0.29297-0.70703 0.29297z"/></g></svg>
