<?xml version="1.0" encoding="UTF-8" standalone="no"?>
<svg
   id="Layer_1"
   version="1.1"
   viewBox="0 0 19.780069 19.780069"
   xml:space="preserve"
   sodipodi:docname="CalEntered.svg"
   width="19.780069"
   height="19.780069"
   inkscape:export-filename="D:\AgilityBook\AgilityBook\src\Include\images\CalEntered2.png"
   inkscape:export-xdpi="155.30785"
   inkscape:export-ydpi="155.30785"
   inkscape:version="1.1.1 (3bf5ae0d25, 2021-09-20)"
   xmlns:inkscape="http://www.inkscape.org/namespaces/inkscape"
   xmlns:sodipodi="http://sodipodi.sourceforge.net/DTD/sodipodi-0.dtd"
   xmlns="http://www.w3.org/2000/svg"
   xmlns:svg="http://www.w3.org/2000/svg"><defs
     id="defs15" /><sodipodi:namedview
     id="namedview13"
     pagecolor="#ffffff"
     bordercolor="#666666"
     borderopacity="1.0"
     inkscape:pageshadow="2"
     inkscape:pageopacity="0.0"
     inkscape:pagecheckerboard="false"
     showgrid="false"
     fit-margin-top="3"
     fit-margin-left="3"
     fit-margin-right="3"
     fit-margin-bottom="3"
     inkscape:zoom="22.627417"
     inkscape:cx="17.545087"
     inkscape:cy="9.1039998"
     inkscape:window-width="2488"
     inkscape:window-height="1610"
     inkscape:window-x="482"
     inkscape:window-y="342"
     inkscape:window-maximized="0"
     inkscape:current-layer="Layer_1" /><g
     id="g10"
     transform="matrix(0.98429062,0,0,0.98429062,-5.8586155,-5.8586155)"><g
       id="g4"><path
         d="m 10,23 c -0.2558594,0 -0.5117188,-0.09766 -0.7070313,-0.292969 -0.390625,-0.390625 -0.390625,-1.023437 0,-1.414062 L 21.292969,9.2929687 c 0.390625,-0.390625 1.023437,-0.390625 1.414062,0 0.390625,0.390625 0.390625,1.0234373 0,1.4140623 l -12,12 C 10.511719,22.902344 10.255859,23 10,23 Z"
         id="path2" /></g><g
       id="g8"><path
         d="m 22,23 c -0.255859,0 -0.511719,-0.09766 -0.707031,-0.292969 l -12.0000003,-12 c -0.390625,-0.390625 -0.390625,-1.0234373 0,-1.4140623 0.390625,-0.390625 1.0234373,-0.390625 1.4140623,0 l 12,12.0000003 c 0.390625,0.390625 0.390625,1.023437 0,1.414062 C 22.511719,22.902344 22.255859,23 22,23 Z"
         id="path6" /></g></g></svg>
