<?xml version="1.0" encoding="UTF-8" standalone="no"?>
<svg
   width="12"
   height="12"
   version="1.1"
   id="svg6"
   sodipodi:docname="CalPlanTentative.svg"
   inkscape:version="1.1.1 (3bf5ae0d25, 2021-09-20)"
   xmlns:inkscape="http://www.inkscape.org/namespaces/inkscape"
   xmlns:sodipodi="http://sodipodi.sourceforge.net/DTD/sodipodi-0.dtd"
   xmlns="http://www.w3.org/2000/svg"
   xmlns:svg="http://www.w3.org/2000/svg">
  <defs
     id="defs10" />
  <sodipodi:namedview
     id="namedview8"
     pagecolor="#ffffff"
     bordercolor="#666666"
     borderopacity="1.0"
     inkscape:pageshadow="2"
     inkscape:pageopacity="0.0"
     inkscape:pagecheckerboard="0"
     showgrid="false"
     inkscape:zoom="51.442018"
     inkscape:cx="4.1600234"
     inkscape:cy="6.152558"
     inkscape:window-width="1664"
     inkscape:window-height="1111"
     inkscape:window-x="444"
     inkscape:window-y="304"
     inkscape:window-maximized="0"
     inkscape:current-layer="svg6" />
  <polygon
     transform="translate(-2,-2)"
     points="7 7.764 9.382 3 13.618 3 8.618 13 5.382 13 2.382 7 6.618 7"
     fill="#f6f6f6"
     id="polygon2" />
  <path
     d="m10 2-4 8h-2l-2-4h2l1 2 3-6z"
     fill="#424242"
     id="path4" />
  <path
     d="m 5.4910961,8.1811796 c -0.00384,-0.1356046 -0.00573,-0.2382757 -0.00573,-0.3060657 0,-0.4009917 0.055381,-0.7477458 0.1680499,-1.0383124 C 5.7355314,6.6179129 5.8672947,6.3970717 6.0506241,6.1723638 6.1842918,6.0096447 6.4268139,5.7733217 6.7743611,5.4614394 7.1238186,5.1476223 7.3491626,4.8996607 7.4541964,4.7137087 7.5592302,4.5296709 7.6107934,4.326267 7.6107934,4.1073753 7.6107934,3.7102682 7.4580171,3.3615795 7.1524787,3.0593803 6.8469432,2.7591159 6.4707389,2.6080325 6.0277035,2.6080325 c -0.429675,0 -0.7867707,0.1375365 -1.0732265,0.408728 C 4.6661168,3.2899046 4.4789726,3.7160669 4.389224,4.2952799 L 3.3542003,4.1693761 C 3.4477753,3.3945074 3.724671,2.7998126 4.1848931,2.3871824 4.6451151,1.9745728 5.2542932,1.769234 6.0105342,1.769234 c 0.8020501,0 1.4417752,0.2208412 1.9191522,0.6644379 0.4774088,0.4416647 0.7161133,0.9763201 0.7161133,1.6058894 0,0.3622562 -0.084024,0.6973745 -0.2520794,1.0034404 C 8.2256732,5.3490677 7.8991217,5.722942 7.4102598,6.160737 7.0818039,6.4571199 6.8679274,6.6740943 6.7667084,6.8135568 6.6654951,6.9549689 6.5910201,7.1157414 6.5432687,7.2958947 6.4936245,7.4779948 6.4668834,7.7724279 6.4592452,8.1811706 H 5.4910669 Z M 5.4299817,10.230766 V 9.0665413 h 1.1457912 v 1.1642247 z"
     fill="#ff0000"
     fill-rule="nonzero"
     id="path2"
     style="stroke-width:1.64085" />
</svg>
