<?xml version="1.0" encoding="UTF-8" standalone="no"?>
<svg
   width="34"
   height="34"
   version="1.1"
   viewBox="0 0 34 34"
   xml:space="preserve"
   id="svg6"
   sodipodi:docname="CalPendingTentative.svg"
   inkscape:version="1.1.1 (3bf5ae0d25, 2021-09-20)"
   xmlns:inkscape="http://www.inkscape.org/namespaces/inkscape"
   xmlns:sodipodi="http://sodipodi.sourceforge.net/DTD/sodipodi-0.dtd"
   xmlns="http://www.w3.org/2000/svg"
   xmlns:svg="http://www.w3.org/2000/svg"><defs
     id="defs10" /><sodipodi:namedview
     id="namedview8"
     pagecolor="#ffffff"
     bordercolor="#666666"
     borderopacity="1.0"
     inkscape:pageshadow="2"
     inkscape:pageopacity="0.0"
     inkscape:pagecheckerboard="0"
     showgrid="false"
     inkscape:zoom="18.156006"
     inkscape:cx="11.786733"
     inkscape:cy="17.322092"
     inkscape:window-width="1664"
     inkscape:window-height="1111"
     inkscape:window-x="406"
     inkscape:window-y="266"
     inkscape:window-maximized="0"
     inkscape:current-layer="svg6" /><g
     transform="translate(1,1)"
     id="g4"><path
       d="m16 29c-7.1685 0-13-5.832-13-13 0-7.168 5.8315-13 13-13s13 5.832 13 13c0 7.168-5.8315 13-13 13zm0-24c-6.0654 0-11 4.9346-11 11 0 6.0654 4.9346 11 11 11 6.0654 0 11-4.9346 11-11 0-6.0654-4.9346-11-11-11z"
       stroke-width="4"
       id="path2" /></g><path
     d="m 15.568019,23.050474 c -0.01076,-0.376163 -0.01614,-0.660962 -0.01614,-0.849011 0,-1.112332 0.15583,-2.074207 0.47287,-2.88022 0.231058,-0.607187 0.601827,-1.219784 1.117697,-1.843112 0.376127,-0.451374 1.058559,-1.106922 2.036526,-1.97207 0.98333,-0.870513 1.617429,-1.558339 1.912978,-2.074164 0.295559,-0.510506 0.440652,-1.074741 0.440652,-1.681932 0,-1.101559 -0.429896,-2.0687968 -1.289654,-2.9070809 -0.859736,-0.8329194 -1.91834,-1.2520161 -3.164993,-1.2520161 -1.20906,0 -2.213891,0.3815234 -3.019947,1.1337887 -0.811421,0.7576915 -1.338018,1.9398423 -1.590566,3.5465443 L 9.5549966,11.921948 C 9.818305,9.7725102 10.597465,8.1228529 11.892479,6.9782458 c 1.295018,-1.1445589 3.009174,-1.7141574 5.137157,-1.7141574 2.256893,0 4.057006,0.6125982 5.400296,1.8431151 1.34338,1.2251526 2.015071,2.7082617 2.015071,4.4546455 0,1.004878 -0.236436,1.934482 -0.709327,2.783491 -0.472871,0.849012 -1.391746,1.886117 -2.767354,3.10054 -0.924239,0.822148 -1.526065,1.42402 -1.810887,1.810886 -0.284803,0.392265 -0.494369,0.838239 -0.628736,1.337973 -0.139691,0.505143 -0.21494,1.321881 -0.236435,2.455713 h -2.724351 z m -0.171968,5.685438 v -3.229496 h 3.224133 v 3.229496 z"
     fill="#ff0000"
     fill-rule="nonzero"
     id="path2-5"
     style="stroke-width:4.58428" /></svg>
