<?xml version="1.0" encoding="UTF-8"?>
<svg width="1800" height="1800" enable-background="new 318.1167 -114.3174 1283.7666 2148.6348" version="1.1" viewBox="318.12 -114.32 1800 1800" xml:space="preserve" xmlns="http://www.w3.org/2000/svg">
<g transform="translate(258.12 -174.32)">
	<g id="_x23_000000ff" stroke="#000000" stroke-width=".0938">
		<path d="m1005.7 67.402c25.68-3.87 51.88 0.18 76.63 7.29 46.83 13.85 89.66 39.01 127.79 69.19 6.61 5.33 13.32 10.63 18.94 17.04 13.84 15.41 23.86 33.78 32.55 52.47 16.42 36.2 27.48 74.57 36.68 113.16 11.74 50.38 19.81 101.58 25.29 153 5.47 53.84 8.67 108.07 5.86 162.17-1.4199 21.18-3.1899 42.62-9.6599 62.96-2.78 7.84-6.29 16.32-13.68 20.87-5.3099 3.43-12.29 2.8-17.65-0.16-7.77-4.18-13.63-11.01-18.99-17.86-11.47-15.06-20.71-31.63-29.75-48.21-19.02-35.57-36.14-72.11-53.85-108.35-18.18-37.36-36.59-74.65-57.07-110.83-5.26-8.95-10.17-18.15-16.06-26.7-5.39 15.58-12.35 30.59-20.48 44.93 27.62 21.36 51.1 50.06 60.2 84.29 6.61 24.34 4.9301 50.69-4.26 74.14-11.72 30.14-34.11 55.01-59.78 74.14-7.9701 6.01-16.36 11.46-24.97 16.5 7.9601 11.43 12.8 25.2 12.71 39.21 54.23 64.53 83.27 148.18 86.79 231.97 0.9301 25.32 0.23 50.69 0.4501 76.03 0.02 51.29-0.05 102.58 0.03 153.88 14.76 2.65 28.96 9.6801 38.98 20.99 12.69 14.02 18.71 32.64 22.08 50.92 3.5699 19.94 4.22 40.25 4.25 60.45 26.03-26.72 49.64-55.77 71.21-86.2 1.4301 0.8199 2.8401 1.72 4.29 2.55-1.37 0.3099-2.72 0.6499-4.05 1 1.55 0.6799 3.16 1.3199 4.5801 2.2999 0.5699 1.4301 0.7899 2.9601 1.2 4.49-22.04 30.65-46.14 59.87-72.66 86.75-2.09 2.28-5.4199 4.27-4.8899 7.85-0.92 32.83-3.3201 65.6-4.76 98.41 3.9399-3.6699 7.39-7.83 11.09-11.74l3.16 0.16c1.09-1.0701 2.2-2.12 3.33-3.16 0.33 0.08 0.99 0.24 1.3101 0.3201 1.7999-0.1001 3.5699 0.3099 5.1899 1.12-0.23 0.51-0.6899 1.5299-0.92 2.0399 0.06 0.48 0.1901 1.4501 0.25 1.9401l0.02 0.13c-7.84 8.7999-15.96 17.34-24.17 25.78-0.7301 16.35-1.2301 32.71-1.2201 49.07-0.45 24.24 2.79 48.46 8.63 71.97 8.7201 36.17 23.95 70.24 36.55 105.13 6.36 18.49 12.51 38.11 9.42 57.88-2.2101 14.08-11.23 26.35-22.92 34.2-11.5 7.9601-24.78 12.83-38.12 16.72-19.97 5.59-40.53 8.74-61.1 11.13-7.9401 0.84-15.92 2.0399-23.91 1.37-12.59-1.04-24.84-4.79-36.32-9.9501-9.74 11.68-22.29 20.82-35.98 27.37-20.43 9.8-43.17 14.32-65.76 14.57-22.43 0.1699-45.03-3.9-65.56-13.05-0.73-1.95-1.46-3.9-2.12-5.84 0.78 0.17 1.58 0.41 2.39 0.64 1.3099-1.62 2.9-2.98 4.99-3.4601 0.37 0.6101 1.11 1.8201 1.49 2.4301-0.8101 0.1901-1.6 0.41-2.38 0.65 0.37 2.12 1.23 4.11 2.4 5.9399 4.84-4.58 11.76-0.73 17.34-3.2799 22.27 5.84 45.84 6.73 68.48 2.5399 23.85-4.52 47.59-14.66 64.14-32.91 1.23-1.53 3.52-3.2001 2.26-5.3701-16.3-40.69-23.78-84.9-21.49-128.68 1.92-34.63 9.4299-69.1 23.08-101 3.48 0.9399 6.72 2.5599 10.02 4.02-15.8 37.82-23.55 79-22.49 119.98 0.85 36.03 8.7 71.79 22.39 105.09 9.97 4.36 20.42 7.92 31.27 9.24 6.25 0.73 12.56 0.3101 18.8-0.4399 21.94-2.38 43.9-5.5 65.19-11.47 13.78-4.02 27.7-9.13 38.94-18.33 7.66-6.21 13.13-15.2 14.43-25.03 2.0499-14.5-1.96-28.96-6.21-42.7-7.1201-21.9-16.32-43.03-24.13-64.68-13.96-37.69-24.36-77.3-24.56-117.72-0.29-55.07 4.48-109.98 6.5601-164.98 0.71-26.49 1.11-53.17-2.9601-79.43-2.85-17.22-7.72-34.98-19.29-48.51-8.0701-9.6101-19.71-15.68-31.9-18.17-3.5701-0.74-7.1801-1.21-10.76-1.8101 0.1-55.7 0.02-111.4 0.04-167.09-0.3601-34.02 1.4099-68.18-2.89-102.03-8-67.13-32.75-132.96-74.84-186.21-3.5 16.79-12.25 32.4-24.76 44.14-11.08 10.57-24.42 18.57-38.48 24.5-20.53 8.68-42.43 13.63-64.43 16.84-24.92 3.5601-50.13 4.8101-75.28 4.91-0.02 14.42 0.06 28.83-0.08 43.25 18.14 0.35 35.96 8.59 47.74 22.41 10.07 11.57 15.8 26.86 15.61 42.23 0.16 17.96-7.8301 35.75-21.21 47.71-13.53 12.35-32.54 18.47-50.73 16.18-16.73-1.87-32.53-10.69-42.94-23.9-12.07-14.9-16.62-35.33-12.49-54 3.37-15.24 12.41-29.23 25.15-38.3 9.19-6.77 20.27-10.84 31.61-11.95 0.1-14.62 0.08-29.23 0.03-43.84-23.55-0.07-47.07-2.51-70.21-6.83-20.31-4-40.41-9.53-59.42-17.78-17.44-7.72-34.29-17.6-47.53-31.5-8.6-8.93-15.07-19.84-18.85-31.64-43.15 56.22-67.85 125.49-74.04 195.83-2.21 22.93-1.61 45.98-1.69 68.98 0 62.61-0.01 125.22 0.01 187.83-9.08-0.25-18.23-0.04-27.12 1.9299-3.12-1.0599-6.36-0.42-9.49 0.14 0.57-1.9 1.16-3.78 1.76-5.65 1.18-0.03 2.38-0.03 3.58-0.03-0.92-0.5599-1.82-1.08-2.73-1.6 1.0099-1 2.0099-2 3.04-2.96 6.55-1.89 13.37-2.29 20.13-2.8101-0.07-56.93-0.01-113.86-0.03-170.79 0.11-27.35-0.72-54.78 2.33-82.02 7.52-73.52 34.81-145.76 81.84-203.19-0.67-13.19 2.63-26.54 9.4-37.89-26.74-14.3-51.62-32.77-70.84-56.38-18.07-22.16-30.5-49.7-31.34-78.56-0.47-6.46 0.32-12.9 0.57-19.34-13.76 36.14-27.29 72.38-41.84 108.21-8.18 19.69-16.54 39.38-26.93 58.04-5.27 9.07-10.79 18.27-18.68 25.33-5.08 4.68-12.42 7.96-19.33 5.7-7.81-2.55-12.51-9.94-16.05-16.89-7.39-15.57-11.01-32.59-14.18-49.44-8.17-47.07-10.47-94.94-11.08-142.64-0.38-53.72 2.16-107.49 8.2401-160.87 5.49-46.44 13.27-92.86 27.79-137.41 6.95-20.72 15.37-41.21 27.87-59.25 7.58-11.19 17.84-20.11 27.61-29.31 30.58-27.68 64.83-51.71 102.64-68.44 22.57-9.81 46.55-17.23 71.26-18.57 22.02-1.33 45.69 3.03 63 17.54 21.98-8.41 45.4-13.29 68.97-13.38 25.34 0.01 50.67 0 76 0 7.65 0.06 15.32-0.21 22.97 0.31 14.43 0.79 28.66 3.56 42.6 7.32 11.57-9.5899 26.2-14.87 40.92-17.2m-242.7 31.29c7.81 9.55 13.29 20.95 15.89 33.01 4.26 18.75 2.75 38.31-1.22 56.96-4.46 20.53-12.13 40.25-21.42 59.05-17.53 34.71-40.75 66.38-67.36 94.67-6.24 6.76-13.07 12.98-18.89 20.12-12.88 15.67-23.25 33.18-32.98 50.91-0.58 1.3-1.88 2.73-1 4.21 4.13 10.65 8.96 21.03 14.43 31.07 41.84-27.81 90.33-44.43 139.7-52.61 63.78-10.28 129.88-7.63 192.28 9.42 35.81 9.9 70.48 24.84 101.01 46.18 9.12-15.98 16.68-32.96 21.75-50.65-13.41-19.93-27.56-39.68-45.53-55.81-27.39-22.75-52.45-48.51-73.24-77.46 8.8301 24.86 9.38 52.71 0.67 77.69-5.36 15-14.32 29.33-27.71 38.38-10.45 7.15-23.91 10.09-36.27 6.91-15.26-3.73-27.46-15.27-35.32-28.48-13.58-22.98-16.84-51.16-11.91-77.15 3.19-16.24 10-32.11 21.32-44.37 8.54-9.25 20.25-16.09 32.98-17 13.24-1.07 26.71 4.31 36.03 13.69-1.33-3.96-3.84-7.36-5.61-11.11-11.97-23.52-21.23-49.03-22.44-75.62-0.8101-17.09 2.45-34.82 11.7-49.43 1.65-2.76 3.88-5.12 5.45-7.93-17.01-4.28-34.57-5.99-52.09-5.51-25.65-0.01-51.3 0-76.95-0.01-21.52-0.25-43.01 3.67-63.27 10.87m143.73 147.81c-9.41 9.47-15.44 21.85-18.81 34.67-4.24 16.45-4.58 33.98-0.62 50.51 1.81-13.17 8.59-25.71 19.39-33.62 4.3301-4.74 10.77-5.98 16.67-7.69 13.01-3.11 27.34 0.05 37.84 8.36 10.39 7.95 16.87 20.3 18.57 33.19 4.2-18.35 3.64-37.86-2.15-55.8-3.8101-11.83-10.05-23.14-19.38-31.5-7.77-7.05-18.5-11.49-29.08-9.87-8.5801 1.1-16.33 5.78-22.43 11.75m7.9301 48.81c-6.52 2.18-10.52 9.93-8.17 16.47 1.85 6.5 9.23 10.7 15.76 8.92 6.91-1.54 11.74-9.23 9.75-16.11-1.6301-7.33-10.29-12.16-17.34-9.28m-61.19 105.74c-27.02 0.61-54 3.71-80.45 9.3-36.73 7.89-72.68 20.66-104.93 40.1-26.4 15.97-50.64 36.72-66.78 63.3-10.73 17.71-17.2 38.18-17.29 58.96-0.07 18.87 5.06 37.6 14.04 54.15 7.15 13.25 16.48 25.28 27.13 35.9 20.14 20.18 44.56 35.68 70.31 47.71 20.95 9.77 42.95 17.23 65.4 22.74 49.01 11.98 100.09 14.92 150.25 9.91 45.26-4.72 90.15-16.12 130.98-36.47 29.4-14.84 57.03-34.52 77.2-60.85 11.65-15.18 20.41-32.76 24.2-51.58 3.8899-19.14 2.26-39.27-4.3201-57.63-6.5-18.38-17.58-34.87-30.88-49.02-25.83-27.36-59.17-46.54-93.98-60.15-51.1-19.66-106.27-27.68-160.88-26.37m-224.68 28.41c-11.45 22.97-21.86 46.46-31.46 70.26 12.23-17.22 27.53-32.05 44.35-44.76-5.01-8.13-8.5499-17.04-12.89-25.5m252.5 326.57c-48.3 1.53-97.07-3.75-143.36-17.94-2.86 2.47-5.53 5.22-7.33 8.59 3.52 6.52 9.85 10.82 15.97 14.68 15.55 9.28 33.05 14.69 50.57 18.87 27.55 6.17 55.88 8.35 84.07 7.7401 25.4-0.47 50.91-2.25 75.8-7.55 14.87-3.4 29.94-7.68 42.77-16.2 5.9199-3.9901 11.9-9.94 11.66-17.61-2.27-4.87-6.58-8.53-11.07-11.3-38.33 12.92-78.72 19.16-119.08 20.72m-0.15 183.05c0.04 4.38-0.08 8.77 0.28 13.16-3.56-3.88-10.39-4.26-13.85-0.09-4.16 4.98-4.57 12.83-1.23 18.34 3.28 5.28 11.87 4.56 14.77-0.79 0.09 1.27 0.19 2.55 0.31 3.84 1.39-0.02 2.8-0.03 4.22-0.03 0.06-11.5 0.01-23 0.03-34.51-1.14 0.02-3.4 0.06-4.53 0.08m-52.13 2.13c0.08 10.76 0 21.51 0.04 32.27 1.57 0 3.15 0.01 4.74 0.02-0.02-4.86 0.01-9.72-0.04-14.58 3.85-0.05 7.71-0.03 11.58-0.04 0-0.87 0-2.61 0.01-3.48-3.87 0-7.73 0-11.58-0.02 0.03-3.54 0.03-7.07-0.02-10.59 4.61-0.45 9.25 0.07 13.87-0.31-0.05-1.13-0.08-2.25-0.1-3.36-6.1701 0.04-12.34-0.12-18.5 0.09m24.09-0.07c-0.03 1.42-0.04 2.85-0.04 4.3 1.5 0.01 3.01 0.01 4.54 0.02-0.03-1.46-0.03-2.9-0.02-4.34-1.5099-0.01-3-0.01-4.48 0.02m-0.02 8.71c0.02 7.8701-0.03 15.75 0.03 23.62 1.47 0.01 2.95 0.02 4.44 0.04 0.05-7.89-0.02-15.79 0.04-23.68-1.5199-0.0101-3.0199-1e-4 -4.51 0.0199m46.32 0.02c-7.19 2.42-8.55 12.03-5.74 18.2 2.74 6.9 12.95 7.93 18.01 3.11 4.1001-4.62 4.39-11.96 1.39-17.22-2.5999-4.69-8.9499-5.69-13.66-4.09z"/>
		<path d="m797.39 224c10.82-1.52 22.03 1.34 31.07 7.39 12.69 8.25 21.49 21.35 27.03 35.23 8.06 20.63 9.52 43.62 5.11 65.26-3.72 17.56-11.69 34.79-25.16 46.98-9.93 9.11-23.64 14.55-37.19 12.86-13.1-1.44-24.81-9.09-33.2-18.99-12.2-14.23-18.61-32.63-20.85-51.06-2.38-22 0.73-45.03 11.27-64.69 8.42-16.14 23.25-30.48 41.92-32.98m-10.29 14.61c-12.09 6.44-20.25 18.33-25.48 30.68-7.99 19.61-9.38 41.78-4.61 62.35 1.95-14.61 10.27-28.47 23.08-36.01 11.06-6.73 25.08-8.3 37.34-4.11 3.11 1.13 6.57 1.64 9.26 3.72 4.56 3.77 9.36 7.37 12.87 12.21 5.46 6.98 8.56 15.5 9.88 24.21 5.1-21.85 3.24-45.56-6.2-66-5.71-11.98-14.56-23.27-27.06-28.56-9.25-4.1-20.28-3.37-29.08 1.51m25.65 56.83c-5.23 2.07-8.93 7.65-8.34 13.32 0.27 7.72 8.41 13.86 15.91 12.06 7.49-1.38 12.61-10.03 9.88-17.23-2.15-7.01-10.68-11.1-17.45-8.15z"/>
		<path d="m806.3 492c28.89-8.39 59.64-9.85 89.36-5.55 21.41 3.24 42.76 9.65 60.96 21.66 10.52 7.11 20.22 16.62 24.23 28.96 3.3 9.82 1.8301 20.91-3.36 29.8-7.35 12.85-19.91 21.74-32.89 28.27-21.21 10.51-44.82 15.26-68.31 16.78-1.63 0.01-3.29 0.31-4.86-0.13-0.38-0.11-1.14-0.3199-1.52-0.43-0.36 0.11-1.08 0.32-1.44 0.43-8.35 1.03-16.91 0.05-25.3-0.52-18.58-1.76-37.06-5.8-54.22-13.23-12.55-5.48-24.61-12.83-33.62-23.3-6.42-7.5-10.83-17.1-10.62-27.12 0.07-11.57 6.28-22.22 14.42-30.08 12.97-12.69 29.99-20.35 47.17-25.54m39.48 4.47c-9.76 1.39-19.92 3.09-28.4 8.45-3.31 2.01-6.4 6.04-4.4 10.03 3.5 5.6 10.27 7.71 16.22 9.66 17.32 4.78 35.62 5.27 53.39 3.17 9.49-1.41 19.34-3.21 27.56-8.46 3.1799-1.97 6.15-5.93 4.23-9.77-2.83-5.05-8.75-7.14-13.89-9.04-17.62-5.49-36.47-5.99-54.71-4.04z"/>
		<path d="m901.43 952.93c3.3199-1.47 7.3999 0.69 8.3199 4.14 1.23 4.15 1.17 9.7-2.48 12.64-3.54 2.58-8.89 0.33-9.75-3.87-1.1199-4.39-0.95-10.89 3.9101-12.91z"/>
		<path d="m1237.7 1736.3c3.5701-0.91 7.47 0.24 10.13 2.7899 5.46 4.91 7.1901 12.59 7.52 19.65-0.02 6.39-1.17 13.05-4.8101 18.44-2.5199 3.6101-6.72 6.4-11.27 5.9901-5.2101-0.41-9.1901-4.65-11.25-9.16-3.91-8.71-4.02-19.03-0.4301-27.86 1.7902-4.45 5.3301-8.59 10.11-9.8499z"/>
		<path d="m508.56 1739.2c3.33-1.39 7.3-1.13 10.31 0.9301 5.15 3.3099 7.55 9.38 8.59 15.19 1.19 7.75 0.55 16.14-3.51 23.03-2.27 3.7-6.03 7.0499-10.59 7.12-4.68 0.3199-8.92-2.79-11.25-6.64-4.59-7.41-5.24-16.71-3.5-25.09 1.31-5.8201 4.3-11.91 9.95-14.54z"/>
		<path d="m626.57 1745.2c4.93-1.42 10.12 1.27 12.95 5.29 3.9 5.5399 5.17 12.52 5.03 19.19-0.3 6.4-1.81 13.18-6.23 18.07-3.01 3.47-8.16 5.35-12.57 3.58-6.08-2.21-9.11-8.65-10.57-14.52-1.53-7.88-1.16-16.41 2.48-23.67 1.88-3.5902 4.92-6.8302 8.91-7.9401z"/>
		<path d="m1197.9 1749.5c3.79-1.3 8.1899-0.3 11.12 2.4299 4.6799 4.23 6.64 10.66 7.3 16.77 0.7 6.67-0.3601 13.64-3.51 19.61-2.4501 4.46-7.16 8.3101-12.52 7.77-5.1901-0.5701-9.12-4.78-11.15-9.33-3.52-7.8501-3.75-16.98-1.3101-25.16 1.5701-5.1199 4.8302-10.2 10.07-12.09z"/>
		<path d="m547.53 1750c4.7-2.1899 10.51-0.12 13.54 3.89 4.5 5.49 5.92 12.86 5.79 19.81-0.19 6.27-1.68 12.82-5.76 17.76-2.92 3.74-8.24 5.95-12.84 4.2-4.57-1.47-7.54-5.6799-9.31-9.91-2.81-7.09-3-15.08-1.22-22.44 1.4099-5.4001 4.3899-11.07 9.8-13.31z"/>
		<path d="m586.52 1752.1c3.98-1.73 8.86-0.65 11.87 2.4299 4.54 4.1001 6.46 10.27 7.12 16.19 0.68 7.4-0.37 15.3-4.53 21.63-2.34 3.5399-6.36 6.24-10.72 6.0699-4.57-0.08-8.52-3.27-10.72-7.08-4.22-7.13-4.8-15.84-3.42-23.85 1.2999-6.1199 4.1899-12.93 10.4-15.39z"/>
		<path d="m1119.5 1751.9c4.77-2.15 10.45-0.01 13.59 3.92 4 5.01 5.54 11.55 5.7301 17.85 0.05 8.1799-1.8601 17.67-8.9901 22.66-4.85 3.5199-11.92 1.7899-15.45-2.78-5.67-7.02-6.62-16.74-5.3199-25.37 1.22-6.38 4.0199-13.6 10.44-16.28z"/>
		<path d="m1157.7 1752.2c4.17-2.22 9.4801-0.99 12.82 2.1799 3.67 3.4501 5.52 8.3601 6.49 13.21 1.48 7.89 0.58 16.42-3.39 23.49-2.2999 3.62-5.91 6.97-10.43 7.13-4.8501 0.3199-9.2001-2.8401-11.57-6.86-4.34-7.17-4.96-16-3.53-24.09 1.23-5.89 3.94-12.24 9.6099-15.06z"/>
		<path d="m695.63 1775.2c4.64-1.26 9.62 0.88 12.44 4.64 4.69 6.15 6.01 14.27 5.44 21.83-0.64 6.8401-2.89 14.32-8.82 18.41-3.94 2.8099-9.59 2.41-13.29-0.62-4.32-3.47-6.47-8.9401-7.46-14.23-1.16-7.5801-0.66-15.72 3.07-22.54 1.9-3.35 4.79-6.48 8.62-7.49z"/>
		<path d="m923.7 1775.4c4.3401-1.59 9.3601 0.1 12.34 3.52 4.8199 5.3199 6.2799 12.77 6.37 19.74-0.13 6.25-1.4501 12.77-5.23 17.89-2.5 3.42-6.6801 5.8099-10.99 5.41-4.0699-0.49-7.6299-3.2101-9.6799-6.67-4.85-7.91-5.4301-17.88-3.1-26.7 1.52-5.4601 4.6999-11.14 10.29-13.19z"/>
		<path d="m825.51 1778c4.02-1.92 9.16-1.04 12.36 2.0599 4.08 3.7 6.08 9.12 6.94 14.46 1.1 8.8501 0.16 18.85-6.08 25.74-3.69 4.14-10.36 5.17-14.93 1.87-6.97-5.0299-8.8-14.32-8.82-22.4 0.27-8.14 2.77-17.66 10.53-21.73z"/>
		<path d="m1039.7 1784.3c3.6799-1.6 8.08-0.7799 11.16 1.7201 4.63 3.6599 6.75 9.5599 7.6901 15.22 1.0399 7.76 0.2 16.11-4.02 22.87-2.41 3.78-6.59 6.86-11.27 6.47-4.58-0.16-8.4299-3.4399-10.6-7.27-4.2001-7.2999-4.74-16.23-3.12-24.34 1.26-5.9101 4.3599-12.13 10.16-14.67z"/>
		<path d="m740.63 1788.3c3.43-1.01 7.37-0.3601 10.14 1.97 4.86 3.78 6.94 9.98 7.84 15.86 0.87 7.6899 0.06 16.04-4.33 22.63-2.75 4.13-7.9 7.38-12.98 5.9199-5.22-1.3199-8.78-6.0299-10.5-10.89-2.83-7.8101-2.86-16.62-0.13-24.46 1.66-4.7899 4.95-9.4199 9.96-11.03z"/>
		<path d="m785.73 1788.3c2.95-0.88 6.3-0.7 8.94 1.01 5.18 2.95 7.65 8.89 8.86 14.48 1.4399 8.67 0.84 18.34-4.47 25.7-2.89 4.15-8.56 6.7101-13.47 4.8-4.21-1.38-7.07-5.15-8.85-9.02-3.34-7.86-3.62-16.91-1.09-25.03 1.6901-5.01 4.8101-10.18 10.08-11.94z"/>
		<path d="m1001.6 1788.3c3.22-0.9 6.87-0.5 9.63 1.5 5.14 3.48 7.4299 9.79 8.39 15.69 1.0499 7.9 0.24 16.5-4.24 23.3-2.74 4.2001-8.05 7.3201-13.12 5.78-5.1801-1.2999-8.55-6.0499-10.34-10.79-2.85-7.88-2.86-16.79-0.0699-24.68 1.72-4.63 4.9101-9.15 9.75-10.8z"/>
	</g>
	<g id="_x23_ffffffff" fill="#ffffff" stroke="#ffffff" stroke-width=".0938">
		<path d="m787.1 238.61c8.8-4.88 19.83-5.61 29.08-1.51 12.5 5.29 21.35 16.58 27.06 28.56 9.44 20.44 11.3 44.15 6.2 66-1.32-8.71-4.42-17.23-9.88-24.21-3.51-4.84-8.31-8.44-12.87-12.21-2.69-2.08-6.15-2.59-9.26-3.72-12.26-4.19-26.28-2.62-37.34 4.11-12.81 7.54-21.13 21.4-23.08 36.01-4.77-20.57-3.38-42.74 4.61-62.35 5.23-12.35 13.39-24.24 25.48-30.68z"/>
		<path d="m906.75 246.5c6.1-5.97 13.85-10.65 22.43-11.75 10.58-1.62 21.31 2.82 29.08 9.87 9.33 8.36 15.57 19.67 19.38 31.5 5.79 17.94 6.35 37.45 2.15 55.8-1.7001-12.89-8.1801-25.24-18.57-33.19-10.5-8.31-24.83-11.47-37.84-8.36-5.9 1.71-12.34 2.95-16.67 7.69-10.8 7.91-17.58 20.45-19.39 33.62-3.96-16.53-3.62-34.06 0.62-50.51 3.37-12.82 9.4001-25.2 18.81-34.67z"/>
		<path d="m812.75 295.44c6.77-2.95 15.3 1.14 17.45 8.15 2.73 7.2-2.39 15.85-9.88 17.23-7.5 1.8-15.64-4.34-15.91-12.06-0.59-5.67 3.1101-11.25 8.34-13.32z"/>
		<path d="m914.68 295.31c7.0499-2.88 15.71 1.95 17.34 9.28 1.99 6.88-2.84 14.57-9.75 16.11-6.53 1.78-13.91-2.42-15.76-8.92-2.35-6.54 1.65-14.29 8.17-16.47z"/>
		<path d="m845.78 496.47c18.24-1.95 37.09-1.45 54.71 4.04 5.14 1.9 11.06 3.99 13.89 9.04 1.92 3.84-1.05 7.8-4.23 9.77-8.22 5.25-18.07 7.05-27.56 8.46-17.77 2.1-36.07 1.61-53.39-3.17-5.95-1.95-12.72-4.06-16.22-9.66-2-3.99 1.09-8.02 4.4-10.03 8.4799-5.36 18.64-7.06 28.4-8.45z"/>
	</g>
	<g id="_x23_a77c52ff" fill="#a77c52" stroke="#a77c52" stroke-width=".0938">
		<path d="m763.02 98.692c20.26-7.2 41.75-11.12 63.27-10.87 25.65 0.01 51.3 0 76.95 0.01 17.52-0.48 35.08 1.23 52.09 5.51-1.5699 2.81-3.7999 5.17-5.45 7.93-9.25 14.61-12.51 32.34-11.7 49.43 1.21 26.59 10.47 52.1 22.44 75.62 1.77 3.75 4.28 7.15 5.61 11.11-9.3199-9.38-22.79-14.76-36.03-13.69-12.73 0.91-24.44 7.75-32.98 17-11.32 12.26-18.13 28.13-21.32 44.37-4.9301 25.99-1.67 54.17 11.91 77.15 7.86 13.21 20.06 24.75 35.32 28.48 12.36 3.18 25.82 0.24 36.27-6.91 13.39-9.05 22.35-23.38 27.71-38.38 8.71-24.98 8.16-52.83-0.67-77.69 20.79 28.95 45.85 54.71 73.24 77.46 17.97 16.13 32.12 35.88 45.53 55.81-5.0699 17.69-12.63 34.67-21.75 50.65-30.53-21.34-65.2-36.28-101.01-46.18-62.4-17.05-128.5-19.7-192.28-9.42-49.37 8.18-97.86 24.8-139.7 52.61-5.47-10.04-10.3-20.42-14.43-31.07-0.88-1.48 0.42-2.91 1-4.21 9.73-17.73 20.1-35.24 32.98-50.91 5.82-7.14 12.65-13.36 18.89-20.12 26.61-28.29 49.83-59.96 67.36-94.67 9.29-18.8 16.96-38.52 21.42-59.05 3.97-18.65 5.48-38.21 1.22-56.96-2.6001-12.06-8.0801-23.46-15.89-33.01m34.37 125.31c-18.67 2.5-33.5 16.84-41.92 32.98-10.54 19.66-13.65 42.69-11.27 64.69 2.24 18.43 8.65 36.83 20.85 51.06 8.39 9.9 20.1 17.55 33.2 18.99 13.55 1.69 27.26-3.75 37.19-12.86 13.47-12.19 21.44-29.42 25.16-46.98 4.41-21.64 2.95-44.63-5.11-65.26-5.54-13.88-14.34-26.98-27.03-35.23-9.04-6.05-20.25-8.91-31.07-7.39z"/>
		<path d="m1475.2 718.03c0.99-4.03-0.41-8.81 2.71-12.05 1.26 8.19 1.84 16.48 2.65 24.73 8.2 97.02-1.72 195.1-24.75 289.55-20.2 82.82-50.5 163.2-90.41 238.54-35.73 67.46-79.11 131.06-130.61 187.5-3.7 3.91-7.15 8.0701-11.09 11.74 1.4399-32.81 3.84-65.58 4.76-98.41-0.53-3.58 2.7999-5.5699 4.8899-7.85 26.52-26.88 50.62-56.1 72.66-86.75 56.84-79.55 99.33-168.95 128.16-262.25 28.42-91.98 43.32-188.41 41.03-284.75z"/>
		<path d="m881.31 756.03c40.36-1.56 80.75-7.8 119.08-20.72 4.49 2.77 8.7999 6.43 11.07 11.3 0.24 7.67-5.74 13.62-11.66 17.61-12.83 8.52-27.9 12.8-42.77 16.2-24.89 5.3-50.4 7.08-75.8 7.55-28.19 0.61-56.52-1.57-84.07-7.7401-17.52-4.18-35.02-9.59-50.57-18.87-6.1201-3.86-12.45-8.16-15.97-14.68 1.8-3.37 4.47-6.12 7.33-8.59 46.29 14.19 95.06 19.47 143.36 17.94z"/>
		<path d="m1074.8 762.43c42.09 53.25 66.84 119.08 74.84 186.21 4.2999 33.85 2.5299 68.01 2.89 102.03-0.02 55.69 0.06 111.39-0.04 167.09 3.58 0.6001 7.1899 1.0701 10.76 1.8101 12.19 2.49 23.83 8.5599 31.9 18.17 11.57 13.53 16.44 31.29 19.29 48.51 4.0701 26.26 3.67 52.94 2.9601 79.43-2.0801 55-6.8501 109.91-6.5601 164.98 0.2 40.42 10.6 80.03 24.56 117.72 7.8099 21.65 17.01 42.78 24.13 64.68 4.25 13.74 8.2599 28.2 6.21 42.7-1.3 9.8301-6.77 18.82-14.43 25.03-11.24 9.2001-25.16 14.31-38.94 18.33-21.29 5.97-43.25 9.09-65.19 11.47-6.24 0.75-12.55 1.1699-18.8 0.4399-10.85-1.3199-21.3-4.88-31.27-9.24-13.69-33.3-21.54-69.06-22.39-105.09-1.0601-40.98 6.6899-82.16 22.49-119.98-3.3-1.4601-6.54-3.0801-10.02-4.02-13.65 31.9-21.16 66.37-23.08 101-2.29 43.78 5.1899 87.99 21.49 128.68 1.26 2.17-1.03 3.8401-2.26 5.3701-16.55 18.25-40.29 28.39-64.14 32.91-22.64 4.1901-46.21 3.3-68.48-2.5399-17.68-4.92-34.86-12.98-48.27-25.73-12.41-11.57-21.17-28.31-19.44-45.64 0.4901-8.2401 4.06-15.75 7.23-23.22-2.71-0.22-5.55 0.13-8.15-0.75-0.24-79.09-0.03-158.19-0.1-237.28-3.6-0.1001-7.19-0.1201-10.78-0.09-0.28 79.18-0.09 158.36-0.09 237.54-2.34 0.02-4.67 0.04-6.98 0.1 3.42 7.9 7.21 15.9 7.58 24.66 1.35 17.1-7.41 33.41-19.62 44.83-12.35 11.57-27.8 19.39-43.89 24.32-21.96 6.6-45.4 8-68.05 4.59-18.48-2.87-36.69-8.99-52.3-19.45-11.11-7.4401-20.89-17.3-26.75-29.42 16.08-41.13 23.58-85.72 20.79-129.84-1.38-23.74-5.61-47.31-12.53-70.06-3.09-9.77-6.16-19.62-10.58-28.88-3.18 1.4301-6.37 2.8101-9.61 4.08 5.78 15.43 11.32 31.01 14.85 47.15 13.68 58.32 8.59 120.92-14.37 176.23-13.61 9.29-29.27 15.98-45.56 18.79-12.22 2.22-24.67 0.8201-36.92-0.3099-16.5-1.87-33.17-4.77-48.34-11.79-10.37-4.8201-19.9-12.32-25.22-22.62-6.8-13.12-6.9-28.45-5.51-42.81 2.8-24.53 9.67-48.33 15.89-72.15 12.05-44.51 23.1-89.77 24.66-136.07 0.97-48.26-2.6-96.46-5.47-144.61-1.49-25.61-2.96-51.29-2.09-76.95 0.89-18.09 2.51-36.6 9.66-53.44 3.53-8.17 8.77-15.8 15.95-21.19 5.56-4.3 12.25-6.8501 18.98-8.6801 8.89-1.97 18.04-2.1799 27.12-1.9299-0.02-62.61-0.01-125.22-0.01-187.83 0.08-23-0.52-46.05 1.69-68.98 6.19-70.34 30.89-139.61 74.04-195.83 3.78 11.8 10.25 22.71 18.85 31.64 13.24 13.9 30.09 23.78 47.53 31.5 19.01 8.25 39.11 13.78 59.42 17.78 23.14 4.3199 46.66 6.7599 70.21 6.83 0.05 14.61 0.07 29.22-0.03 43.84-11.34 1.11-22.42 5.18-31.61 11.95-12.74 9.07-21.78 23.06-25.15 38.3-4.13 18.67 0.42 39.1 12.49 54 10.41 13.21 26.21 22.03 42.94 23.9 18.19 2.29 37.2-3.83 50.73-16.18 13.38-11.96 21.37-29.75 21.21-47.71 0.1899-15.37-5.54-30.66-15.61-42.23-11.78-13.82-29.6-22.06-47.74-22.41 0.14-14.42 0.06-28.83 0.08-43.25 25.15-0.1 50.36-1.35 75.28-4.91 22-3.21 43.9-8.16 64.43-16.84 14.06-5.93 27.4-13.93 38.48-24.5 12.51-11.74 21.26-27.35 24.76-44.14m162.9 973.82c-4.78 1.2599-8.3199 5.3999-10.11 9.85-3.59 8.83-3.48 19.15 0.4301 27.86 2.0599 4.51 6.0399 8.75 11.25 9.16 4.5499 0.4099 8.75-2.38 11.27-5.9901 3.64-5.3899 4.79-12.05 4.8101-18.44-0.33-7.0601-2.0601-14.74-7.52-19.65-2.6601-2.55-6.56-3.7-10.13-2.79m-729.17 2.93c-5.65 2.63-8.64 8.72-9.95 14.54-1.74 8.38-1.09 17.68 3.5 25.09 2.33 3.85 6.57 6.96 11.25 6.64 4.56-0.07 8.32-3.42 10.59-7.12 4.06-6.89 4.7-15.28 3.51-23.03-1.04-5.8099-3.44-11.88-8.59-15.19-3.01-2.0601-6.98-2.3202-10.31-0.9301m118.01 6c-3.99 1.11-7.03 4.35-8.91 7.9401-3.64 7.2599-4.0099 15.79-2.48 23.67 1.46 5.87 4.49 12.31 10.57 14.52 4.41 1.77 9.56-0.11 12.57-3.58 4.42-4.89 5.93-11.67 6.23-18.07 0.14-6.6699-1.13-13.65-5.03-19.19-2.83-4.02-8.02-6.7101-12.95-5.29m571.32 4.32c-5.24 1.8899-8.5 6.97-10.07 12.09-2.4399 8.1799-2.21 17.31 1.3101 25.16 2.03 4.5499 5.96 8.7599 11.15 9.33 5.36 0.54 10.07-3.3101 12.52-7.77 3.1499-5.97 4.21-12.94 3.51-19.61-0.66-6.11-2.6201-12.54-7.3-16.77-2.93-2.73-7.3299-3.73-11.12-2.43m-650.36 0.5099c-5.41 2.2401-8.39 7.91-9.8 13.31-1.78 7.36-1.59 15.35 1.22 22.44 1.77 4.2301 4.74 8.4401 9.31 9.91 4.6 1.75 9.92-0.46 12.84-4.2 4.08-4.9401 5.57-11.49 5.76-17.76 0.13-6.9501-1.29-14.32-5.79-19.81-3.0301-4.0099-8.8401-6.0798-13.54-3.8899m38.99 2.0801c-6.21 2.46-9.1 9.27-10.4 15.39-1.38 8.01-0.8 16.72 3.42 23.85 2.2 3.8099 6.15 7 10.72 7.08 4.36 0.17 8.38-2.53 10.72-6.0699 4.16-6.3301 5.21-14.23 4.53-21.63-0.66-5.92-2.58-12.09-7.12-16.19-3.0101-3.08-7.8901-4.16-11.87-2.43m532.97-0.16c-6.42 2.6801-9.22 9.9-10.44 16.28-1.3 8.63-0.3501 18.35 5.3199 25.37 3.53 4.5699 10.6 6.2999 15.45 2.78 7.13-4.99 9.04-14.48 8.9901-22.66-0.1901-6.3-1.7301-12.84-5.7301-17.85-3.14-3.93-8.82-6.0701-13.59-3.92m38.2 0.28c-5.6699 2.8199-8.3799 9.1699-9.61 15.06-1.4299 8.0901-0.8099 16.92 3.53 24.09 2.37 4.0199 6.72 7.1799 11.57 6.86 4.5199-0.16 8.13-3.51 10.43-7.13 3.97-7.0701 4.87-15.6 3.39-23.49-0.97-4.85-2.8199-9.76-6.49-13.21-3.3399-3.1699-8.65-4.3999-12.82-2.1799m-462.06 22.98c-3.83 1.01-6.72 4.14-8.62 7.49-3.73 6.8201-4.23 14.96-3.07 22.54 0.99 5.2899 3.14 10.76 7.46 14.23 3.7 3.03 9.35 3.4299 13.29 0.62 5.93-4.09 8.18-11.57 8.82-18.41 0.57-7.5599-0.75-15.68-5.44-21.83-2.82-3.76-7.7999-5.9-12.44-4.64m228.07 0.23c-5.59 2.05-8.7699 7.73-10.29 13.19-2.3301 8.8199-1.75 18.79 3.1 26.7 2.05 3.46 5.61 6.1801 9.6799 6.67 4.3101 0.3999 8.4901-1.99 10.99-5.41 3.7799-5.12 5.1-11.64 5.23-17.89-0.0901-6.97-1.55-14.42-6.37-19.74-2.98-3.4202-8-5.1101-12.34-3.5201m-98.19 2.58c-7.76 4.0699-10.26 13.59-10.53 21.73 0.02 8.08 1.85 17.37 8.82 22.4 4.57 3.3 11.24 2.27 14.93-1.87 6.24-6.8899 7.18-16.89 6.08-25.74-0.86-5.34-2.86-10.76-6.94-14.46-3.2-3.0999-8.3399-3.9799-12.36-2.0599m214.17 6.2699c-5.8 2.54-8.9 8.76-10.16 14.67-1.62 8.11-1.0801 17.04 3.12 24.34 2.17 3.8301 6.02 7.11 10.6 7.27 4.6801 0.39 8.86-2.6899 11.27-6.47 4.22-6.76 5.0599-15.11 4.02-22.87-0.9401-5.66-3.0601-11.56-7.6901-15.22-3.08-2.4999-7.48-3.3199-11.16-1.72m-299.05 3.9801c-5.01 1.61-8.3 6.24-9.96 11.03-2.73 7.8401-2.7 16.65 0.13 24.46 1.72 4.86 5.28 9.5699 10.5 10.89 5.08 1.4601 10.23-1.7899 12.98-5.9199 4.39-6.59 5.2-14.94 4.33-22.63-0.9-5.88-2.98-12.08-7.84-15.86-2.77-2.3301-6.71-2.98-10.14-1.97m45.1 0.07c-5.27 1.76-8.39 6.9301-10.08 11.94-2.53 8.12-2.25 17.17 1.09 25.03 1.78 3.87 4.64 7.64 8.85 9.02 4.91 1.91 10.58-0.65 13.47-4.8 5.31-7.36 5.91-17.03 4.47-25.7-1.21-5.59-3.6801-11.53-8.86-14.48-2.6399-1.7099-5.99-1.8899-8.94-1.0099m176.99-0.02c-5.01 1.6801-8.1 6.4401-9.8199 11.18-2.64 7.5599-2.5701 16.01-0.0701 23.61 1.74 4.75 4.79 9.6699 9.9 11.27 4.88 1.7799 10.43-0.75 13.32-4.8301 4.1399-5.6799 5.37-12.97 5.09-19.85-0.1801-6.54-2.03-13.44-6.67-18.24-2.94-3.12-7.6501-4.45-11.75-3.14m38.91-0.02c-4.84 1.65-8.03 6.17-9.75 10.8-2.79 7.89-2.78 16.8 0.0699 24.68 1.79 4.7401 5.16 9.4901 10.34 10.79 5.0699 1.54 10.38-1.58 13.12-5.78 4.48-6.7999 5.2899-15.4 4.24-23.3-0.9601-5.9-3.25-12.21-8.39-15.69-2.76-1.9999-6.41-2.3999-9.63-1.4999z"/>
	</g>
	<g id="_x23_c69c6cff" fill="#c69c6c" stroke="#c69c6c" stroke-width=".0938">
		<path d="m853.49 401.05c54.61-1.31 109.78 6.71 160.88 26.37 34.81 13.61 68.15 32.79 93.98 60.15 13.3 14.15 24.38 30.64 30.88 49.02 6.5801 18.36 8.21 38.49 4.3201 57.63-3.79 18.82-12.55 36.4-24.2 51.58-20.17 26.33-47.8 46.01-77.2 60.85-40.83 20.35-85.72 31.75-130.98 36.47-50.16 5.01-101.24 2.07-150.25-9.91-22.45-5.51-44.45-12.97-65.4-22.74-25.75-12.03-50.17-27.53-70.31-47.71-10.65-10.62-19.98-22.65-27.13-35.9-8.98-16.55-14.11-35.28-14.04-54.15 0.09-20.78 6.56-41.25 17.29-58.96 16.14-26.58 40.38-47.33 66.78-63.3 32.25-19.44 68.2-32.21 104.93-40.1 26.45-5.59 53.43-8.69 80.45-9.3m-47.19 90.95c-17.18 5.19-34.2 12.85-47.17 25.54-8.14 7.86-14.35 18.51-14.42 30.08-0.21 10.02 4.2 19.62 10.62 27.12 9.01 10.47 21.07 17.82 33.62 23.3 17.16 7.4301 35.64 11.47 54.22 13.23 8.39 0.57 16.95 1.55 25.3 0.52 0.2 24.42-0.11 48.85 0.16 73.28-1.71 0.93-3.5 1.73-5.41 2.08-20.39 4.39-41.77 4.77-62.14 0.08-28.69-6.44-55.49-22.84-72.47-47.1-1.67 1.17-3.35 2.33-5.03 3.47 17.87 26.74 47.61 44.03 78.75 50.43 22.06 4.71 44.99 3.37 66.87-1.6201 15.38 3.51 31.25 5.39 47.04 4.2401 21.94-1.4 43.63-7.93 62.45-19.36 13.98-8.61 26.75-19.76 35.63-33.66-1.5499-1.41-3.36-2.45-5.1-3.55-14.97 22.27-38.83 37.55-64.31 45.1-23.81 7.07-49.4 6.92-73.47 1.23-0.13-24.87-0.11-49.75-0.01-74.62 1.57 0.44 3.23 0.14 4.86 0.13 23.49-1.52 47.1-6.27 68.31-16.78 12.98-6.53 25.54-15.42 32.89-28.27 5.1901-8.89 6.66-19.98 3.36-29.8-4.01-12.34-13.71-21.85-24.23-28.96-18.2-12.01-39.55-18.42-60.96-21.66-29.72-4.3001-60.47-2.8401-89.36 5.5499z"/>
		<path d="m1471.9 665.85c2.58 13.28 4.22 26.72 6 40.13-3.12 3.2401-1.72 8.02-2.71 12.05-0.3599-17.43-1.3699-34.85-3.29-52.18z"/>
	</g>
	<g id="_x23_010000ff" fill="#010000" stroke="#010000" stroke-width=".0938">
		<path d="m1441.6 557.97c3.1-2.6 6.13-5.3 9.21-7.9301 16.32 41.38 27.49 84.71 34.41 128.63 8.37 52.86 10.45 106.58 8.13 160.01-4.39 93.84-23.42 186.74-53.67 275.58-26.73 78.09-62.62 153.09-107.27 222.52-25.52 39.4-53.69 77.19-85.28 111.94-0.06-0.49-0.1899-1.4601-0.25-1.9401 0.2301-0.51 0.6901-1.5299 0.92-2.0399-1.62-0.8101-3.39-1.2201-5.1899-1.12-0.3201-0.08-0.9801-0.2401-1.3101-0.3201-1.13 1.04-2.24 2.09-3.33 3.16l-3.16-0.16c51.5-56.44 94.88-120.04 130.61-187.5 39.91-75.34 70.21-155.72 90.41-238.54 23.03-94.45 32.95-192.53 24.75-289.55-0.8101-8.25-1.39-16.54-2.65-24.73-1.78-13.41-3.42-26.85-6-40.13 1.92 17.33 2.9301 34.75 3.29 52.18 2.2899 96.34-12.61 192.77-41.03 284.75-28.83 93.3-71.32 182.7-128.16 262.25-0.41-1.5299-0.63-3.0599-1.2-4.49-1.42-0.98-3.03-1.62-4.5801-2.2999 1.3301-0.3501 2.6801-0.6901 4.05-1-1.45-0.8301-2.86-1.7301-4.29-2.55 47.87-67.74 85.16-142.69 112.56-220.91 29.64-84.96 47.88-174.14 51.39-264.14 2.8299-71.12-3.89-142.84-22.36-211.67z"/>
		<path d="m962.72 1788.3c4.1-1.3099 8.8101 0.02 11.75 3.14 4.64 4.8 6.49 11.7 6.67 18.24 0.28 6.88-0.9501 14.17-5.09 19.85-2.89 4.0801-8.4401 6.61-13.32 4.8301-5.11-1.6001-8.16-6.52-9.9-11.27-2.5-7.6-2.5699-16.05 0.0701-23.61 1.72-4.7401 4.81-9.5001 9.82-11.18z"/>
	</g>
	<g id="_x23_030101ff">
		<path d="m868.47 611.79c0.36-0.11 1.08-0.3199 1.44-0.43 0.38 0.11 1.14 0.32 1.52 0.43-0.1 24.87-0.12 49.75 0.01 74.62 24.07 5.69 49.66 5.84 73.47-1.23 25.48-7.55 49.34-22.83 64.31-45.1 1.74 1.1 3.55 2.14 5.1 3.55-8.88 13.9-21.65 25.05-35.63 33.66-18.82 11.43-40.51 17.96-62.45 19.36-15.79 1.15-31.66-0.73-47.04-4.2401-21.88 4.9901-44.81 6.33-66.87 1.6201-31.14-6.4-60.88-23.69-78.75-50.43 1.68-1.14 3.36-2.3 5.03-3.47 16.98 24.26 43.78 40.66 72.47 47.1 20.37 4.69 41.75 4.31 62.14-0.08 1.91-0.35 3.7-1.15 5.41-2.08-0.2699-24.43 0.0401-48.86-0.1599-73.28z" fill="#030101" stroke="#030101" stroke-width=".0938"/>
	</g>
	<g id="_x23_fefefeff" fill="#fefefe" stroke="#fefefe" stroke-width=".0938">
		<path d="m881.16 939.08c1.13-0.02 3.39-0.06 4.53-0.08-0.02 11.51 0.03 23.01-0.03 34.51-1.42 0-2.83 0.01-4.22 0.03-0.12-1.29-0.22-2.5699-0.31-3.84-2.9 5.35-11.49 6.07-14.77 0.79-3.34-5.51-2.93-13.36 1.23-18.34 3.46-4.17 10.29-3.79 13.85 0.09-0.36-4.39-0.24-8.78-0.28-13.16m-8.66 13.98c-4.33 3.06-4.28 9.64-2.69 14.19 2.14 5.11 9.77 2.77 11.47-1.46 0.1299-3.35 0.17-6.72-0.04-10.06-1.83-2.69-5.73-4.11-8.74-2.67z"/>
		<path d="m829.03 941.21c6.16-0.21 12.33-0.05 18.5-0.09 0.02 1.11 0.05 2.23 0.1 3.36-4.62 0.38-9.26-0.14-13.87 0.31 0.05 3.52 0.05 7.05 0.02 10.59 3.85 0.02 7.71 0.02 11.58 0.02-0.01 0.87-0.01 2.61-0.01 3.48-3.87 0.01-7.73-0.01-11.58 0.04 0.05 4.86 0.02 9.72 0.04 14.58-1.59-0.01-3.17-0.02-4.74-0.02-0.04-10.76 0.0399-21.51-0.04-32.27z"/>
		<path d="m853.12 941.14c1.48-0.03 2.97-0.03 4.48-0.02-0.01 1.44-0.01 2.88 0.02 4.34-1.53-0.01-3.04-0.01-4.54-0.02 0-1.45 0.0101-2.88 0.04-4.3z"/>
		<path d="m853.1 949.85c1.4901-0.02 2.9901-0.03 4.51-0.02-0.06 7.89 0.01 15.79-0.04 23.68-1.49-0.02-2.97-0.03-4.44-0.04-0.06-7.87-0.01-15.75-0.03-23.62z"/>
		<path d="m899.42 949.87c4.71-1.6 11.06-0.6 13.66 4.09 3 5.26 2.7101 12.6-1.39 17.22-5.0599 4.82-15.27 3.79-18.01-3.11-2.8101-6.17-1.4501-15.78 5.7399-18.2m2.0101 3.06c-4.86 2.02-5.03 8.52-3.91 12.91 0.86 4.2 6.21 6.45 9.75 3.87 3.65-2.94 3.71-8.49 2.48-12.64-0.9201-3.45-5.0001-5.61-8.32-4.14z"/>
	</g>
	<g id="_x23_010101ff">
		<path d="m872.5 953.06c3.01-1.44 6.91-0.02 8.74 2.67 0.21 3.34 0.17 6.71 0.04 10.06-1.7 4.23-9.33 6.57-11.47 1.46-1.59-4.55-1.64-11.13 2.69-14.19z" fill="#010101" stroke="#010101" stroke-width=".0938"/>
	</g>
	<g id="_x23_010001ff">
		<path d="m543.71 1217c5.59-3.52 11.75-6.14 18.17-7.67-1.03 0.96-2.03 1.96-3.04 2.96 0.91 0.52 1.81 1.04 2.73 1.6-1.2 0-2.4 0-3.58 0.03-0.6 1.87-1.19 3.75-1.76 5.65 3.13-0.5601 6.37-1.2 9.49-0.14-6.73 1.83-13.42 4.38-18.98 8.6801-7.18 5.39-12.42 13.02-15.95 21.19-7.15 16.84-8.77 35.35-9.66 53.44-0.87 25.66 0.6 51.34 2.09 76.95 2.8701 48.15 6.44 96.35 5.47 144.61-1.56 46.3-12.61 91.56-24.66 136.07-6.22 23.82-13.09 47.62-15.89 72.15-1.39 14.36-1.29 29.69 5.51 42.81 5.3199 10.3 14.85 17.8 25.22 22.62 15.17 7.02 31.84 9.92 48.34 11.79 12.25 1.13 24.7 2.5299 36.92 0.3099 16.29-2.8099 31.95-9.5 45.56-18.79 22.96-55.31 28.05-117.91 14.37-176.23-3.53-16.14-9.07-31.72-14.85-47.15 3.24-1.2699 6.43-2.6499 9.61-4.08 4.42 9.26 7.49 19.11 10.58 28.88 6.92 22.75 11.15 46.32 12.53 70.06 2.79 44.12-4.71 88.71-20.79 129.84 5.86 12.12 15.64 21.98 26.75 29.42 15.61 10.46 33.82 16.58 52.3 19.45 22.65 3.41 46.09 2.01 68.05-4.59 16.09-4.9301 31.54-12.75 43.89-24.32 12.21-11.42 20.97-27.73 19.62-44.83-0.37-8.76-4.16-16.76-7.58-24.66 2.31-0.06 4.64-0.08 6.98-0.1 0-79.18-0.19-158.36 0.09-237.54 3.59-0.03 7.18-0.01 10.78 0.09 0.07 79.09-0.14 158.19 0.1 237.28 2.6 0.88 5.44 0.53 8.15 0.75-3.17 7.4701-6.74 14.98-7.23 23.22-1.73 17.33 7.03 34.07 19.44 45.64 13.41 12.75 30.59 20.81 48.27 25.73-5.58 2.5499-12.5-1.3-17.34 3.2799-1.17-1.83-2.03-3.8199-2.4-5.9399 0.78-0.24 1.5699-0.46 2.38-0.65-0.38-0.61-1.12-1.8199-1.49-2.4301-2.09 0.4801-3.6801 1.8401-4.99 3.4601-0.8101-0.23-1.61-0.47-2.39-0.64 0.66 1.9399 1.39 3.89 2.12 5.84-20.59-9.23-39.83-24.14-49.26-45.15-6.57 14.42-17.87 26.31-30.98 35.03-17 11.42-36.8 18.19-56.96 21.28-25.78 3.8199-52.54 1.9399-77.28-6.41-23.43-7.9199-45.8-22.26-58.51-44-15.07 9.52-31.88 16.67-49.6 19.26-14.37 2.22-28.92 0.35-43.26-1.12-20.87-2.78-42.44-7.4299-59.81-20-12.48-9.01-20.85-23.12-23.13-38.31-3.77-23.89 1.75-47.94 7.15-71.13 11.05-44.06 24.57-87.71 30.08-132.94 3.4-24.79 3.26-49.85 2.58-74.81-1.17-51.4-6.26-102.63-7.6-154.03-0.18-24.78 0.03-50.07 7.17-74.02 4.4598-14.92 13.03-29.29 26.48-37.69z" fill="#010001" stroke="#010001" stroke-width=".0938"/>
	</g>
</g>
</svg>
