<?xml version="1.0" encoding="UTF-8" standalone="no"?>
<svg
   version="1.1"
   viewBox="0 -10 451 2070"
   id="svg11"
   sodipodi:docname="hidden.svg"
   inkscape:version="1.1.1 (3bf5ae0d25, 2021-09-20)"
   inkscape:export-filename="C:\Users\dcon\Downloads\hidden.png"
   inkscape:export-xdpi="20.48"
   inkscape:export-ydpi="20.48"
   xmlns:inkscape="http://www.inkscape.org/namespaces/inkscape"
   xmlns:sodipodi="http://sodipodi.sourceforge.net/DTD/sodipodi-0.dtd"
   xmlns:xlink="http://www.w3.org/1999/xlink"
   xmlns="http://www.w3.org/2000/svg"
   xmlns:svg="http://www.w3.org/2000/svg">
  <sodipodi:namedview
     id="namedview13"
     pagecolor="#ffffff"
     bordercolor="#666666"
     borderopacity="1.0"
     inkscape:pageshadow="2"
     inkscape:pageopacity="0.0"
     inkscape:pagecheckerboard="0"
     showgrid="false"
     inkscape:zoom="0.21086957"
     inkscape:cx="1256.701"
     inkscape:cy="1844.7423"
     inkscape:window-width="2104"
     inkscape:window-height="1332"
     inkscape:window-x="444"
     inkscape:window-y="304"
     inkscape:window-maximized="0"
     inkscape:current-layer="svg11" />
  <defs
     id="defs7">
    <linearGradient
       inkscape:collect="always"
       id="linearGradient1475">
      <stop
         style="stop-color:#ffd800;stop-opacity:1;"
         offset="0"
         id="stop1471" />
      <stop
         style="stop-color:#ffd800;stop-opacity:0;"
         offset="1"
         id="stop1473" />
    </linearGradient>
    <linearGradient
       id="lg"
       x1="0"
       x2="1"
       y2="1"
       gradientTransform="rotate(45)">
      <stop
         offset="0"
         stop-color="hsl(210, 100%, 50%)"
         id="stop2" />
      <stop
         offset="1"
         stop-color="hsl(225, 100%, 24%)"
         id="stop4" />
    </linearGradient>
    <linearGradient
       inkscape:collect="always"
       xlink:href="#linearGradient1475"
       id="linearGradient1477"
       x1="215.77319"
       y1="2043.4021"
       x2="218.14432"
       y2="-567.21649"
       gradientUnits="userSpaceOnUse" />
  </defs>
  <path
     fill="url(#lg)"
     stroke="hsl(195, 100%, 15%)"
     stroke-width="10"
     d="m30 302    65 1066    c3 75 16 130 38 167 21 40 52 59 94 59 43 0 75-19 96-59 18-35 30-90 35-167    l65-1066    c10-109-4-190-41-240-33-41-84-62-153-62-68 0-119 21-152 62-41 50-57 131-47 240z    m421 1552    c0-58-23-107-70-146-45-35-97-53-155-53-61    0-114 18-159 53-45 39-67 88-67 146 0 59 22 106 67 143 45 38 98 56 159 56 58 0 110-18 155-56 47-37 70-84 70-143    "
     id="path9"
     style="fill:url(#linearGradient1477);fill-opacity:1" />
</svg>
