<?xml version="1.0" encoding="UTF-8"?>
<svg width="2100" height="2100" version="1.1" viewBox="0 -10 2100 2100" xmlns="http://www.w3.org/2000/svg" xmlns:xlink="http://www.w3.org/1999/xlink">
 <defs>
  <linearGradient id="linearGradient1477" x1="225.26" x2="246.6" y1="1583.4" y2="-1947.2" gradientTransform="translate(25,13.5)" gradientUnits="userSpaceOnUse">
   <stop stop-color="#ffd800" offset="0"/>
   <stop stop-color="#ffd800" stop-opacity="0" offset="1"/>
  </linearGradient>
 </defs>
 <path d="m55 315.5 65 1066c3 75 16 130 38 167 21 40 52 59 94 59 43 0 75-19 96-59 18-35 30-90 35-167l65-1066c10-109-4-190-41-240-33-41-84-62-153-62-68 0-119 21-152 62-41 50-57 131-47 240zm421 1552c0-58-23-107-70-146-45-35-97-53-155-53-61 0-114 18-159 53-45 39-67 88-67 146 0 59 22 106 67 143 45 38 98 56 159 56 58 0 110-18 155-56 47-37 70-84 70-143" fill="url(#linearGradient1477)" stroke="#00394c" stroke-width="30"/>
</svg>
