<?xml version="1.0" encoding="UTF-8"?>
<svg width="16" height="16" version="1.1" viewBox="0 0 16 16" xmlns="http://www.w3.org/2000/svg">
 <g id="outline" fill="#f6f6f6">
  <path d="m0 0h16v16h-16z" fill-opacity="0"/>
  <path d="M 11.653,5 C 11.874,4.541 12,4.033 12,3.5 12,1.57 10.43,0 8.5,0 6.57,0 5,1.57 5,3.5 5,4.033 5.126,4.541 5.347,5 H 2 V 16 H 15 V 5 Z"/>
 </g>
 <g id="icon_x5F_bg" fill="#424242">
  <path d="M 7.717,5.862 8.501,9 9.285,5.861 A 2.49,2.49 0 0 0 11,3.5 2.5,2.5 0 1 0 6,3.5 c 0,1.105 0.722,2.032 1.717,2.362 z"/>
  <path d="m10.936 6a3.434 3.434 0 0 1-0.8 0.582l-0.105 0.418h2.969v7h-9v-7h2.97l-0.104-0.416a3.504 3.504 0 0 1-0.802-0.584h-3.064v9h11v-9z"/>
 </g>
 <path id="icon_x5F_fg" d="m10.031 7-0.56 2.242h-1.94l-0.561-2.242h-2.97v7h9v-7z" fill="#ffff00"/>
</svg>
