<?xml version="1.0" encoding="UTF-8" standalone="no"?>
<svg
   width="16"
   height="16"
   version="1.1"
   viewBox="0 0 16 16"
   id="svg13"
   sodipodi:docname="NoteNoteAdded.svg"
   inkscape:version="1.1.1 (3bf5ae0d25, 2021-09-20)"
   xmlns:inkscape="http://www.inkscape.org/namespaces/inkscape"
   xmlns:sodipodi="http://sodipodi.sourceforge.net/DTD/sodipodi-0.dtd"
   xmlns="http://www.w3.org/2000/svg"
   xmlns:svg="http://www.w3.org/2000/svg">
  <defs
     id="defs17" />
  <sodipodi:namedview
     id="namedview15"
     pagecolor="#ffffff"
     bordercolor="#666666"
     borderopacity="1.0"
     inkscape:pageshadow="2"
     inkscape:pageopacity="0.0"
     inkscape:pagecheckerboard="0"
     showgrid="false"
     inkscape:zoom="54.5625"
     inkscape:cx="9.9702176"
     inkscape:cy="9.5761741"
     inkscape:window-width="1664"
     inkscape:window-height="1111"
     inkscape:window-x="1567"
     inkscape:window-y="498"
     inkscape:window-maximized="0"
     inkscape:current-layer="svg13" />
  <g
     id="outline"
     fill="#f6f6f6">
    <path
       d="m0 0h16v16h-16z"
       fill-opacity="0"
       id="path2" />
    <path
       d="M 11.653,5 C 11.874,4.541 12,4.033 12,3.5 12,1.57 10.43,0 8.5,0 6.57,0 5,1.57 5,3.5 5,4.033 5.126,4.541 5.347,5 H 2 V 16 H 15 V 5 Z"
       id="path4" />
  </g>
  <g
     id="icon_x5F_bg"
     fill="#424242">
    <path
       d="M 7.717,5.862 8.501,9 9.285,5.861 A 2.49,2.49 0 0 0 11,3.5 2.5,2.5 0 1 0 6,3.5 c 0,1.105 0.722,2.032 1.717,2.362 z"
       id="path7" />
    <path
       d="m10.936 6a3.434 3.434 0 0 1-0.8 0.582l-0.105 0.418h2.969v7h-9v-7h2.97l-0.104-0.416a3.504 3.504 0 0 1-0.802-0.584h-3.064v9h11v-9z"
       id="path9" />
  </g>
  <path
     id="icon_x5F_fg"
     d="m10.031 7-0.56 2.242h-1.94l-0.561-2.242h-2.97v7h9v-7z"
     fill="#ffff00" />
  <path
     id="canvas"
     d="M 15.627557,15.641466 H 9.8915395 V 9.9054492 h 5.7360175 z"
     fill="#f6f6f6"
     fill-opacity="0"
     style="stroke-width:0.358501" />
  <path
     id="outline-7"
     d="M 9.8915395,11.697954 H 11.684046 V 9.9054492 h 2.151006 v 1.7925048 h 1.792505 v 2.151007 h -1.792505 v 1.792505 H 11.684046 V 13.848961 H 9.8915395 Z"
     fill="#00c000"
     style="stroke-width:0.358501" />
  <path
     id="iconBg"
     d="m 13.476551,12.056455 h 1.792505 v 1.434005 h -1.792505 v 1.792505 H 12.042547 V 13.49046 h -1.792506 v -1.434005 h 1.792506 V 10.26395 h 1.434004 z"
     fill="#00ff00"
     style="stroke-width:0.358501" />
</svg>
