<?xml version="1.0" encoding="UTF-8"?>
<svg width="700" height="700" clip-rule="evenodd" fill-rule="evenodd" image-rendering="optimizeQuality" shape-rendering="geometricPrecision" text-rendering="geometricPrecision" version="1.1" viewBox="0 0 7.2917 7.2917" xml:space="preserve" xmlns="http://www.w3.org/2000/svg"><path d="m3.3335 4.9657c-0.00235-0.082055-0.00352-0.14418-0.00352-0.1852 0-0.24264 0.033992-0.45246 0.10315-0.62828 0.050402-0.13245 0.13128-0.26608 0.24381-0.40205 0.082047-0.098461 0.23091-0.24146 0.44424-0.43018 0.2145-0.18989 0.35282-0.33993 0.41729-0.45245 0.064472-0.11136 0.096122-0.23444 0.096122-0.36689 0-0.24029-0.093776-0.45128-0.28132-0.63414-0.18754-0.18169-0.41846-0.27311-0.6904-0.27311-0.26374 0-0.48293 0.083224-0.65876 0.24732-0.177 0.16528-0.29187 0.42315-0.34696 0.77363l-0.63531-0.076185c0.057437-0.46887 0.2274-0.82872 0.50989-1.0784 0.28249-0.24967 0.65641-0.37392 1.1206-0.37392 0.49231 0 0.88498 0.13363 1.178 0.40205 0.29304 0.26725 0.43956 0.59077 0.43956 0.97172 0 0.2192-0.051575 0.42198-0.15473 0.60718-0.10315 0.1852-0.30359 0.41143-0.60366 0.67634-0.20161 0.17934-0.33289 0.31063-0.39502 0.39502-0.062126 0.085567-0.10784 0.18285-0.13715 0.29186-0.030472 0.11019-0.046886 0.28835-0.051575 0.53568h-0.59428zm-0.037512 1.2402v-0.70447h0.7033v0.70447z" fill="#ff0000" fill-rule="nonzero"/><rect width="6.8267" height="6.8267" fill="none"/></svg>
