<?xml version="1.0" encoding="UTF-8"?>
<svg version="1.1" viewBox="0 0 16 16" xmlns="http://www.w3.org/2000/svg" xmlns:cc="http://creativecommons.org/ns#" xmlns:rdf="http://www.w3.org/1999/02/22-rdf-syntax-ns#">
 <g id="canvas">
  <path d="M16,16.018H0v-16H16Z" fill="#f6f6f6" fill-opacity="0"/>
 </g>
 <g id="outline">
  <path d="M16,4.4V16.018H3V9.967a3.483,3.483,0,0,1,0-6.9V.018H5.711L5.729,0l.017.018h5.875Z" fill="#f6f6f6"/>
 </g>
 <g id="iconBg">
  <path d="M11.207,1.018H6.746l1,1H10v4h4v8H5v-4H4v5H15V4.811Zm-.207,4V2.225l2.793,2.793Z" fill="#424242"/>
 </g>
 <g id="colorAction">
  <path d="M8.832,4.518l-3.1,3.1-.708-.707,1.9-1.9H3.5a1.5,1.5,0,0,0,0,3v1a2.5,2.5,0,0,1,0-5H6.918l-1.9-1.9.708-.707Z" fill="#00539c"/>
 </g>
</svg>
