<?xml version="1.0" encoding="UTF-8"?>
<svg version="1.1" viewBox="0 0 16 16" xmlns="http://www.w3.org/2000/svg" xmlns:cc="http://creativecommons.org/ns#" xmlns:rdf="http://www.w3.org/1999/02/22-rdf-syntax-ns#">
 <path d="M16 0v16H0V0z" fill="#f6f6f6" fill-opacity="0"/>
 <path d="M15.269 6.73A2.452 2.452 0 0 0 13.5 6H13V0H3v6h-.5a2.451 2.451 0 0 0-1.77.73A2.451 2.451 0 0 0 0 8.5V14h3v2h10v-2h3V8.5a2.455 2.455 0 0 0-.731-1.77z" fill="#f6f6f6"/>
 <path d="M14 8.5V12h-2v-1H4v1H2V8.5a.481.481 0 0 1 .5-.5h11a.481.481 0 0 1 .5.5zM11 2H5v5h6zM5 14h6v-2H5z" fill="#f0eff1"/>
 <path d="M15 13h-3v2H4v-2H1V8.5a1.446 1.446 0 0 1 .438-1.062A1.446 1.446 0 0 1 2.5 7H4V1h8v6h1.5A1.494 1.494 0 0 1 15 8.5zm-1-4.5a.481.481 0 0 0-.5-.5h-11a.481.481 0 0 0-.5.5V12h2v-1h8v1h2zM3 10h1V9H3zm2-3h6V2H5zm6 5H5v2h6z" fill="#424242"/>
</svg>
