<?xml version="1.0" encoding="UTF-8"?>
<svg version="1.1" viewBox="0 0 16 16" xmlns="http://www.w3.org/2000/svg" xmlns:cc="http://creativecommons.org/ns#" xmlns:rdf="http://www.w3.org/1999/02/22-rdf-syntax-ns#">
 <g id="canvas">
  <path d="M16,16H0V0H16Z" fill="#f6f6f6" fill-opacity="0"/>
 </g>
 <g id="iconBg">
  <path d="M6,16V15H1V2H4.171A3,3,0,0,1,9.829,2H13V6h2V16Z" fill="#f6f6f6"/>
  <path d="M12,7V3H9A2,2,0,0,0,5,3H2V14H7v1h7V7ZM5,4H6V3A1,1,0,0,1,8,3V4H9V5H5ZM3,13V4H4V6h6V4h1V7H7v6Zm10,1H8V8h5Z" fill="#424242"/>
 </g>
 <g id="iconFg">
  <path d="M5,4H6V3A1,1,0,0,1,8,3V4H9V5H5ZM3,13V4H4V6h6V4h1V7H7v6Zm10,1H8V8h5Z" fill="#f0eff1"/>
 </g>
</svg>
