<?xml version="1.0" encoding="UTF-8"?>
<svg version="1.1" viewBox="0 0 16 16" xmlns="http://www.w3.org/2000/svg" xmlns:cc="http://creativecommons.org/ns#" xmlns:rdf="http://www.w3.org/1999/02/22-rdf-syntax-ns#">
 <g id="canvas">
  <path d="M16,0V16H0V0Z" fill="#f6f6f6" fill-opacity="0"/>
 </g>
 <g id="outline">
  <path d="M16,2V16H2.586L0,13.414V2A2,2,0,0,1,2,0H14A2,2,0,0,1,16,2Z" fill="#f6f6f6"/>
 </g>
 <g id="iconBg">
  <path d="M6,12H8v3H6ZM15,2V15H12V10H4v5H3L1,13V2A1,1,0,0,1,2,1H14A1,1,0,0,1,15,2ZM13,3H3V7H13Z" fill="#00539c"/>
 </g>
</svg>
