<?xml version="1.0" encoding="UTF-8" standalone="no"?>
<svg
   viewBox="0 0 16 16"
   version="1.1"
   id="svg20"
   sodipodi:docname="toolbarCopy.svg"
   inkscape:export-filename="D:\AgilityBook\AgilityBook\src\Include\images\toolbarCopy@2x.png"
   inkscape:export-xdpi="288"
   inkscape:export-ydpi="288"
   inkscape:version="1.1.1 (3bf5ae0d25, 2021-09-20)"
   xmlns:inkscape="http://www.inkscape.org/namespaces/inkscape"
   xmlns:sodipodi="http://sodipodi.sourceforge.net/DTD/sodipodi-0.dtd"
   xmlns="http://www.w3.org/2000/svg"
   xmlns:svg="http://www.w3.org/2000/svg"
   xmlns:rdf="http://www.w3.org/1999/02/22-rdf-syntax-ns#"
   xmlns:cc="http://creativecommons.org/ns#"
   xmlns:dc="http://purl.org/dc/elements/1.1/">
  <sodipodi:namedview
     id="namedview22"
     pagecolor="#ffffff"
     bordercolor="#666666"
     borderopacity="1.0"
     inkscape:pageshadow="2"
     inkscape:pageopacity="0.0"
     inkscape:pagecheckerboard="0"
     showgrid="false"
     inkscape:zoom="54.5625"
     inkscape:cx="8.0091638"
     inkscape:cy="8"
     inkscape:window-width="1664"
     inkscape:window-height="1111"
     inkscape:window-x="602"
     inkscape:window-y="583"
     inkscape:window-maximized="0"
     inkscape:current-layer="svg20" />
  <defs
     id="defs4">
    <style
       id="style2">.icon-canvas-transparent,.icon-vs-out{fill:#f6f6f6;}.icon-canvas-transparent{opacity:0;}.icon-vs-bg{fill:#424242;}.icon-vs-fg{fill:#f0eff1;}</style>
  </defs>
  <title
     id="title6">Copy_16x</title>
  <g
     id="canvas">
    <path
       class="icon-canvas-transparent"
       d="M16,16H0V0H16Z"
       id="path8" />
  </g>
  <g
     id="outline">
    <path
       class="icon-vs-out"
       d="M5,16V13H1V0H7.618L10.6,3h1.017L16,7.379V16Z"
       id="path11" />
  </g>
  <g
     id="iconBg">
    <path
       class="icon-vs-bg"
       d="M11.207,4H10.19L7.2,1H2V12H6v3h9V7.793ZM11,5.207,13.793,8H11ZM6,11H3V2H6.8L8.81,4H6Zm8,3H7V5h3V9h4Z"
       id="path14" />
  </g>
  <g
     id="iconFg">
    <path
       class="icon-vs-fg"
       d="M11,5.207,13.793,8H11ZM6,11H3V2H6.8L8.81,4H6Zm8,3H7V5h3V9h4Z"
       id="path17" />
  </g>
  <metadata
     id="metadata839">
    <rdf:RDF>
      <cc:Work
         rdf:about="">
        <dc:title>Copy_16x</dc:title>
      </cc:Work>
    </rdf:RDF>
  </metadata>
</svg>
