<?xml version="1.0" encoding="UTF-8" standalone="no"?>
<svg
   viewBox="0 0 16 16"
   version="1.1"
   id="svg20"
   sodipodi:docname="toolbarCalendar.svg"
   inkscape:export-filename="D:\AgilityBook\AgilityBook\src\Include\images\toolbarCalendar@2x.png"
   inkscape:export-xdpi="288"
   inkscape:export-ydpi="288"
   inkscape:version="1.1.1 (3bf5ae0d25, 2021-09-20)"
   xmlns:inkscape="http://www.inkscape.org/namespaces/inkscape"
   xmlns:sodipodi="http://sodipodi.sourceforge.net/DTD/sodipodi-0.dtd"
   xmlns="http://www.w3.org/2000/svg"
   xmlns:svg="http://www.w3.org/2000/svg"
   xmlns:rdf="http://www.w3.org/1999/02/22-rdf-syntax-ns#"
   xmlns:cc="http://creativecommons.org/ns#"
   xmlns:dc="http://purl.org/dc/elements/1.1/">
  <sodipodi:namedview
     id="namedview22"
     pagecolor="#ffffff"
     bordercolor="#666666"
     borderopacity="1.0"
     inkscape:pageshadow="2"
     inkscape:pageopacity="0.0"
     inkscape:pagecheckerboard="0"
     showgrid="false"
     inkscape:zoom="54.5625"
     inkscape:cx="8.0091638"
     inkscape:cy="8"
     inkscape:window-width="1664"
     inkscape:window-height="1111"
     inkscape:window-x="595"
     inkscape:window-y="719"
     inkscape:window-maximized="0"
     inkscape:current-layer="svg20" />
  <defs
     id="defs4">
    <style
       id="style2">.icon-canvas-transparent,.icon-vs-out{fill:#f6f6f6}.icon-canvas-transparent{opacity:0}.a{fill:#424242}.icon-vs-fg{fill:#f0eff1}.icon-vs-action-orange{fill:#c27d1a}</style>
  </defs>
  <title
     id="title6">MonthCalendar_16x</title>
  <path
     class="icon-canvas-transparent"
     d="M16 16H0V0h16z"
     id="path8" />
  <path
     class="icon-vs-out"
     d="M16 15H1V0h15z"
     id="path10" />
  <path
     class="a"
     d="M10 7h1v1h-1zM8 7h1v1H8zM4 11h1v1H4zM12 7h1v1h-1zM8 9h1v1H8zM8 11h1v1H8zM4 9h1v1H4zM6 11h1v1H6zM4 7h1v1H4zM6 7h1v1H6zM6 9h1v1H6z"
     id="path12" />
  <path
     class="a"
     d="M2 1h13v13H2z"
     id="path14" />
  <path
     class="icon-vs-fg"
     d="M6 5L4 3.5 6 2zm5-3v3l2-1.5zm3 4v7H3V6zm-4 2h1V7h-1zm-5 3H4v1h1zm0-2H4v1h1zm0-2H4v1h1zm2 4H6v1h1zm0-2H6v1h1zm0-2H6v1h1zm2 4H8v1h1zm0-2H8v1h1zm0-2H8v1h1zm4 2h-3v3h3zm0-2h-1v1h1z"
     id="path16" />
  <path
     class="icon-vs-action-orange"
     d="M10 9h3v3h-3z"
     id="path18" />
  <metadata
     id="metadata839">
    <rdf:RDF>
      <cc:Work
         rdf:about="">
        <dc:title>MonthCalendar_16x</dc:title>
      </cc:Work>
    </rdf:RDF>
  </metadata>
</svg>
