<?xml version="1.0" encoding="UTF-8" standalone="no"?>
<svg
   viewBox="0 0 16 16"
   version="1.1"
   id="svg20"
   sodipodi:docname="toolbarOpen.svg"
   inkscape:export-filename="D:\AgilityBook\AgilityBook\src\Include\images\toolbarOpen@2x.png"
   inkscape:export-xdpi="288"
   inkscape:export-ydpi="288"
   inkscape:version="1.1.1 (3bf5ae0d25, 2021-09-20)"
   xmlns:inkscape="http://www.inkscape.org/namespaces/inkscape"
   xmlns:sodipodi="http://sodipodi.sourceforge.net/DTD/sodipodi-0.dtd"
   xmlns="http://www.w3.org/2000/svg"
   xmlns:svg="http://www.w3.org/2000/svg"
   xmlns:rdf="http://www.w3.org/1999/02/22-rdf-syntax-ns#"
   xmlns:cc="http://creativecommons.org/ns#"
   xmlns:dc="http://purl.org/dc/elements/1.1/">
  <sodipodi:namedview
     id="namedview22"
     pagecolor="#ffffff"
     bordercolor="#666666"
     borderopacity="1.0"
     inkscape:pageshadow="2"
     inkscape:pageopacity="0.0"
     inkscape:pagecheckerboard="0"
     showgrid="false"
     inkscape:zoom="54.5625"
     inkscape:cx="8.0091638"
     inkscape:cy="8"
     inkscape:window-width="1664"
     inkscape:window-height="1111"
     inkscape:window-x="493"
     inkscape:window-y="604"
     inkscape:window-maximized="0"
     inkscape:current-layer="svg20" />
  <defs
     id="defs4">
    <style
       id="style2">.icon-canvas-transparent,.icon-vs-out{fill:#f6f6f6;}.icon-canvas-transparent{opacity:0;}.icon-vs-bg{fill:#424242;}.icon-vs-action-blue{fill:#00539c;}</style>
  </defs>
  <title
     id="title6">OpenFile_16x</title>
  <g
     id="canvas">
    <path
       class="icon-canvas-transparent"
       d="M16,16.018H0v-16H16Z"
       id="path8" />
  </g>
  <g
     id="outline">
    <path
       class="icon-vs-out"
       d="M16,4.4V16.018H3V9.967a3.483,3.483,0,0,1,0-6.9V.018H5.711L5.729,0l.017.018h5.875Z"
       id="path11" />
  </g>
  <g
     id="iconBg">
    <path
       class="icon-vs-bg"
       d="M11.207,1.018H6.746l1,1H10v4h4v8H5v-4H4v5H15V4.811Zm-.207,4V2.225l2.793,2.793Z"
       id="path14" />
  </g>
  <g
     id="colorAction">
    <path
       class="icon-vs-action-blue"
       d="M8.832,4.518l-3.1,3.1-.708-.707,1.9-1.9H3.5a1.5,1.5,0,0,0,0,3v1a2.5,2.5,0,0,1,0-5H6.918l-1.9-1.9.708-.707Z"
       id="path17" />
  </g>
  <metadata
     id="metadata839">
    <rdf:RDF>
      <cc:Work
         rdf:about="">
        <dc:title>OpenFile_16x</dc:title>
      </cc:Work>
    </rdf:RDF>
  </metadata>
</svg>
