<?xml version="1.0" encoding="UTF-8" standalone="no"?>
<svg
   viewBox="0 0 16 16"
   version="1.1"
   id="svg17"
   sodipodi:docname="toolbarSave.svg"
   inkscape:export-filename="D:\AgilityBook\AgilityBook\src\Include\images\toolbarSave@2x.png"
   inkscape:export-xdpi="288"
   inkscape:export-ydpi="288"
   inkscape:version="1.1.1 (3bf5ae0d25, 2021-09-20)"
   xmlns:inkscape="http://www.inkscape.org/namespaces/inkscape"
   xmlns:sodipodi="http://sodipodi.sourceforge.net/DTD/sodipodi-0.dtd"
   xmlns="http://www.w3.org/2000/svg"
   xmlns:svg="http://www.w3.org/2000/svg"
   xmlns:rdf="http://www.w3.org/1999/02/22-rdf-syntax-ns#"
   xmlns:cc="http://creativecommons.org/ns#"
   xmlns:dc="http://purl.org/dc/elements/1.1/">
  <sodipodi:namedview
     id="namedview19"
     pagecolor="#ffffff"
     bordercolor="#666666"
     borderopacity="1.0"
     inkscape:pageshadow="2"
     inkscape:pageopacity="0.0"
     inkscape:pagecheckerboard="0"
     showgrid="false"
     inkscape:zoom="54.5625"
     inkscape:cx="8.0091638"
     inkscape:cy="8"
     inkscape:window-width="1664"
     inkscape:window-height="1111"
     inkscape:window-x="824"
     inkscape:window-y="495"
     inkscape:window-maximized="0"
     inkscape:current-layer="svg17" />
  <defs
     id="defs4">
    <style
       id="style2">.icon-canvas-transparent,.icon-vs-out{fill:#f6f6f6;}.icon-canvas-transparent{opacity:0;}.icon-vs-action-blue{fill:#00539c;}</style>
  </defs>
  <title
     id="title6">Save_16x</title>
  <g
     id="canvas">
    <path
       class="icon-canvas-transparent"
       d="M16,0V16H0V0Z"
       id="path8" />
  </g>
  <g
     id="outline">
    <path
       class="icon-vs-out"
       d="M16,2V16H2.586L0,13.414V2A2,2,0,0,1,2,0H14A2,2,0,0,1,16,2Z"
       id="path11" />
  </g>
  <g
     id="iconBg">
    <path
       class="icon-vs-action-blue"
       d="M6,12H8v3H6ZM15,2V15H12V10H4v5H3L1,13V2A1,1,0,0,1,2,1H14A1,1,0,0,1,15,2ZM13,3H3V7H13Z"
       id="path14" />
  </g>
  <metadata
     id="metadata836">
    <rdf:RDF>
      <cc:Work
         rdf:about="">
        <dc:title>Save_16x</dc:title>
      </cc:Work>
    </rdf:RDF>
  </metadata>
</svg>
