<?xml version="1.0" encoding="UTF-8"?>
<svg version="1.1" viewBox="0 0 16 16" xmlns="http://www.w3.org/2000/svg" xmlns:cc="http://creativecommons.org/ns#" xmlns:rdf="http://www.w3.org/1999/02/22-rdf-syntax-ns#">
 <g id="canvas">
  <path d="M16,16H0V0H16Z" fill="#f6f6f6" fill-opacity="0"/>
 </g>
 <g id="outline">
  <path d="M5,16V13H1V0H7.618L10.6,3h1.017L16,7.379V16Z" fill="#f6f6f6"/>
 </g>
 <g id="iconBg">
  <path d="M11.207,4H10.19L7.2,1H2V12H6v3h9V7.793ZM11,5.207,13.793,8H11ZM6,11H3V2H6.8L8.81,4H6Zm8,3H7V5h3V9h4Z" fill="#424242"/>
 </g>
 <g id="iconFg">
  <path d="M11,5.207,13.793,8H11ZM6,11H3V2H6.8L8.81,4H6Zm8,3H7V5h3V9h4Z" fill="#f0eff1"/>
 </g>
</svg>
