<?xml version="1.0" encoding="UTF-8"?>
<svg width="16" height="16" version="1.1" xmlns="http://www.w3.org/2000/svg">
 <path id="canvas" d="m16 16h-16v-16h16v16z" fill="#F6F6F6" fill-opacity="0"/>
 <path id="outline" d="M15 5.52v7.48c0 .97-.701 2-2 2h-6c-.97 0-2-.701-2-2v-4h-2v-.879l-.621.621-2.122-2.121.621-.621h-.878v-3h.878l-.621-.621 2.122-2.122.621.621v-.878h3v.878l.621-.622 2.121 2.122-.621.622h3.948l2.931 2.52z" fill="#F6F6F6"/>
 <path id="iconBg" d="M14 6.136v6.864s-.035 1-1.035 1h-6s-.965 0-.965-1v-4.855l.598.598.402-.403v4.66h6v-6h-2v-2h-2v-1h2.625l2.375 2.136z" fill="#424242"/>
 <path id="iconFg" d="M13 7v6h-6v-4.637l1.742-1.742-.621-.621h.879v-1h2v2h2z" fill="#F0EFF1"/>
 <path id="colorAction" d="M8 4h-2.293l1.621-1.621-.707-.708-1.621 1.621v-2.292h-1v2.292l-1.621-1.621-.708.708 1.621 1.621h-2.292v1h2.292l-1.621 1.621.708.707 1.621-1.621v2.293h1v-2.293l1.621 1.621.707-.707-1.621-1.621h2.293v-1zm-3 1h-1v-1h1v1z" fill="#C27D1A"/>
</svg>
