<?xml version="1.0" encoding="UTF-8" standalone="no"?>
<svg
   viewBox="0 0 16 16"
   version="1.1"
   id="svg20"
   sodipodi:docname="toolbarFind.svg"
   inkscape:export-filename="D:\AgilityBook\AgilityBook\src\Include\images\toolbarFind@2x.png"
   inkscape:export-xdpi="288"
   inkscape:export-ydpi="288"
   inkscape:version="1.1.1 (3bf5ae0d25, 2021-09-20)"
   xmlns:inkscape="http://www.inkscape.org/namespaces/inkscape"
   xmlns:sodipodi="http://sodipodi.sourceforge.net/DTD/sodipodi-0.dtd"
   xmlns="http://www.w3.org/2000/svg"
   xmlns:svg="http://www.w3.org/2000/svg"
   xmlns:rdf="http://www.w3.org/1999/02/22-rdf-syntax-ns#"
   xmlns:cc="http://creativecommons.org/ns#"
   xmlns:dc="http://purl.org/dc/elements/1.1/">
  <sodipodi:namedview
     id="namedview22"
     pagecolor="#ffffff"
     bordercolor="#666666"
     borderopacity="1.0"
     inkscape:pageshadow="2"
     inkscape:pageopacity="0.0"
     inkscape:pagecheckerboard="0"
     showgrid="false"
     inkscape:zoom="54.5625"
     inkscape:cx="8.0091638"
     inkscape:cy="8"
     inkscape:window-width="1664"
     inkscape:window-height="1111"
     inkscape:window-x="602"
     inkscape:window-y="696"
     inkscape:window-maximized="0"
     inkscape:current-layer="svg20" />
  <defs
     id="defs4">
    <style
       id="style2">.icon-canvas-transparent,.icon-vs-out{fill:#f6f6f6;}.icon-canvas-transparent{opacity:0;}.icon-vs-fg{fill:#f0eff1;}.icon-vs-bg{fill:#424242;}</style>
  </defs>
  <title
     id="title6">Search_16x</title>
  <g
     id="canvas">
    <path
       class="icon-canvas-transparent"
       d="M16,16H0V0H16Z"
       id="path8" />
  </g>
  <g
     id="outline">
    <path
       class="icon-vs-out"
       d="M16,5.833a5.84,5.84,0,0,1-5.833,5.834,5.688,5.688,0,0,1-2.913-.8L2.561,15.561A1.5,1.5,0,0,1,.439,13.439L5.133,8.745a5.694,5.694,0,0,1-.8-2.912A5.834,5.834,0,0,1,16,5.833Z"
       id="path11" />
  </g>
  <g
     id="iconFg">
    <path
       class="icon-vs-fg"
       d="M14,5.833A3.834,3.834,0,1,1,10.167,2,3.838,3.838,0,0,1,14,5.833Z"
       id="path14" />
  </g>
  <g
     id="iconBg">
    <path
       class="icon-vs-bg"
       d="M10.167,1A4.839,4.839,0,0,0,5.333,5.833a4.786,4.786,0,0,0,1.1,3.029L1.147,14.146a.5.5,0,0,0,.707.708L7.138,9.569a4.783,4.783,0,0,0,3.029,1.1,4.834,4.834,0,0,0,0-9.667Zm0,8.667A3.834,3.834,0,1,1,14,5.833,3.838,3.838,0,0,1,10.167,9.667Z"
       id="path17" />
  </g>
  <metadata
     id="metadata839">
    <rdf:RDF>
      <cc:Work
         rdf:about="">
        <dc:title>Search_16x</dc:title>
      </cc:Work>
    </rdf:RDF>
  </metadata>
</svg>
