<?xml version="1.0" encoding="UTF-8" standalone="no"?>
<svg
   viewBox="0 0 16 16"
   version="1.1"
   id="svg19"
   sodipodi:docname="toolbarPaste.svg"
   inkscape:export-filename="D:\AgilityBook\AgilityBook\src\Include\images\toolbarPaste@2x.png"
   inkscape:export-xdpi="288"
   inkscape:export-ydpi="288"
   inkscape:version="1.1.1 (3bf5ae0d25, 2021-09-20)"
   xmlns:inkscape="http://www.inkscape.org/namespaces/inkscape"
   xmlns:sodipodi="http://sodipodi.sourceforge.net/DTD/sodipodi-0.dtd"
   xmlns="http://www.w3.org/2000/svg"
   xmlns:svg="http://www.w3.org/2000/svg"
   xmlns:rdf="http://www.w3.org/1999/02/22-rdf-syntax-ns#"
   xmlns:cc="http://creativecommons.org/ns#"
   xmlns:dc="http://purl.org/dc/elements/1.1/">
  <sodipodi:namedview
     id="namedview21"
     pagecolor="#ffffff"
     bordercolor="#666666"
     borderopacity="1.0"
     inkscape:pageshadow="2"
     inkscape:pageopacity="0.0"
     inkscape:pagecheckerboard="0"
     showgrid="false"
     inkscape:zoom="54.5625"
     inkscape:cx="8.0091638"
     inkscape:cy="8"
     inkscape:window-width="1664"
     inkscape:window-height="1111"
     inkscape:window-x="881"
     inkscape:window-y="617"
     inkscape:window-maximized="0"
     inkscape:current-layer="svg19" />
  <defs
     id="defs4">
    <style
       id="style2">.icon-canvas-transparent,.icon-vs-out{fill:#f6f6f6;}.icon-canvas-transparent{opacity:0;}.icon-vs-bg{fill:#424242;}.icon-vs-fg{fill:#f0eff1;}</style>
  </defs>
  <title
     id="title6">Paste_16x</title>
  <g
     id="canvas">
    <path
       class="icon-canvas-transparent"
       d="M16,16H0V0H16Z"
       id="path8" />
  </g>
  <g
     id="iconBg">
    <path
       class="icon-vs-out"
       d="M6,16V15H1V2H4.171A3,3,0,0,1,9.829,2H13V6h2V16Z"
       id="path11" />
    <path
       class="icon-vs-bg"
       d="M12,7V3H9A2,2,0,0,0,5,3H2V14H7v1h7V7ZM5,4H6V3A1,1,0,0,1,8,3V4H9V5H5ZM3,13V4H4V6h6V4h1V7H7v6Zm10,1H8V8h5Z"
       id="path13" />
  </g>
  <g
     id="iconFg">
    <path
       class="icon-vs-fg"
       d="M5,4H6V3A1,1,0,0,1,8,3V4H9V5H5ZM3,13V4H4V6h6V4h1V7H7v6Zm10,1H8V8h5Z"
       id="path16" />
  </g>
  <metadata
     id="metadata838">
    <rdf:RDF>
      <cc:Work
         rdf:about="">
        <dc:title>Paste_16x</dc:title>
      </cc:Work>
    </rdf:RDF>
  </metadata>
</svg>
