<?xml version="1.0" encoding="UTF-8" standalone="no"?>
<svg
   xmlns:dc="http://purl.org/dc/elements/1.1/"
   xmlns:cc="http://creativecommons.org/ns#"
   xmlns:rdf="http://www.w3.org/1999/02/22-rdf-syntax-ns#"
   xmlns:svg="http://www.w3.org/2000/svg"
   xmlns="http://www.w3.org/2000/svg"
   xmlns:sodipodi="http://sodipodi.sourceforge.net/DTD/sodipodi-0.dtd"
   xmlns:inkscape="http://www.inkscape.org/namespaces/inkscape"
   width="430"
   height="323.78146"
   id="svg2"
   version="1.1"
   inkscape:version="0.48.5 r10040"
   sodipodi:docname="house-2015053135.svg">
  <metadata
     id="metadata130">
    <rdf:RDF>
      <cc:Work
         rdf:about="">
        <dc:format>image/svg+xml</dc:format>
        <dc:type
           rdf:resource="http://purl.org/dc/dcmitype/StillImage" />
        <dc:title></dc:title>
      </cc:Work>
    </rdf:RDF>
  </metadata>
  <defs
     id="defs128" />
  <sodipodi:namedview
     pagecolor="#ffffff"
     bordercolor="#666666"
     borderopacity="1"
     objecttolerance="10"
     gridtolerance="10"
     guidetolerance="10"
     inkscape:pageopacity="0"
     inkscape:pageshadow="2"
     inkscape:window-width="1920"
     inkscape:window-height="1045"
     id="namedview126"
     showgrid="false"
     fit-margin-top="0"
     fit-margin-left="0"
     fit-margin-right="0"
     fit-margin-bottom="0"
     inkscape:zoom="0.60433295"
     inkscape:cx="787.3152"
     inkscape:cy="-179.09817"
     inkscape:window-x="0"
     inkscape:window-y="800"
     inkscape:window-maximized="1"
     inkscape:current-layer="svg2" />
  <path
     style="fill:#53a321;fill-opacity:1;stroke:none"
     d="m 215,10.5625 c -5.66051,0 -13.56724,9.413422 -17.75,12.84375 C 149.73935,65.712119 96.473965,105.61729 50.5,146.1875 37.203037,155.08345 19.224859,172.84562 13.65625,179 l 77.96875,-0.1875 0,133.78125 0.9375,0 65.40625,0 c 6.07271,0 18.51375,2.36701 22.15625,-3.9375 0.61212,-1.05955 1.00167,-2.07006 1.21875,-3.03125 l 0,0.4375 0.9375,0 -0.9375,-4.6875 0,0.875 c -0.98233,-3.94782 -5.46269,-6.40183 -10.28125,-6.46875 l 4.6875,0 -20.5625,-0.9375 -45.8125,0 0,-40.1875 -0.65625,0 0.65625,-93.46875 c -21.460944,-0.0484 -33.107299,-1.17584 -46.5625,-0.96875 l 21.34375,-18.75 27.09375,-22.625 0,0.28125 1.875,-1.875 5.59375,-4.65625 0.0625,-0.0625 L 136.5,97.75 172,68.09375 c 10.6256,-8.844077 21.28183,-17.698546 31.78125,-26.6875 2.92185,-2.501242 7.82675,-8.591318 12.15625,-7.46875 9.13197,2.36945 19.88725,15.674612 27.09375,21.6875 14.9766,12.495927 30.03299,24.938925 44.875,37.59375 21.00347,17.29051 37.429,31.58306 59.8125,49.96875 12.95129,11.87106 13.87675,12.20568 20.5625,18 -10.2382,-0.12319 -14.93104,0 -26.78125,0 -7.26756,-0.32988 -14.49854,-0.9375 -20.875,-0.9375 l 0,0.9375 c 0,8.82258 1.21875,22.22203 1.21875,32.59375 5.724,0 7.51066,0 14.625,0 0,-5.98501 -0.19696,-10.98097 -0.34446,-15.78125 16.05866,0.34063 29.65076,-0.62516 77.03196,-1.8125 l -18.6875,-17.125 -45.8125,-38.34375 L 300.0625,79.9375 C 280.73489,63.803743 261.25031,47.832847 242.09375,31.5 236.28276,26.545186 222.78039,10.5625 215,10.5625 z"
     id="path6"
     inkscape:connector-curvature="0"
     sodipodi:nodetypes="sccccccsccccccccccccccccccccccccscccccsccccccccs" />
  <path
     style="fill:#dff1c7;stroke:none"
     d="m 262.66941,49.019175 2.80408,1.869389 -2.80408,-1.869389 z"
     id="path8"
     inkscape:connector-curvature="0" />
  <path
     style="fill:#0577b5;stroke:none"
     d="m 207.46875,104.09375 c -1.91823,0.0438 -3.83425,0.24589 -5.5625,0.90625 -19.51922,7.45606 -14.39798,34.80729 -21.84375,49.625 -2.77604,5.52498 -8.75992,7.09509 -11.75,11.8125 -1.40952,2.22457 -0.34577,5.3799 -1.4375,7.84375 -2.21896,5.00529 -6.27509,8.65074 -7.96875,14 18.82253,-19.89619 21.19077,-6.74515 30.84378,-9.34375 10.65364,-0.87113 15.39271,-7.22387 23.375,-13.09375 -0.15983,7.4813 -6.3926,14.42998 -5.28125,21.5 1.1422,7.2579 7.76686,10.9172 9.84375,17.375 1.53944,4.78657 -1.52411,9.59351 -1.125,14.40625 0.39631,4.78002 2.94656,8.60959 -0.90625,12.84375 -3.77897,4.15285 -10.72587,8.57006 -16.53125,7.34375 -3.75654,-0.79449 -12.71358,-8.76788 -15.78125,-3.0625 -1.82733,3.39761 2.41525,8.79665 1.875,12.78125 -1.69696,12.51848 -14.88878,32.4535 0.9375,40.71875 -0.0301,0.79274 -0.0331,1.56854 -0.125,2.28125 6.00074,5.32588 10.86918,12.84006 13.09375,20.5625 l 110.28125,0 c 6.81859,0 16.95524,1.86846 23.28125,-0.9375 4.89687,-2.17223 6.57742,-9.73159 2.59375,-13.59375 -3.98366,-3.86309 -12.39991,-2.28125 -17.46875,-2.28125 -44.59313,3.34259 -66.96596,-1.51602 -73.84375,-36.46875 10.27042,3.47426 19.64144,8.52508 30.84375,7.40625 3.96404,-0.39538 10.40428,-3.25833 9.75,-8.21875 -0.60101,-4.56317 -9.25835,-6.86055 -11.625,-11.3125 15.56547,0 26.1415,-1.95874 34.96875,-15.90625 2.50779,-3.9631 6.19983,-10.58497 3.75,-15.46875 -1.49551,-2.9798 -8.63638,-4.25149 -11.59375,-5.375 -9.90963,-3.76588 -20.81168,-7.64021 -29.90625,-13.125 -9.13757,-5.51002 -6.5312,-16.35994 -12.65625,-23.9375 -8.35243,-10.33024 -24.04111,-13.74433 -29.40625,-27.15625 -2.55265,-6.38303 -1.02343,-16.79061 0.4375,-23.34375 1.17865,-5.28476 6.50408,-7.06124 7.96875,-12.15625 C 222.9535,105.20031 215.64349,110.64265 206.59378,121 l 6.53125,-16.84375 c -1.81518,0 -3.73802,-0.10631 -5.65625,-0.0625 z"
     id="path14"
     inkscape:connector-curvature="0"
     sodipodi:nodetypes="cccccccccsccccccccscccccccccccccccccsc" />
  <path
     style="fill:#84bedf;stroke:none"
     d="m 261.73471,182.68045 0,2.80408 0.9347,0 -0.9347,-2.80408 z"
     id="path60"
     inkscape:connector-curvature="0" />
  <path
     style="fill:#569dc2;stroke:none"
     d="m 305.66534,212.59067 0,0.93469 2.80408,0 -2.80408,-0.93469 z"
     id="path76"
     inkscape:connector-curvature="0" />
  <path
     style="fill:#95beda;stroke:none"
     d="m 214.06531,215.39475 2.80408,2.80408 -2.80408,-2.80408 z"
     id="path78"
     inkscape:connector-curvature="0" />
  <path
     style="fill:#3f91b1;stroke:none"
     d="m 312.2082,216.32944 0,4.67347 0.93469,0 -0.93469,-4.67347 z"
     id="path80"
     inkscape:connector-curvature="0" />
  <path
     style="fill:#69b0d5;stroke:none"
     d="m 311.58476,223.49574 0.31219,0.62251 -0.31219,-0.62251 z"
     id="path82"
     inkscape:connector-curvature="0" />
  <path
     style="fill:#95beda;stroke:none"
     d="m 197.86425,239.07336 0.62251,0.31219 -0.62251,-0.31219 z"
     id="path88"
     inkscape:connector-curvature="0" />
  <path
     style="fill:#9fd7f5;stroke:none"
     d="m 287.5949,246.55091 0.6225,0.31219 -0.6225,-0.31219 z"
     id="path92"
     inkscape:connector-curvature="0" />
  <path
     style="fill:#95beda;stroke:none"
     d="m 263.29285,266.17949 0.6225,0.31219 -0.6225,-0.31219 z"
     id="path106"
     inkscape:connector-curvature="0" />
  <path
     style="fill:#87c9eb;stroke:none"
     d="m 256.4378,287.05495 0.31219,0.62251 -0.31219,-0.62251 z"
     id="path116"
     inkscape:connector-curvature="0" />
  <path
     style="fill:#cdddef;stroke:none"
     d="m 330.90209,295.77845 c -220.60139,18.66868 -110.3007,9.33434 0,0 z"
     id="path120"
     inkscape:connector-curvature="0"
     sodipodi:nodetypes="cc" />
  <path
     style="fill:#95beda;stroke:none"
     d="m 337.44494,302.32131 0,3.73878 0.9347,0 -0.9347,-3.73878 z"
     id="path124"
     inkscape:connector-curvature="0" />
</svg>
