<?xml version="1.0" encoding="UTF-8"?>
<svg width="430" height="430" version="1.1" xmlns="http://www.w3.org/2000/svg" xmlns:cc="http://creativecommons.org/ns#" xmlns:dc="http://purl.org/dc/elements/1.1/" xmlns:rdf="http://www.w3.org/1999/02/22-rdf-syntax-ns#">
 <path d="m215 63.767c-5.6605 0-13.567 9.4134-17.75 12.844-47.511 42.306-100.78 82.211-146.75 122.78-13.297 8.896-31.275 26.658-36.844 32.812l77.969-0.1875v133.78h66.344c6.0727 0 18.514 2.367 22.156-3.9375 0.61212-1.0596 1.0017-2.0701 1.2188-3.0312v0.4375h0.9375l-0.9375-4.6875v0.875c-0.98233-3.9478-5.4627-6.4018-10.281-6.4688h4.6875l-20.562-0.9375h-45.812v-40.188h-0.65625l0.65625-93.469c-21.461-0.0484-33.107-1.1758-46.562-0.96875l21.344-18.75 27.094-22.625v0.28125l1.875-1.875 5.5938-4.6562 0.0625-0.0625 17.719-14.781 35.5-29.656c10.626-8.8441 21.282-17.699 31.781-26.688 2.9218-2.5012 7.8268-8.5913 12.156-7.4688 9.132 2.3694 19.887 15.675 27.094 21.688 14.977 12.496 30.033 24.939 44.875 37.594 21.003 17.291 37.429 31.583 59.812 49.969 12.951 11.871 13.877 12.206 20.562 18-10.238-0.12319-14.931 0-26.781 0-7.2676-0.32988-14.499-0.9375-20.875-0.9375v0.9375c0 8.8226 1.2188 22.222 1.2188 32.594h14.625c0-5.985-0.19696-10.981-0.34446-15.781 16.059 0.34063 29.651-0.62516 77.032-1.8125l-18.688-17.125-45.812-38.344-48.594-40.781c-19.328-16.134-38.812-32.105-57.969-48.438-5.811-4.9548-19.313-20.938-27.094-20.938z" fill="#53a321"/>
 <path d="m262.67 214.07 2.8041 1.8694z" fill="#dff1c7"/>
 <path d="m207.47 110.45c-1.9182 0.0438-3.8342 0.24589-5.5625 0.90625-19.519 7.4561-14.398 34.807-21.844 49.625-2.776 5.525-8.7599 7.0951-11.75 11.812-1.4095 2.2246-0.34577 5.3799-1.4375 7.8438-2.219 5.0053-6.2751 8.6507-7.9688 14 18.823-19.896 21.191-6.7452 30.844-9.3438 10.654-0.87113 15.393-7.2239 23.375-13.094-0.15983 7.4813-6.3926 14.43-5.2812 21.5 1.1422 7.2579 7.7669 10.917 9.8438 17.375 1.5394 4.7866-1.5241 9.5935-1.125 14.406 0.39631 4.78 2.9466 8.6096-0.90625 12.844-3.779 4.1528-10.726 8.5701-16.531 7.3438-3.7565-0.79449-12.714-8.7679-15.781-3.0625-1.8273 3.3976 2.4152 8.7966 1.875 12.781-1.697 12.518-14.889 32.454 0.9375 40.719-0.0301 0.79274-0.0331 1.5685-0.125 2.2812 6.0007 5.3259 10.869 12.84 13.094 20.562h110.28c6.8186 0 16.955 1.8685 23.281-0.9375 4.8969-2.1722 6.5774-9.7316 2.5938-13.594-3.9837-3.8631-12.4-2.2812-17.469-2.2812-44.593 3.3426-66.966-1.516-73.844-36.469 10.27 3.4743 19.641 8.5251 30.844 7.4062 3.964-0.39538 10.404-3.2583 9.75-8.2188-0.60101-4.5632-9.2584-6.8606-11.625-11.312 15.565 0 26.142-1.9587 34.969-15.906 2.5078-3.9631 6.1998-10.585 3.75-15.469-1.4955-2.9798-8.6364-4.2515-11.594-5.375-9.9096-3.7659-20.812-7.6402-29.906-13.125-9.1376-5.51-6.5312-16.36-12.656-23.938-8.3524-10.33-24.041-13.744-29.406-27.156-2.5526-6.383-1.0234-16.791 0.4375-23.344 1.1786-5.2848 6.5041-7.0612 7.9688-12.156-13.547-5.5184-20.857-0.0761-29.906 10.281l6.5312-16.844c-1.8152 0-3.738-0.10631-5.6562-0.0625z" fill="#0577b5"/>
 <path d="m261.73 213.6v2.8041h0.9347z" fill="#84bedf"/>
 <path d="m305.67 214.53v0.93469h2.8041z" fill="#569dc2"/>
 <path d="m214.07 213.6 2.8041 2.8041z" fill="#95beda"/>
 <path d="m312.21 212.66v4.6735h0.93469z" fill="#3f91b1"/>
 <path d="m311.58 214.69 0.31219 0.62251z" fill="#69b0d5"/>
 <path d="m197.86 214.84 0.62251 0.31219z" fill="#95beda"/>
 <path d="m287.59 214.84 0.6225 0.31219z" fill="#9fd7f5"/>
 <path d="m263.29 214.84 0.6225 0.31219z" fill="#95beda"/>
 <path d="m256.44 214.69 0.31219 0.62251z" fill="#87c9eb"/>
 <path d="m330.9 209.61c-220.6 18.669-110.3 9.3343 0 0z" fill="#cdddef"/>
 <path d="m337.44 213.13v3.7388h0.9347z" fill="#95beda"/>
</svg>
