<?xml version="1.0" encoding="UTF-8"?>
<svg width="600" height="600" data-name="Layer 2" version="1.1" viewBox="0 0 600 600" xmlns="http://www.w3.org/2000/svg">
 <defs>
  <style>.cls-1 { fill: #fff; }</style>
 </defs>
 <g transform="translate(.001125 93.595)" data-name="Layer 1">
  <g>
   <path class="cls-1" d="m48.28 94.58s-64.82 99.21 23.15 164.03c0 0-64.16-38.66-9.92-146.48z"/>
   <path class="cls-1" d="m93.92 61.51 8.16-17.49c-18.5 7.89-8.16 17.49-8.16 17.49"/>
   <path class="cls-1" d="m74.06 108.7c0 0.28 0.01 0.43 0.01 0.43 0-0.14 0-0.29-0.01-0.43"/>
   <path class="cls-1" d="m209.66 146.46-17.14 53.52s1.58-27.69-28.99-40.6c-30.04-12.68-48.56-8-61.17 1.58-15.63 11.87-42.42 54.83 1.85 98.33 44.29 43.53 103.34 18.98 109.67 14.76 0 0-22.17 21.01-44.82 30.05-24.52 9.8-73.84 11.92-104.94-35.64-35.66-54.54 11.94-129.68 87.84-130.11 40.84-0.23 57.7 8.1 57.7 8.1"/>
   <path class="cls-1" d="m425.83 258.71c-10.8-10.61-17.32-21.19-20.8-31.29 6.51 0.87 23.62 2.68 45.58 1.33 28.22-1.74 54.01-12.2 54.01-12.2-8.23-1.76-80.42-7.99-102.81-9.89 0.62-21.53 13.24-38.62 22.19-45.41 12.5-9.49 30.86-14.14 60.63-1.57 30.31 12.79 28.74 40.25 28.74 40.25l16.99-53.05s-16.71-8.26-57.19-8.03c-75.24 0.42-122.43 74.91-87.08 128.97 30.83 47.14 79.72 45.04 104.03 35.32 22.46-8.97 44.42-29.79 44.42-29.79-6.27 4.18-64.8 28.51-108.71-14.63"/>
   <path class="cls-1" d="m192.76 412.81s26.84-35.41 40.33-46.16c0 0 0.09-153.47 2.13-174.81 0 0 0.52-22.81 17.18-31.14 16.67-8.33 86.45-3.65 85.92 67.7-0.52 71.34-61.97 81.76-91.65 62.49 0 0 11.46 16.14 38.01 15.1 26.56-1.04 90.09-22.39 90.09-84.88s-56.76-80.71-78.11-79.67-48.95 15.1-61.45 25.52c0 0 1.56-25.52-3.12-28.12 0 0-46.35 15.1-50.51 15.1v3.65s14.17-7.46 22.39 6.24c6.25 10.42 6.25 59.89 6.25 59.89s-2.08 138.06-4.69 155.42c-2.6 17.36-12.78 31.85-12.78 31.85v1.82z"/>
   <path class="cls-1" d="m59.01 168.36s-8.08-29.93 4.94-54.49l12 14.91s-15.07 7.15-16.94 39.58"/>
   <path class="cls-1" d="m442.17 62.23c-1.03-2.97 0.54-6.21 3.51-7.24 3.71-1.29 7.76 0.68 9.05 4.38 1.61 4.64-0.84 9.7-5.48 11.31-5.8 2.01-12.12-1.06-14.13-6.85-2.51-7.24 1.32-15.15 8.56-17.67 9.05-3.14 18.94 1.65 22.08 10.7 3.93 11.32-2.06 23.68-13.38 27.6-14.15 4.91-29.6-2.58-34.51-16.73-6.14-17.68 3.23-36.99 20.91-43.13 22.1-7.67 65.19-7.49 92.3 38.37 0 0 41.01 42.83-19.18 106.32l9.26 26.41s62.17-64.12 19.18-134.58h15.15s25.2 12.22 33.14 41.32c0 0-8.6-3.31-19.18-3.97l2.64 9.8c29.76 94.37-39.84 126.88-39.84 126.88s78.86-36.14 49.76-122.79c0 0 13.23-1.98 16.53 15.87 0 0 11.9-38.58-32.3-74.56 0 0-8.05-10.07 9.81-2.79 0 0-48.01-52.17-110.9-46.13-53.05 5.09-67.68 53.37-39.67 74.38l16.68-16.91z"/>
   <path class="cls-1" d="m195.52 26.89s-5.03-12.9-16.54-25.8l16.54 10.58v15.21zm-14.95 10.15s-6.61-7.28-23.81-9.26c0 0 13.89-11.91 23.81-11.91zm115.08-32.19s-4.63 1.76-27.12 2.42-62.83 5.95-62.83 5.95l-19.84-13.22c-56.22 3.31-81.35 21.17-81.35 21.17s-12.11-15.97-36.38-11.24c-28.69 5.58-68.13 33.06-68.13 33.06s4.76 11.75 35.04 18.52c4.14 0.93 7.43 2.36 10.06 4.08 6.35 5.91 10.6 12.94 10.03 21.05l18.94 22.06c-0.14-5.14-0.76-54.9 27.58-73.6 0.45-0.28 0.91-0.56 1.37-0.83 0.4-0.24 0.79-0.49 1.2-0.71 0.74-0.41 1.52-0.77 2.29-1.15-25.78-4.64-40.61 47.86-40.61 47.86s-3.61-23.03-17.54-25.91c-16.98-3.51-26.85-12-26.85-12s10.55-13.05 39.68-24.07c38.62-14.61 45.23 13.74 45.31 14.1 0.44-0.21 0.86-0.44 1.31-0.64-0.45 0.21-0.87 0.44-1.31 0.66 0.15 0.45 0.29 0.86 0.41 1.26l-4.83 10.36c6.26-2.67 15.82-5.14 30.2-6.98 49.83-6.38 78.05 23.15 78.05 23.15l-0.66-31.08s15.87-9.26 37.7-9.92h7.94l-0.66 21.17 24.47-3.31-18.52-4.63-0.66-13.23 21.88-3.31s6.56 43.65-25.85 50.93-50.87 6.61-50.87 6.61l-0.72 7.31c10.58-1.95 31.75 5.92 64.16-9.3 32.41-15.21 27.12-66.58 27.12-66.58"/>
   <path class="cls-1" d="m524.24 291.75v1.3h-2.52v6.57h-1.56v-6.57h-2.52v-1.3zm8.51 7.88-0.29-4.63c-0.03-0.61-0.03-1.36-0.06-2.2h-0.09c-0.2 0.7-0.43 1.62-0.67 2.35l-1.42 4.37h-1.62l-1.42-4.49c-0.14-0.61-0.38-1.54-0.55-2.23h-0.09c0 0.72-0.03 1.48-0.06 2.2l-0.29 4.63h-1.51l0.58-7.88h2.35l1.36 3.85c0.17 0.61 0.32 1.19 0.52 2h0.03c0.2-0.72 0.38-1.39 0.55-1.97l1.36-3.88h2.26l0.61 7.88h-1.56z"/>
  </g>
 </g>
</svg>
