/* XPM */
static char *AgilityBook16_xpm[] = {
"16 16 6 1 0 0",
"  c #000000",
"! c #FFFF00",
"# c #808080",
"$ c #0000FF",
"% c #FFFFFF",
"& c None",
"&&&&&&&&&&&&&&&&",
"&&&&&&&&&&&&&&&&",
"&&&&&&  &&&&&&&&",
"&&&&&& $  &&&&&&",
"&&&&& $$$$  &&&&",
"&&&&& $$$$$ &&&&",
"&&&& $$$$$ # &&&",
"&&&& $$$$$ # &&&",
"&&& $$$$$ ### &&",
"&&&  $$$$  ## &&",
"&& !!  $ &&  # &",
"&& !!!!  &&&&  &",
"& !!!!! &&&&&&&&",
"&  !!!! &&&&&&&&",
"&&&  ! &&&&&&&&&",
"&&&&&  &&&&&&&&&"
};
