/* XPM */
static const char *CalEnteredTentative_xpm[] = {
"16 16 5 1 0 0",
"  c #000000",
"! c #800000",
"# c #FF0000",
"$ c #FFFFFF",
"% c None",
"%%%%%%%%%%%%%%%%",
"%%%%%%%$$%%%%%%%",
"%%%%%%$##$%%%%%%",
"%%$$$$####$$$%%%",
"%$   ##$$#!  $%%",
"%%$  !#$$!! $%%%",
"%%%$   $ !!$%%%%",
"%%%%$   !!$%%%%%",
"%%%%%$ !!$%%%%%%",
"%%%%$  !! $%%%%%",
"%%%$   $   $%%%%",
"%%$   $#!   $%%%",
"%$   $$##$   $%%",
"%%$$$%%$$%$$$%%%",
"%%%%%%%%%%%%%%%%",
"%%%%%%%%%%%%%%%%"
};
