/* XPM */
static char *CalTentative_xpm[] = {
"16 16 4 1 0 0",
"  c #000000",
"! c #FF0000",
"# c #FFFFFF",
"$ c None",
"$$$$$$$$$$$$$$$$",
"$$$$$$$##$$$$$$$",
"$$$$$$#!!#$$$$$$",
"$$$$$#!!!!#$$$$$",
"$$$$#!!##!!#$$$$",
"$$$$#!!##!!#$$$$",
"$$$$$##$#!!#$$$$",
"$$$$$$$#!!#$$$$$",
"$$$$$$#!!#$$$$$$",
"$$$$$$#!!#$$$$$$",
"$$$$$$$##$$$$$$$",
"$$$$$$#!!#$$$$$$",
"$$$$$$#!!#$$$$$$",
"$$$$$$$##$$$$$$$",
"$$$$$$$$$$$$$$$$",
"$$$$$$$$$$$$$$$$"
};
