/* XPM */
static char *NoteNoteAdded_xpm[] = {
"16 16 6 1 0 0",
"  c #000000",
"! c #008000",
"# c #00FF00",
"$ c #FFFF00",
"% c #FFFFFF",
"& c None",
"&&&&&&&&&&&&&&&&",
"&&&&&&&&&&&&&&&&",
"&    &&&&&&&&&&&",
"& $$ $&&&&&&&&&&",
"& $$ $$&&&&##&&&",
"& $$ $$$&&&##!&&",
"& $$     ######&",
"& $$$$$$ ######!",
"& $$$$$$ &!##!!!",
"& $$$$$$ &&##!&&",
"& $$$$$$ &&&!!&&",
"& $$$$$$ &&&&&&&",
"&        &&&&&&&",
"&&&&&&&&&&&&&&&&",
"&&&&&&&&&&&&&&&&",
"&&&&&&&&&&&&&&&&"
};
