/* XPM */
static const char *points_xpm[] = {
"16 16 4 1 0 0",
"  c #000000",
"! c #0000FF",
"# c #FFFFFF",
"$ c None",
"$$$$$$$$$$$$$$$$",
"$$$$$$$  $$$$$$$",
"$$$$$  !!  $$$$$",
"$$$$$ !!!! $$$$$",
"$$$$ !!$$!! $$$$",
"$$$$ !!$$!! $$$$",
"$$$$$ !!!! $$$$$",
"$$$$$  !!  $$$$$",
"$$$$$ !  ! $$$$$",
"$$$$$ !  ! $$$$$",
"$$$$ !!  !! $$$$",
"$$$$ !!  !! $$$$",
"$$$$ ! $$ ! $$$$",
"$$$ !! $$ !! $$$",
"$$$ !! $$ !! $$$",
"$$$$$$$$$$$$$$$$"
};
