/* XPM */
static char *title_visible_have_xpm[] = {
"16 16 5 1 0 0",
"  c #000000",
"! c #00FF00",
"# c #0000FF",
"$ c #FFFFFF",
"% c None",
"%%%%%%%%%%%%%%%%",
"%%%%%%%%%  %%%%%",
"%%%%%%%  ##  %%%",
"%%%%%%% #### %%%",
"%%%%%% ##!!## %%",
"%%%%%% ##!!## %%",
"%%%%%%% #### %%%",
"%%%%%%%  ##  %%%",
"%%%%%%  #  # %%%",
"%%%%% $ #  # %%%",
"%%%% $$##  ## %%",
"  % $$ ##  ## %%",
" $ $$  # %% # %%",
" $$$  ## %% ## %",
"% $ % ## %% ## %",
"%% %%%%%%%%%%%%%"
};
