/* XPM */
static const char *title_visible_have_xpm[] = {
"16 16 4 1 0 0",
"  c #000000",
"! c #0000FF",
"# c #FFFFFF",
"$ c None",
"$$$$$$$$$$$$$$$$",
"$$$$$$$$$  $$$$$",
"$$$$$$$  !!  $$$",
"$$$$$$$ !!!! $$$",
"$$$$$$ !!$$!! $$",
"$$$$$$ !!$$!! $$",
"$$$$$$$ !!!! $$$",
"$$$$$$$  !!  $$$",
"$$$$$$  !  ! $$$",
"$$$$$ # !  ! $$$",
"$$$$ ##!!  !! $$",
"  $ ## !!  !! $$",
" # ##  ! $$ ! $$",
" ###  !! $$ !! $",
"$ # $ !! $$ !! $",
"$$ $$$$$$$$$$$$$"
};
