/* XPM */
static char *venue_fci_xpm[] = {
"16 16 4 1 0 0",
"  c #000000",
"! c #3366CC",
"# c #FFFFFF",
"$ c None",
"$$$$$$$$$$$$$$$$",
"!!!!!!!!!!!!!!!!",
"!!!!!!!!!!!!!!!!",
"!#####!!###!!#!!",
"!#!!!!!#!!!#!#!!",
"!#!!!!!#!!!!!#!!",
"!#!!!!!#!!!!!#!!",
"!####!!#!!!!!#!!",
"!#!!!!!#!!!!!#!!",
"!#!!!!!#!!!!!#!!",
"!#!!!!!#!!!!!#!!",
"!#!!!!!#!!!#!#!!",
"!#!!!!!!###!!#!!",
"!!!!!!!!!!!!!!!!",
"!!!!!!!!!!!!!!!!",
"$$$$$$$$$$$$$$$$"
};
