/* XPM */
static char *venue_nadac_xpm[] = {
"16 16 19 1 0 0",
"  c #000000",
"! c #404000",
"# c #008000",
"$ c #808000",
"% c #00FF00",
"& c #80FF00",
"' c #004080",
"( c #008080",
") c #408080",
"* c #808080",
"+ c #A0A0A4",
", c #C0DCC0",
"- c #A4C8F0",
". c #FFFBF0",
"/ c #4080FF",
"0 c #00FFFF",
"1 c #80FFFF",
"2 c #FFFFFF",
"3 c None",
"2222,,%%%%,22222",
"2221)%$)0(%&2222",
"2210*$/+0000).22",
"2,00%&0000%00&22",
".-))%%%)0)%00%,2",
",0000%%$%$000$&2",
"+'(((## %%(0%'!.",
"+ ((((!#((#%#/).",
"*) (' #!(( %#00.",
"*(((((# %##00')2",
",10/0)%%%%%000-2",
"2,00/0%%00000022",
"2.10000*0)0)0222",
"22210000%%%*2222",
"22222-0)%++.2222",
"222222...2222222"
};
