/* XPM */
static const char *AccConfirm_xpm[] = {
"16 16 4 1 0 0",
"  c #000000",
"! c #FF00FF",
"# c #FFFFFF",
"$ c None",
"$$$$$$$$$$$$$$$$",
"$$$$$$$$$$$$$$$$",
"$$$$$$$$$$$$$$$$",
" $$$$$$$$$$$$$$$",
" $$$$$$$$$$$$$$$",
" $$$$$$$$$$$$$$$",
"     $$$$$$$$$  ",
" !!!!           ",
" !!!! !!!!!!!!! ",
" !!!! !!!!!!!!! ",
" !!!! !!!!!!!!! ",
"                ",
" $$$$$$$$$$$$$  ",
"$$$$$$$$$$$$$$$$",
"$$$$$$$$$$$$$$$$",
"$$$$$$$$$$$$$$$$"
};
