/* XPM */
static char *AccNone_xpm[] = {
"16 16 7 1 0 0",
"  c #000000",
"! c #FFFF00",
"# c #808080",
"$ c #0000FF",
"% c #00FFFF",
"& c #FFFFFF",
"' c None",
"''''''''''''''''",
"''''''''''''''''",
"''''''''''''''''",
"''''''''''''''''",
"'''''$$$$$$$#'''",
"''''$$%%$%%$$#''",
"'''$%%%%$%%%$$$#",
"'$$$$$$$$$$$$$$$",
"!$$$$$$$$$$$$$$$",
"$$$  $$$$$$$  $$",
"''' #''''''' #''",
"''''''''''''''''",
"''''''''''''''''",
"''''''''''''''''",
"''''''''''''''''",
"''''''''''''''''"
};
