/* XPM */
static char *AccTodo_xpm[] = {
"16 16 24 1 0 0",
"  c #000000",
"! c #333300",
"# c #666600",
"$ c #808000",
"% c #999900",
"& c #CCCC00",
"' c #FFFF00",
"( c #040404",
") c #333333",
"* c #666633",
"+ c #999933",
", c #CCCC33",
"- c #FFFF33",
". c #393939",
"/ c #666666",
"0 c #999966",
"1 c #CCCC66",
"2 c #FFFF66",
"3 c #868686",
"4 c #ADA990",
"5 c #CCCC99",
"6 c #FFFF99",
"7 c #FFFFFF",
"8 c None",
"8888888888888888",
"888(.$$!(8888888",
"88(&'4322$!(8888",
"88!'%!2#'22&!(88",
"88$#*$1!%*#1-&(8",
"88(*-2&'$$0!--&(",
"88)-2$01&',!'22*",
"8)-2$01$''1!'1$!",
")6'%01$''1$!&1$!",
"/282'%''1$$!&+!!",
"/''282'1$$$#!#!(",
"(/1''25$$$$#!(88",
"88(/1'&$$#!(8888",
"8888(/+#!(888888",
"888888((88888888",
"8888888888888888"
};
