/* XPM */
static char *calendar_xpm[] = {
"16 16 6 1 0 0",
"  c #000000",
"! c #808080",
"# c #C0C0C0",
"$ c #0000FF",
"% c #FFFFFF",
"& c None",
"&&&&&&&&&&&&&&&&",
"&&&&&&&&&&&&&&&&",
"&$$$$$$$$$$$$$$$",
"&$$$$$$$$$$$$$$$",
"&!!!!!!!!!!!!!! ",
"&!!#!#!#!#!#!#! ",
"&!############# ",
"&!!#!#!#!#!#!#! ",
"&!############# ",
"&!!#!#!#!#!#!#! ",
"&!############# ",
"&!!#!#!#!#!#!#! ",
"&!############# ",
"&!!#!#!#!#!#!#! ",
"&!!!!!!!!!!!!!! ",
"&&&&&&&&&&&&&&&&"
};
