/* XPM */
static const char *crcd_xpm[] = {
"16 16 8 1 0 0",
"  c #000000",
"! c #800000",
"# c #FF0000",
"$ c #FFFF00",
"% c #808080",
"& c #0000FF",
"' c #FFFFFF",
"( c None",
"((((((((((((((((",
"((((((((((((((((",
"((((((  ((((((((",
"(((((( &  ((((((",
"((((( &&&&  ((((",
"((((( &&&&& ((((",
"(##( &&&&& % (((",
"(### &&&&& % (((",
"(## &&&&& %%% ((",
"((#  &&&&  %% ((",
"(( $$  & #(  % (",
"(( $$$$  ##((  (",
"( $$$$$ #!!#((((",
"(  $$$$ #!!#((((",
"(((  $ ##!!#((((",
"(((((  (###((((("
};
