/* XPM */
static char *dog_xpm[] = {
"16 16 6 1 0 0",
"  c #000000",
"! c #FF0000",
"# c #808000",
"$ c #FFFF00",
"% c #FFFFFF",
"& c None",
"&&&&&&&&&&&&&&&&",
"&&&&&&&&&&&&&&&&",
"&&&&&&      &&&&",
"&&&&&$# ## # &&&",
"&    ##  # # &&&",
"&  ##### ## # &&",
"!!!#####  # #   ",
"&    ####   ####",
"&&&&&  #########",
"&&&&&&  ########",
"&&&&&&&   ######",
"&&&&&&&&&  #####",
"&&&&&&&&&& #####",
"&&&&&&&&&& #####",
"&&&&&&&&&&&&&&&&",
"&&&&&&&&&&&&&&&&"
};
