/* XPM */
static const char *help48_xpm[] = {
"48 48 11 1 0 0",
"  c #000000",
"! c #FFCC00",
"# c #FFFF00",
"$ c #777777",
"% c #808080",
"& c #868686",
"' c #969696",
"( c #C0C0C0",
") c #CBCBCB",
"* c #FFFFFF",
"+ c None",
"++++++++++++++++++++++++++++++++++++++++++++++++",
"++++++++++++++++++++++++++++++++++++++++++++++++",
"++++++++++++++++++++++++++++++++++++++++++++++++",
"+++++++++++++++++++++++++++)))))))))++++++++++++",
"+++++++++++++++++++++++++))!!#!#!#!!))++++++++++",
"++++++++++++++++++++++++)!#!#!#!#!#!#!'+++++++++",
"+++++++++++++++++++++++)!#!#!#!#!#!#!#!'++++++++",
"++++++++++++++++++++++)!#!#!#!#!#!#!#!#!$+++++++",
"+++++++++++++++++++++)!#!#!#!#!#!#!#!#!#$+++++++",
"+++++++++++++++++++++)#!#!#!!&&&&!#!#!#!!$++++++",
"++++++++++++++++++++)!!#!#!!&++++&!#!#!#!$++++++",
"++++++++++++++++++++)!#!#!#&+++++&#!#!#!#$++++++",
"++++++++++++++++++++)!!#!#!&+++++&!#!#!#!$++++++",
"++++++++++++++++++++))))))&&+++++&#!#!#!#$++++++",
"+++++++++++++++++++++++++++++++++&!#!#!#!$++++++",
"++++++++++++++++++++++++++++++++&!#!#!#!!$++++++",
"+++++++++++++++++++++++++++++++&!#!#!#!!%+++++++",
"+++++++%%%%%%%%%%%%%%%%%+++++&&!#!#!#!#!%+++++++",
"+++++++%((((((((((((((((((++&!!#!#!#!#!%++++++++",
"+++++++%(**************(**(&!!#!#!#!!!%+++++++++",
"+++++++%(**************(***&!#!#!#!!%%++++++++++",
"+++++++%(**************(**&!#!#!#!! ++++++++++++",
"+++++++%(**************%%%&#!#!#!#%+++++++++++++",
"+++++++%(*****************&!#!#!#! +++++++++++++",
"+++++++%(***'''''''''''')*         +++++++++++++",
"+++++++%(***)))))))))))))****%++++++++++++++++++",
"+++++++%(********************%++++++++++++++++++",
"+++++++%(*****************%%%%%%%%%%++++++++++++",
"+++++++%(***'''''''''''')*%#!#!#!#! ++++++++++++",
"+++++++%(***)))))))))))))*%!#!#!#!# ++++++++++++",
"+++++++%(*****************%#!#!#!#! ++++++++++++",
"+++++++%(*****************%!#!#!#!# ++++++++++++",
"+++++++%(***'''''''''''')*%#!#!#!#! ++++++++++++",
"+++++++%(***)))))))))))))*%!#!#!#!# ++++++++++++",
"+++++++%(*****************%         ++++++++++++",
"+++++++%(*******************( ++++++++++++++++++",
"+++++++%(***'''''''''''''***( ++++++++++++++++++",
"+++++++%(***)))))))))))))***( ++++++++++++++++++",
"+++++++%(*******************( ++++++++++++++++++",
"+++++++%(*******************( ++++++++++++++++++",
"+++++++%(*******************( ++++++++++++++++++",
"+++++++%((((((((((((((((((((( ++++++++++++++++++",
"+++++++%                      ++++++++++++++++++",
"++++++++++++++++++++++++++++++++++++++++++++++++",
"++++++++++++++++++++++++++++++++++++++++++++++++",
"++++++++++++++++++++++++++++++++++++++++++++++++",
"++++++++++++++++++++++++++++++++++++++++++++++++",
"++++++++++++++++++++++++++++++++++++++++++++++++"
};
