/* XPM */
static char *help32_xpm[] = {
"32 32 6 1 0 0",
"  c #000000",
"! c #FFFF00",
"# c #808080",
"$ c #C0C0C0",
"% c #FFFFFF",
"& c None",
"&&&&&&&&&&&&&&&&&&&&&&&&&&&&&&&&",
"&&&&&&&&&&&&&&&&&&&&&&&&&&&&&&&&",
"&&&&&&&&&&&&&&&&#     #&&&&&&&&&",
"&&&&&&&&&&&&&&# !!!!!!!  &&&&&&&",
"&&&&&&&&&&&&&#$!!!!!!!!!$ &&&&&&",
"&&&&&&&&&&&&$ !!!!!!!!!!! $&&&&&",
"&&&&&&&&&&&& !!!!!   !!!!! &&&&&",
"&&&&&&&&&&&& !!!! &&& !!!! &&&&&",
"&&&&&&&&&&&& !!!! &&& !!!! &&&&&",
"&&&&&&&&&&&&      &&& !!!! &&&&&",
"&&&&&&&&&&&&&&&&&&&& !!!!! &&&&&",
"&&&&&############&$ !!!!!$#&&&&&",
"&&&&&#%%%%%%%%%$% !!!!!!# &&&&&&",
"&&&&&#%%%%%%%%%$ !!!!!!#$&&&&&&&",
"&&&&&#%%%%%%%%%$ !!!!!% &&&&&&&&",
"&&&&&#%%%%%%%%%% !!!!% &&&&&&&&&",
"&&&&&#%%#######$       &&&&&&&&&",
"&&&&&#%%%%%%%%%%%% &&&&&&&&&&&&&",
"&&&&&#%%#######$       &&&&&&&&&",
"&&&&&#%%%%%%%%%% !!!!! &&&&&&&&&",
"&&&&&#%%#######$ !!!!! &&&&&&&&&",
"&&&&&#%%%%%%%%%% !!!!! &&&&&&&&&",
"&&&&&#%%#######$ !!!!! &&&&&&&&&",
"&&&&&#%%%%%%%%%%       &&&&&&&&&",
"&&&&&#%%########%% &&&&&&&&&&&&&",
"&&&&&#%%%%%%%%%%%% &&&&&&&&&&&&&",
"&&&&&#%%%%%%%%%%%% &&&&&&&&&&&&&",
"&&&&&#%%%%%%%%%%%% &&&&&&&&&&&&&",
"&&&&&#             &&&&&&&&&&&&&",
"&&&&&&&&&&&&&&&&&&&&&&&&&&&&&&&&",
"&&&&&&&&&&&&&&&&&&&&&&&&&&&&&&&&",
"&&&&&&&&&&&&&&&&&&&&&&&&&&&&&&&&"
};
