/* XPM */
static char *NoteAdded_xpm[] = {
"16 16 5 1 0 0",
"  c #000000",
"! c #008000",
"# c #00FF00",
"$ c #FFFFFF",
"% c None",
"%%%%%%%%%%%%%%%%",
"%%%%%%%%%%%%%%%%",
"%%%%%%%%%%%%%%%%",
"%%%%%%%%%%%%%%%%",
"%%%%%%%%%%%##%%%",
"%%%%%%%%%%%##!%%",
"%%%%%%%%%######%",
"%%%%%%%%%######!",
"%%%%%%%%%%!##!!!",
"%%%%%%%%%%%##!%%",
"%%%%%%%%%%%%!!%%",
"%%%%%%%%%%%%%%%%",
"%%%%%%%%%%%%%%%%",
"%%%%%%%%%%%%%%%%",
"%%%%%%%%%%%%%%%%",
"%%%%%%%%%%%%%%%%"
};
