/* XPM */
static const char *Note_xpm[] = {
"16 16 4 1 0 0",
"  c #000000",
"! c #FFFF00",
"# c #FFFFFF",
"$ c None",
"$$$$$$$$$$$$$$$$",
"$$$$$$$$$$$$$$$$",
"$$$$    $$$$$$$$",
"$$$$ !! !$$$$$$$",
"$$$$ !! !!$$$$$$",
"$$$$ !! !!!$$$$$",
"$$$$ !!     $$$$",
"$$$$ !!!!!! $$$$",
"$$$$ !!!!!! $$$$",
"$$$$ !!!!!! $$$$",
"$$$$ !!!!!! $$$$",
"$$$$ !!!!!! $$$$",
"$$$$        $$$$",
"$$$$$$$$$$$$$$$$",
"$$$$$$$$$$$$$$$$",
"$$$$$$$$$$$$$$$$"
};
