/* XPM */
static const char *toolbarPreview_xpm[] = {
"16 15 5 1 0 0",
"  c #000000",
"! c #C0C0C0",
"# c #00FFFF",
"$ c #FFFFFF",
"% c None",
"         %%%%%%%",
" $$$$$$$  %%%%%%",
" $$$$$$$ ! %%%%%",
" $$$$$$$    %%%%",
" $$$$$$$$$$ %%%%",
" $$$$$$$    %%%%",
" $$$$$$  !!  %%%",
" $$$$$  ##!   %%",
" $$$$$ !#!! % %%",
" $$$$$ !!!! % %%",
" $$$$$  !!#   %%",
" $$$$$$  !!   %%",
" $$$$$$$       %",
" $$$$$$$$$$ %   ",
"            %%  "
};
