/* XPM */
static const char *toolbarTitle_xpm[] = {
"16 15 5 1 0 0",
"  c #000000",
"! c #00FF00",
"# c #0000FF",
"$ c #FFFFFF",
"% c None",
"%%%%%%%  %%%%%%%",
"%%%%%  ##  %%%%%",
"%%%%% #### %%%%%",
"%%%% ##!!## %%%%",
"%%%% ##!!## %%%%",
"%%%%% #### %%%%%",
"%%%%%  ##  %%%%%",
"%%%%% #  # %%%%%",
"%%%%% #  # %%%%%",
"%%%% ##  ## %%%%",
"%%%% ##  ## %%%%",
"%%%% # %% # %%%%",
"%%% ## %% ## %%%",
"%%% ## %% ## %%%",
"%%%%%%%%%%%%%%%%"
};
