/* XPM */
static char *venue_usdaa_xpm[] = {
"16 16 5 1 0 0",
"  c #000000",
"! c #FFFF00",
"# c #0000FF",
"$ c #FFFFFF",
"% c None",
"%%%%!!!!!!!!%%%%",
"%%%!!$$$$$$!!%%%",
"%%!!$$  $$$$!!%%",
"%!!$$#$  $$$$!!%",
"!!#$#$$ $ $ $$!!",
"!#$$#$$#$  $ $$!",
"!#$#$#$#$  $  $!",
"! $ $#$#$##$ $ !",
"! $ $$##$####$ !",
"! $ $$##$##$###!",
"!$ $$ $#$##$#$#!",
"!!$$$ $#$##$#$!!",
"%!!$ $$# $$$$!!%",
"%%!!$$$ $$$$!!%%",
"%%%!!$$$$$$!!%%%",
"%%%%!!!!!!!!%%%%"
};
