/* XPM */
static const char *venue_docna_xpm[] = {
"16 16 16 1 0 0",
"  c #000000",
"! c #000099",
"# c #0000CC",
"$ c #3333CC",
"% c #6666CC",
"& c #9999CC",
"' c #CCCCCC",
"( c #DDDDDD",
") c #E3E3E3",
"* c #EAEAEA",
"+ c #A6CAF0",
", c #FFFBF0",
"- c #F1F1F1",
". c #CCCCFF",
"/ c #FFFFFF",
"0 c None",
"################",
"################",
"####$.&##%&$####",
"####&/-$%-/%!###",
"#%&$&/-%&/-%$$##",
"#./&$&&$%+&%+'$#",
"#./*$$+..&$+//$#",
"#%*+&'///*&.,($#",
"##$%-////,)&&%##",
"###&,/////-%####",
"###+///////%####",
"###&///////&####",
"###&///////%####",
"###$+*+&++&$####",
"####$$$#$$######",
"################"
};
