/* XPM */
static const char *venue_akc_xpm[] = {
"16 16 33 1 0 0",
"  c #000000",
"! c #905C25",
"# c #79552E",
"$ c #976B39",
"% c #A97339",
"& c #C9893F",
"' c #BA8447",
"( c #A47948",
") c #AB7F4B",
"* c #C08A4E",
"+ c #C58F51",
", c #B98A52",
"- c #CA9355",
". c #CF9959",
"/ c #BE9361",
"0 c #CB9B63",
"1 c #D8A264",
"2 c #AA8D6C",
"3 c #DDAC72",
"4 c #A68F74",
"5 c #AC9377",
"6 c #E8B577",
"7 c #B99E7A",
"8 c #B5A08B",
"9 c #E9C28F",
": c #E3C6A2",
"; c #EED6B6",
"< c #EFDCC5",
"= c #F5E7D3",
"> c #ECE7E1",
"? c #FBFAF8",
"@ c #FFFFFF",
"A c None",
"AAAAAAAAAAAAAAAA",
"AAAAAAAAAAAAAAAA",
"AAAAAAAAA>;<AAAA",
"AAAAAAAA?3-&:AAA",
"AAAAAAA?91.+,AAA",
"AAAAAA=3.+$-1<AA",
"AA=;=9-',,#.-.:A",
"A<.+.'%$)6611+,A",
"A0'-,#$11*%%$%7A",
"A8!'0)01+%$5##AA",
"AA8)010($2AAAAAA",
"AAA/+1.(AAAAAAAA",
"AAA8!%%7AAAAAAAA",
"AAAA4#$AAAAAAAAA",
"AAAAAAAAAAAAAAAA",
"AAAAAAAAAAAAAAAA"
};
