/* XPM */
static const char *venue_nadac_xpm[] = {
"16 16 18 1 0 0",
"  c #000000",
"! c #404000",
"# c #008000",
"$ c #808000",
"% c #00FF00",
"& c #80FF00",
"' c #004080",
"( c #008080",
") c #408080",
"* c #808080",
"+ c #A0A0A4",
", c #C0DCC0",
"- c #A4C8F0",
". c #4080FF",
"/ c #00FFFF",
"0 c #80FFFF",
"1 c #FFFFFF",
"2 c None",
"2222,,%%%%,22222",
"2220)%$)/(%&2222",
"220/*$.+////)222",
"2,//%&////%//&22",
"2-))%%%)/)%//%,2",
",////%%$%$///$&2",
"+'(((## %%(/%'!2",
"+ ((((!#((#%#.)2",
"*) (' #!(( %#//2",
"*(((((# %##//')2",
",0/./)%%%%%///-2",
"2,//./%%//////22",
"220////*/)/)/222",
"2220////%%%*2222",
"22222-/)%++22222",
"2222222222222222"
};
