/* XPM */
static const char *venue_ukc_xpm[] = {
"16 16 3 1 0 0",
"  c #000000",
"! c #FFFFFF",
"# c None",
"###!!!!!!!!!!!!!",
"## !!!!!!!!!!!!!",
"# !!!!!!!!!!!!!!",
" !! !!! !! !  !!",
" !! !!! ! ! !! !",
" !! !!!  !! !!!!",
" !! !!!  !! !!!!",
" !! !!! ! ! !!!!",
" !! !!! !!  !! !",
" !!!   !!! !  !!",
"  !!!!!!!!!!!!!!",
"#  !!!!!!!!!!!!!",
"##  !!!!!!!!!! #",
"###   !!!!!!! ##",
"#####        ###",
"################"
};
