/* XPM */
static char *venue_cpe_xpm[] = {
"16 16 4 1 0 0",
"  c #000000",
"! c #008080",
"# c #FFFFFF",
"$ c None",
"################",
"################",
"#!!!##!!!!#!!!!!",
"!!#!!#!!!!!#!!!!",
"!!##!##!!#!#!###",
"!!#####!!#!#!###",
"!!#####!!#!#!#!#",
"!!####!!!!#!!!!#",
"!!####!!!!#!!!!#",
"!!#####!!###!#!#",
"!!#####!!###!###",
"!!##!##!!###!###",
"!!#!!##!!###!!!!",
"#!!!##!!!!#!!!!!",
"################",
"################"
};
