/* XPM */
static const char *venue_sweep_xpm[] = {
"16 16 4 1 0 0",
"  c #000000",
"! c #008000",
"# c #FFFFFF",
"$ c None",
"$$$$$$    $$$$$$",
"$$$$$$ !! $$$$$$",
"$$$$$$ !!    $$$",
"$$$$$ !!!!!! $$$",
"$$$$ !!!!!! $$$$",
"$$$ !!$!!  $$$$$",
"$$$ !!$!!  $$$$$",
"$$$ !!!!!!! $$$$",
"$$$$ !!!!!!! $$$",
"$$$$$  !!$!! $$$",
"$$$$$  !!$!! $$$",
"$$$$ !!!!!!! $$$",
"$$$ !!!!!!  $$$$",
"$$$    !! $$$$$$",
"$$$$$$ !! $$$$$$",
"$$$$$$    $$$$$$"
};
