/* XPM */
static char *venue_scc_xpm[] = {
"16 16 3 1 0 0",
"  c #000000",
"! c #FFFFFF",
"# c None",
"!!!!!!!!!       ",
"!!!!!!!!        ",
"!!!!!!!  !!!!!!!",
"!!!!!!  !!!!!!!!",
"!!!!!! !!!!!    ",
"!!!!!! !!!   !!!",
"!!!!!! !!  !!!  ",
"!!!!!! !  !!   !",
"!!!!!! ! !!  !!!",
"!!!!!! ! !  !!!!",
"!!!!!! ! ! !!!!!",
"!!!!!! ! ! !!!!!",
"!!!!!! ! !  !!!!",
"!!!!!  !  !  !!!",
"      !!!       ",
"    !!!!!!      "
};
